OpenSans-Light.ufo
<glyph name="exclam" format="2">
	<unicode hex="0021"/>
	<advance width="496"/>
	<outline>
		<contour>
			<point x="315.143" y="401.714" type="line"/>
			<point x="332.571" y="1462" type="line"/>
			<point x="167" y="1462" type="line"/>
			<point x="184.429" y="401.714" type="line"/>
		</contour>
		<contour>
			<point x="148.857" y="81" type="curve" smooth="yes"/>
			<point x="148.857" y="17.4286"/>
			<point x="183.429" y="-18.5714"/>
			<point x="245.571" y="-18.5714" type="curve" smooth="yes"/>
			<point x="312.857" y="-18.5714"/>
			<point x="344.714" y="17.4286"/>
			<point x="344.714" y="81" type="curve" smooth="yes"/>
			<point x="344.714" y="144.857"/>
			<point x="312.857" y="181.571"/>
			<point x="245.571" y="181.571" type="curve" smooth="yes"/>
			<point x="183.429" y="181.571"/>
			<point x="148.857" y="144.857"/>
		</contour>
	</outline>
</glyph>
<glyph name="quotedbl" format="2">
	<unicode hex="0022"/>
	<advance width="774"/>
	<outline>
		<contour>
			<point x="284.143" y="1462" type="line"/>
			<point x="141.714" y="1462" type="line"/>
			<point x="159.143" y="934" type="line"/>
			<point x="266.714" y="934" type="line"/>
		</contour>
		<contour>
			<point x="633.429" y="1462" type="line"/>
			<point x="491" y="1462" type="line"/>
			<point x="508.429" y="934" type="line"/>
			<point x="616" y="934" type="line"/>
		</contour>
	</outline>
</glyph>
<glyph name="dollar" format="2">
	<unicode hex="0024"/>
	<advance width="1171"/>
	<outline>
		<contour>
			<point x="511.714" y="-119" type="line"/>
			<point x="600.429" y="-119" type="line"/>
			<point x="600.429" y="28.2857" type="line"/>
			<point x="852.143" y="47"/>
			<point x="1010.71" y="178.571"/>
			<point x="1010.71" y="406.714" type="curve" smooth="yes"/>
			<point x="1010.71" y="630.857"/>
			<point x="846.143" y="708.571"/>
			<point x="600.429" y="793.143" type="curve"/>
			<point x="600.429" y="1315.86" type="line"/>
			<point x="694.429" y="1311.57"/>
			<point x="803.429" y="1290.57"/>
			<point x="914.429" y="1241.86" type="curve"/>
			<point x="955.286" y="1353.71" type="line"/>
			<point x="844.286" y="1403"/>
			<point x="725.714" y="1431.14"/>
			<point x="600.429" y="1434.86" type="curve"/>
			<point x="600.429" y="1554.57" type="line"/>
			<point x="511.714" y="1554.57" type="line"/>
			<point x="511.714" y="1434.29" type="line"/>
			<point x="277.571" y="1420.57"/>
			<point x="108.714" y="1302.43"/>
			<point x="108.714" y="1078" type="curve" smooth="yes"/>
			<point x="108.714" y="845.286"/>
			<point x="288.429" y="763.857"/>
			<point x="511.714" y="685.571" type="curve"/>
			<point x="511.714" y="148.571" type="line"/>
			<point x="369.571" y="152.857"/>
			<point x="226.429" y="182.857"/>
			<point x="122.429" y="225.571" type="curve"/>
			<point x="122.429" y="94" type="line"/>
			<point x="216.714" y="59.2857"/>
			<point x="338.286" y="30.4286"/>
			<point x="511.714" y="27.1429" type="curve"/>
		</contour>
		<contour>
			<point x="600.429" y="149.714" type="curve"/>
			<point x="600.429" y="657.143" type="line"/>
			<point x="774" y="592.429"/>
			<point x="875.286" y="536.143"/>
			<point x="875.286" y="398.714" type="curve" smooth="yes"/>
			<point x="875.286" y="237.714"/>
			<point x="762.571" y="160.286"/>
		</contour>
		<contour>
			<point x="511.714" y="821.714" type="line"/>
			<point x="364" y="876.571"/>
			<point x="242.286" y="933.857"/>
			<point x="242.286" y="1084.86" type="curve" smooth="yes"/>
			<point x="242.286" y="1232.86"/>
			<point x="359.143" y="1307.14"/>
			<point x="511.714" y="1315.29" type="curve"/>
		</contour>
	</outline>
</glyph>
<glyph name="quotesingle" format="2">
	<unicode hex="0027"/>
	<advance width="422"/>
	<outline>
		<contour>
			<point x="284.143" y="1462" type="line"/>
			<point x="141.714" y="1462" type="line"/>
			<point x="159.143" y="934" type="line"/>
			<point x="266.714" y="934" type="line"/>
		</contour>
	</outline>
</glyph>
<glyph name="asterisk" format="2">
	<unicode hex="002A"/>
	<advance width="1120"/>
	<outline>
		<contour>
			<point x="620.571" y="1553.14" type="line"/>
			<point x="492.571" y="1553.14" type="line"/>
			<point x="513" y="1151.14" type="line"/>
			<point x="129.286" y="1281.43" type="line"/>
			<point x="103.571" y="1159" type="line"/>
			<point x="482.286" y="1068.29" type="line"/>
			<point x="240.571" y="750.286" type="line"/>
			<point x="352.571" y="687.857" type="line"/>
			<point x="555.571" y="1015.29" type="line"/>
			<point x="766.429" y="685.857" type="line"/>
			<point x="874.286" y="750.286" type="line"/>
			<point x="632.286" y="1068.29" type="line"/>
			<point x="1008.43" y="1157.86" type="line"/>
			<point x="986.429" y="1281.43" type="line"/>
			<point x="600.429" y="1151.14" type="line"/>
		</contour>
	</outline>
</glyph>
<glyph name="hyphen" format="2">
	<unicode hex="002D"/>
	<advance width="657"/>
	<outline>
		<contour>
			<point x="70.8571" y="490.857" type="line"/>
			<point x="586.571" y="490.857" type="line"/>
			<point x="586.571" y="617.143" type="line"/>
			<point x="70.8571" y="617.143" type="line"/>
		</contour>
	</outline>
</glyph>
<glyph name="one" format="2">
	<unicode hex="0031"/>
	<advance width="1176"/>
	<outline>
		<contour>
			<point x="737" y="0" type="line"/>
			<point x="737" y="1462" type="line"/>
			<point x="601.714" y="1462" type="line"/>
			<point x="173.286" y="1137.29" type="line"/>
			<point x="255.429" y="1034.57" type="line"/>
			<point x="482.857" y="1207.29" type="line"/>
			<point x="527.286" y="1242.29"/>
			<point x="554.143" y="1264.57"/>
			<point x="587.714" y="1297" type="curve"/>
			<point x="584.571" y="1228"/>
			<point x="584.571" y="1124.86"/>
			<point x="584.571" y="1030.14" type="curve" smooth="yes"/>
			<point x="584.571" y="0" type="line"/>
		</contour>
	</outline>
</glyph>
<glyph name="two" format="2">
	<unicode hex="0032"/>
	<advance width="1176"/>
	<outline>
		<contour>
			<point x="1039.14" y="0" type="line"/>
			<point x="1039.14" y="129.571" type="line"/>
			<point x="301.857" y="129.571" type="line"/>
			<point x="301.857" y="133.857" type="line"/>
			<point x="636.714" y="483.429" type="line"/>
			<point x="857.571" y="704.714"/>
			<point x="982.571" y="849.714"/>
			<point x="982.571" y="1098" type="curve" smooth="yes"/>
			<point x="982.571" y="1324.43"/>
			<point x="816.571" y="1483"/>
			<point x="565.286" y="1483" type="curve" smooth="yes"/>
			<point x="398.571" y="1483"/>
			<point x="256.714" y="1421.71"/>
			<point x="130" y="1314.71" type="curve"/>
			<point x="214.143" y="1212.86" type="line"/>
			<point x="325.286" y="1305.86"/>
			<point x="442.571" y="1351.71"/>
			<point x="552.429" y="1351.71" type="curve" smooth="yes"/>
			<point x="723.429" y="1351.71"/>
			<point x="831.286" y="1253.29"/>
			<point x="831.286" y="1082.29" type="curve" smooth="yes"/>
			<point x="831.286" y="889.857"/>
			<point x="738.286" y="772.714"/>
			<point x="533.714" y="557.429" type="curve" smooth="yes"/>
			<point x="103.857" y="107.857" type="line"/>
			<point x="103.857" y="0" type="line"/>
		</contour>
	</outline>
</glyph>
<glyph name="three" format="2">
	<unicode hex="0033"/>
	<advance width="1176"/>
	<outline>
		<contour>
			<point x="994.429" y="1132.86" type="curve" smooth="yes"/>
			<point x="994.429" y="1356"/>
			<point x="824.714" y="1483"/>
			<point x="567.286" y="1483" type="curve" smooth="yes"/>
			<point x="366.143" y="1483"/>
			<point x="221.571" y="1421.29"/>
			<point x="101.286" y="1332.14" type="curve"/>
			<point x="168.143" y="1226" type="line"/>
			<point x="275.429" y="1302.29"/>
			<point x="402.286" y="1355.71"/>
			<point x="549.571" y="1355.71" type="curve" smooth="yes"/>
			<point x="727.143" y="1355.71"/>
			<point x="845" y="1274.43"/>
			<point x="845" y="1106" type="curve" smooth="yes"/>
			<point x="845" y="911"/>
			<point x="679.857" y="817.714"/>
			<point x="460.429" y="817.714" type="curve" smooth="yes"/>
			<point x="312.714" y="817.714" type="line"/>
			<point x="312.714" y="696.429" type="line"/>
			<point x="459.857" y="696.429" type="line" smooth="yes"/>
			<point x="726.857" y="696.429"/>
			<point x="879.429" y="613.857"/>
			<point x="879.429" y="409.857" type="curve" smooth="yes"/>
			<point x="879.429" y="224.286"/>
			<point x="755.286" y="105.286"/>
			<point x="489.714" y="105.286" type="curve" smooth="yes"/>
			<point x="349.429" y="105.286"/>
			<point x="198.429" y="143.429"/>
			<point x="88.5714" y="198.429" type="curve"/>
			<point x="88.5714" y="64" type="line"/>
			<point x="199.286" y="14.2857"/>
			<point x="336.286" y="-20"/>
			<point x="506" y="-20" type="curve" smooth="yes"/>
			<point x="861.429" y="-20"/>
			<point x="1038.86" y="160.857"/>
			<point x="1038.86" y="403" type="curve" smooth="yes"/>
			<point x="1038.86" y="617.143"/>
			<point x="908.714" y="733.571"/>
			<point x="679.286" y="764" type="curve"/>
			<point x="679.286" y="768.571" type="line"/>
			<point x="856.143" y="804.143"/>
			<point x="994.429" y="936"/>
		</contour>
	</outline>
</glyph>
<glyph name="five" format="2">
	<unicode hex="0035"/>
	<advance width="1176"/>
	<outline>
		<contour>
			<point x="590.429" y="896.571" type="curve" smooth="yes"/>
			<point x="463.429" y="896.571"/>
			<point x="385.714" y="876.571"/>
			<point x="324.857" y="862.143" type="curve"/>
			<point x="366.429" y="1331.57" type="line"/>
			<point x="963.714" y="1331.57" type="line"/>
			<point x="963.714" y="1462" type="line"/>
			<point x="236.857" y="1462" type="line"/>
			<point x="177.571" y="772.143" type="line"/>
			<point x="246.857" y="729.429" type="line"/>
			<point x="333.429" y="755"/>
			<point x="421.714" y="773"/>
			<point x="533.571" y="773" type="curve" smooth="yes"/>
			<point x="776.286" y="773"/>
			<point x="901.286" y="651.714"/>
			<point x="901.286" y="452.857" type="curve" smooth="yes"/>
			<point x="901.286" y="232.571"/>
			<point x="747.857" y="105.286"/>
			<point x="506.857" y="105.286" type="curve" smooth="yes"/>
			<point x="365.857" y="105.286"/>
			<point x="230.571" y="147.429"/>
			<point x="135.429" y="200.143" type="curve"/>
			<point x="135.429" y="64" type="line"/>
			<point x="228" y="13.1429"/>
			<point x="356.286" y="-20"/>
			<point x="516.286" y="-20" type="curve" smooth="yes"/>
			<point x="849.571" y="-20"/>
			<point x="1054.57" y="157.143"/>
			<point x="1054.57" y="456.286" type="curve" smooth="yes"/>
			<point x="1054.57" y="738.714"/>
			<point x="869.143" y="896.571"/>
		</contour>
	</outline>
</glyph>
<glyph name="six" format="2">
	<unicode hex="0036"/>
	<advance width="1176"/>
	<outline>
		<contour>
			<point x="119.286" y="620.143" type="curve" smooth="yes"/>
			<point x="119.286" y="270.714"/>
			<point x="277.714" y="-20"/>
			<point x="614.571" y="-20" type="curve" smooth="yes"/>
			<point x="905" y="-20"/>
			<point x="1075.57" y="174.857"/>
			<point x="1075.57" y="472.143" type="curve" smooth="yes"/>
			<point x="1075.57" y="748.714"/>
			<point x="918.714" y="920.714"/>
			<point x="652.714" y="920.714" type="curve" smooth="yes"/>
			<point x="439.571" y="920.714"/>
			<point x="316.857" y="810.286"/>
			<point x="264.429" y="700.714" type="curve"/>
			<point x="257.429" y="700.714" type="line"/>
			<point x="270.143" y="1163.14"/>
			<point x="457.143" y="1361.71"/>
			<point x="773.429" y="1361.71" type="curve" smooth="yes"/>
			<point x="860.286" y="1361.71"/>
			<point x="927.571" y="1349.86"/>
			<point x="978.286" y="1334.14" type="curve"/>
			<point x="978.286" y="1461.71" type="line"/>
			<point x="923.286" y="1476.43"/>
			<point x="850.857" y="1485.86"/>
			<point x="776" y="1485.86" type="curve" smooth="yes"/>
			<point x="340.143" y="1485.86"/>
			<point x="119.286" y="1185.86"/>
		</contour>
		<contour>
			<point x="612" y="105.857" type="curve" smooth="yes"/>
			<point x="345.857" y="105.857"/>
			<point x="278.714" y="378.714"/>
			<point x="278.714" y="523.429" type="curve" smooth="yes"/>
			<point x="278.714" y="644.286"/>
			<point x="406.571" y="797.143"/>
			<point x="621" y="797.143" type="curve" smooth="yes"/>
			<point x="826.571" y="797.143"/>
			<point x="926.143" y="672"/>
			<point x="926.143" y="469.857" type="curve" smooth="yes"/>
			<point x="926.143" y="240.429"/>
			<point x="813.143" y="105.857"/>
		</contour>
	</outline>
</glyph>
<glyph name="seven" format="2">
	<unicode hex="0037"/>
	<advance width="1176"/>
	<outline>
		<contour>
			<point x="327.571" y="0" type="line"/>
			<point x="486.571" y="0" type="line"/>
			<point x="1069.43" y="1370.43" type="line"/>
			<point x="1069.43" y="1462" type="line"/>
			<point x="107.286" y="1462" type="line"/>
			<point x="107.286" y="1332.14" type="line"/>
			<point x="905.286" y="1332.14" type="line"/>
		</contour>
	</outline>
</glyph>
<glyph name="nine" format="2">
	<unicode hex="0039"/>
	<advance width="1176"/>
	<outline>
		<contour>
			<point x="1054.29" y="838.857" type="curve" smooth="yes"/>
			<point x="1054.29" y="1197"/>
			<point x="898.429" y="1483"/>
			<point x="559.857" y="1483" type="curve" smooth="yes"/>
			<point x="268.571" y="1483"/>
			<point x="98.7143" y="1288.57"/>
			<point x="98.7143" y="994.286" type="curve" smooth="yes"/>
			<point x="98.7143" y="714.714"/>
			<point x="253.143" y="541.286"/>
			<point x="517" y="541.286" type="curve" smooth="yes"/>
			<point x="732.286" y="541.286"/>
			<point x="856.143" y="652.571"/>
			<point x="909.857" y="764.143" type="curve"/>
			<point x="916.143" y="764.143" type="line"/>
			<point x="904.143" y="306.571"/>
			<point x="715.857" y="101.286"/>
			<point x="393.714" y="101.286" type="curve" smooth="yes"/>
			<point x="310.571" y="101.286"/>
			<point x="234" y="113"/>
			<point x="182" y="128.714" type="curve"/>
			<point x="182" y="-1.42857" type="line"/>
			<point x="237.714" y="-15.1429"/>
			<point x="324.857" y="-23.5714"/>
			<point x="399.143" y="-23.5714" type="curve" smooth="yes"/>
			<point x="804" y="-23.5714"/>
			<point x="1054.29" y="241.857"/>
		</contour>
		<contour>
			<point x="562.714" y="1356.29" type="curve" smooth="yes"/>
			<point x="829" y="1356.29"/>
			<point x="894.857" y="1085.71"/>
			<point x="894.857" y="941.429" type="curve" smooth="yes"/>
			<point x="894.857" y="819.857"/>
			<point x="763.857" y="664.571"/>
			<point x="554.429" y="664.571" type="curve" smooth="yes"/>
			<point x="349" y="664.571"/>
			<point x="247.429" y="791.429"/>
			<point x="247.429" y="995.429" type="curve" smooth="yes"/>
			<point x="247.429" y="1223.71"/>
			<point x="359.286" y="1356.29"/>
		</contour>
	</outline>
</glyph>
<glyph name="colon" format="2">
	<unicode hex="003A"/>
	<advance width="491"/>
	<outline>
		<contour>
			<point x="148.857" y="81" type="curve" smooth="yes"/>
			<point x="148.857" y="17.4286"/>
			<point x="183.429" y="-18.5714"/>
			<point x="246.143" y="-18.5714" type="curve" smooth="yes"/>
			<point x="312.857" y="-18.5714"/>
			<point x="344.714" y="17.4286"/>
			<point x="344.714" y="81" type="curve" smooth="yes"/>
			<point x="344.714" y="144.857"/>
			<point x="312.857" y="181.571"/>
			<point x="246.143" y="181.571" type="curve" smooth="yes"/>
			<point x="183.429" y="181.571"/>
			<point x="148.857" y="144.857"/>
		</contour>
		<contour>
			<point x="148.857" y="1006" type="curve" smooth="yes"/>
			<point x="148.857" y="941.857"/>
			<point x="183.429" y="906.143"/>
			<point x="246.143" y="906.143" type="curve" smooth="yes"/>
			<point x="312.857" y="906.143"/>
			<point x="344.714" y="941.857"/>
			<point x="344.714" y="1006" type="curve" smooth="yes"/>
			<point x="344.714" y="1069.57"/>
			<point x="312.857" y="1106.29"/>
			<point x="246.143" y="1106.29" type="curve" smooth="yes"/>
			<point x="183.429" y="1106.29"/>
			<point x="148.857" y="1069.57"/>
		</contour>
	</outline>
</glyph>
<glyph name="less" format="2">
	<unicode hex="003C"/>
	<advance width="1176"/>
	<outline>
		<contour>
			<point x="1067.57" y="253" type="line"/>
			<point x="1067.57" y="375.143" type="line"/>
			<point x="270.857" y="736.429" type="line"/>
			<point x="1067.57" y="1107.29" type="line"/>
			<point x="1067.57" y="1230" type="line"/>
			<point x="108.429" y="771.143" type="line"/>
			<point x="108.429" y="695.571" type="line"/>
		</contour>
	</outline>
</glyph>
<glyph name="equal" format="2">
	<unicode hex="003D"/>
	<advance width="1176"/>
	<outline>
		<contour>
			<point x="107" y="880.714" type="line"/>
			<point x="1070.14" y="880.714" type="line"/>
			<point x="1070.14" y="992.286" type="line"/>
			<point x="107" y="992.286" type="line"/>
		</contour>
		<contour>
			<point x="107" y="451.571" type="line"/>
			<point x="1070.14" y="451.571" type="line"/>
			<point x="1070.14" y="564.714" type="line"/>
			<point x="107" y="564.714" type="line"/>
		</contour>
	</outline>
</glyph>
<glyph name="question" format="2">
	<unicode hex="003F"/>
	<advance width="900"/>
	<outline>
		<contour>
			<point x="295" y="401.714" type="line"/>
			<point x="419.143" y="401.714" type="line"/>
			<point x="419.143" y="434.143" type="line" smooth="yes"/>
			<point x="419.143" y="585.286"/>
			<point x="460.429" y="649"/>
			<point x="571.429" y="723.857" type="curve" smooth="yes"/>
			<point x="735" y="835"/>
			<point x="832" y="938.857"/>
			<point x="832" y="1130.14" type="curve" smooth="yes"/>
			<point x="832" y="1359.14"/>
			<point x="673.714" y="1483"/>
			<point x="423.571" y="1483" type="curve" smooth="yes"/>
			<point x="286.857" y="1483"/>
			<point x="183.571" y="1453.43"/>
			<point x="55.7143" y="1393.86" type="curve"/>
			<point x="109.714" y="1278.29" type="line"/>
			<point x="218.429" y="1333.29"/>
			<point x="315.286" y="1358.86"/>
			<point x="415.571" y="1358.86" type="curve" smooth="yes"/>
			<point x="574.429" y="1358.86"/>
			<point x="687.571" y="1282.43"/>
			<point x="687.571" y="1120.71" type="curve" smooth="yes"/>
			<point x="687.571" y="971.429"/>
			<point x="614.857" y="898.571"/>
			<point x="471.286" y="799.714" type="curve" smooth="yes"/>
			<point x="329.714" y="701.857"/>
			<point x="295" y="624.286"/>
			<point x="295" y="444.143" type="curve" smooth="yes"/>
		</contour>
		<contour>
			<point x="266.286" y="81" type="curve" smooth="yes"/>
			<point x="266.286" y="17.4286"/>
			<point x="301" y="-18.5714"/>
			<point x="363.714" y="-18.5714" type="curve" smooth="yes"/>
			<point x="430.714" y="-18.5714"/>
			<point x="462.143" y="17.4286"/>
			<point x="462.143" y="81" type="curve" smooth="yes"/>
			<point x="462.143" y="144.857"/>
			<point x="430.714" y="181.571"/>
			<point x="363.714" y="181.571" type="curve" smooth="yes"/>
			<point x="301" y="181.571"/>
			<point x="266.286" y="144.857"/>
		</contour>
	</outline>
</glyph>
<glyph name="C" format="2">
	<unicode hex="0043"/>
	<advance width="1278"/>
	<outline>
		<contour>
			<point x="823.286" y="1354" type="curve" smooth="yes"/>
			<point x="939.143" y="1354"/>
			<point x="1051.57" y="1332.14"/>
			<point x="1165.71" y="1274" type="curve"/>
			<point x="1214.57" y="1399.29" type="line"/>
			<point x="1091" y="1456.29"/>
			<point x="960.429" y="1483"/>
			<point x="824.429" y="1483" type="curve" smooth="yes"/>
			<point x="381" y="1483"/>
			<point x="121.857" y="1164.71"/>
			<point x="121.857" y="734.143" type="curve" smooth="yes"/>
			<point x="121.857" y="284.429"/>
			<point x="343.143" y="-20"/>
			<point x="790.143" y="-20" type="curve" smooth="yes"/>
			<point x="948.571" y="-20"/>
			<point x="1075.86" y="6.85714"/>
			<point x="1177" y="48.1429" type="curve"/>
			<point x="1177" y="177.143" type="line"/>
			<point x="1071.86" y="137.571"/>
			<point x="951.714" y="108.714"/>
			<point x="802.429" y="108.714" type="curve" smooth="yes"/>
			<point x="451.857" y="108.714"/>
			<point x="277.143" y="351.857"/>
			<point x="277.143" y="733.571" type="curve" smooth="yes"/>
			<point x="277.143" y="1097"/>
			<point x="476.571" y="1354"/>
		</contour>
	</outline>
	<anchor name="bottom" x="758.857" y="0"/>
	<anchor name="top" x="780.143" y="1462"/>
	<anchor name="topright" x="1237.29" y="1462"/>
</glyph>
<glyph name="E" format="2">
	<unicode hex="0045"/>
	<advance width="1125"/>
	<outline>
		<contour>
			<point x="1006.71" y="0" type="line"/>
			<point x="1006.71" y="128.429" type="line"/>
			<point x="346.571" y="128.429" type="line"/>
			<point x="346.571" y="703" type="line"/>
			<point x="967.429" y="703" type="line"/>
			<point x="967.429" y="830.714" type="line"/>
			<point x="346.571" y="830.714" type="line"/>
			<point x="346.571" y="1335" type="line"/>
			<point x="1006.71" y="1335" type="line"/>
			<point x="1006.71" y="1462" type="line"/>
			<point x="195.857" y="1462" type="line"/>
			<point x="195.857" y="0" type="line"/>
		</contour>
	</outline>
	<anchor name="bottom" x="604" y="0"/>
	<anchor name="top" x="615.571" y="1462"/>
	<anchor name="topright" x="1084.43" y="1462"/>
</glyph>
<glyph name="F" format="2">
	<unicode hex="0046"/>
	<advance width="1035"/>
	<outline>
		<contour>
			<point x="344.857" y="0" type="line"/>
			<point x="344.857" y="638.286" type="line"/>
			<point x="969.286" y="638.286" type="line"/>
			<point x="969.286" y="765.286" type="line"/>
			<point x="344.857" y="765.286" type="line"/>
			<point x="344.857" y="1335" type="line"/>
			<point x="1007" y="1335" type="line"/>
			<point x="1007" y="1462" type="line"/>
			<point x="195.857" y="1462" type="line"/>
			<point x="195.857" y="0" type="line"/>
		</contour>
	</outline>
	<anchor name="bottom" x="518" y="0"/>
	<anchor name="top" x="601.429" y="1462"/>
	<anchor name="topright" x="994.429" y="1462"/>
</glyph>
<glyph name="J" format="2">
	<unicode hex="004A"/>
	<advance width="544"/>
	<outline>
		<contour>
			<point x="-15.5714" y="-385.429" type="curve" smooth="yes"/>
			<point x="235.714" y="-385.429"/>
			<point x="353.714" y="-227"/>
			<point x="353.714" y="43.7143" type="curve" smooth="yes"/>
			<point x="353.714" y="1462" type="line"/>
			<point x="202.429" y="1462" type="line"/>
			<point x="202.429" y="38.2857" type="line" smooth="yes"/>
			<point x="202.429" y="-144.571"/>
			<point x="148.571" y="-259.857"/>
			<point x="-32.4286" y="-259.857" type="curve" smooth="yes"/>
			<point x="-93.4286" y="-259.857"/>
			<point x="-151.143" y="-247.571"/>
			<point x="-189.857" y="-233.143" type="curve"/>
			<point x="-189.857" y="-362.286" type="line"/>
			<point x="-150.857" y="-374"/>
			<point x="-95.5714" y="-385.429"/>
		</contour>
	</outline>
	<anchor name="bottom" x="-15.5714" y="-359.429"/>
	<anchor name="top" x="277.143" y="1462"/>
	<anchor name="topright" x="502.857" y="1462"/>
</glyph>
<glyph name="N" format="2">
	<unicode hex="004E"/>
	<advance width="1509"/>
	<outline>
		<contour>
			<point x="1312.14" y="0" type="line"/>
			<point x="1312.14" y="1462" type="line"/>
			<point x="1173" y="1462" type="line"/>
			<point x="1173" y="537.429" type="line" smooth="yes"/>
			<point x="1173" y="441.429"/>
			<point x="1175.29" y="316.714"/>
			<point x="1178.43" y="216.714" type="curve"/>
			<point x="1173.86" y="216.714" type="line"/>
			<point x="372.571" y="1462" type="line"/>
			<point x="195.857" y="1462" type="line"/>
			<point x="195.857" y="0" type="line"/>
			<point x="333.714" y="0" type="line"/>
			<point x="333.714" y="922.571" type="line" smooth="yes"/>
			<point x="333.714" y="1031.57"/>
			<point x="330.857" y="1141"/>
			<point x="326.857" y="1252.14" type="curve"/>
			<point x="332.286" y="1252.14" type="line"/>
			<point x="1136.29" y="0" type="line"/>
		</contour>
	</outline>
	<anchor name="bottom" x="754.714" y="0"/>
	<anchor name="top" x="754.714" y="1462"/>
	<anchor name="topright" x="1468.43" y="1462"/>
</glyph>
<glyph name="Q" format="2">
	<unicode hex="0051"/>
	<advance width="1569"/>
	<outline>
		<contour>
			<point x="1445.29" y="733" type="curve" smooth="yes"/>
			<point x="1445.29" y="1202.29"/>
			<point x="1223.43" y="1485"/>
			<point x="792" y="1485" type="curve" smooth="yes"/>
			<point x="351.143" y="1485"/>
			<point x="121.857" y="1180"/>
			<point x="121.857" y="735" type="curve" smooth="yes"/>
			<point x="121.857" y="289"/>
			<point x="338.286" y="-20"/>
			<point x="782.857" y="-20" type="curve" smooth="yes"/>
			<point x="802.714" y="-20"/>
			<point x="822.714" y="-18.5714"/>
			<point x="841.143" y="-17.1429" type="curve"/>
			<point x="1110" y="-348" type="line"/>
			<point x="1303.43" y="-348" type="line"/>
			<point x="993.571" y="12.2857" type="line"/>
			<point x="1299" y="86.7143"/>
			<point x="1445.29" y="368"/>
		</contour>
		<contour>
			<point x="280" y="734.429" type="curve" smooth="yes"/>
			<point x="280" y="1098.43"/>
			<point x="444.143" y="1356"/>
			<point x="792" y="1356" type="curve" smooth="yes"/>
			<point x="1117" y="1356"/>
			<point x="1287.14" y="1126.29"/>
			<point x="1287.14" y="733" type="curve" smooth="yes"/>
			<point x="1287.14" y="361.857"/>
			<point x="1133.43" y="110.429"/>
			<point x="784.286" y="110.429" type="curve" smooth="yes"/>
			<point x="439" y="110.429"/>
			<point x="280" y="366.857"/>
		</contour>
	</outline>
	<anchor name="bottom" x="784.857" y="-348"/>
	<anchor name="top" x="784.857" y="1462"/>
	<anchor name="topright" x="1528.14" y="1462"/>
</glyph>
<glyph name="R" format="2">
	<unicode hex="0052"/>
	<advance width="1240"/>
	<outline>
		<contour>
			<point x="565.571" y="1462" type="curve" smooth="yes"/>
			<point x="195.857" y="1462" type="line"/>
			<point x="195.857" y="0" type="line"/>
			<point x="346.571" y="0" type="line"/>
			<point x="346.571" y="619.857" type="line"/>
			<point x="665.143" y="619.857" type="line"/>
			<point x="1033" y="0" type="line"/>
			<point x="1208.86" y="0" type="line"/>
			<point x="800.714" y="660.571" type="line"/>
			<point x="992.571" y="724.429"/>
			<point x="1107.29" y="856.286"/>
			<point x="1107.29" y="1062.14" type="curve" smooth="yes"/>
			<point x="1107.29" y="1360"/>
			<point x="919.714" y="1462"/>
		</contour>
		<contour>
			<point x="556" y="1340.14" type="line" smooth="yes"/>
			<point x="825.429" y="1340.14"/>
			<point x="953.286" y="1269.57"/>
			<point x="953.286" y="1055.57" type="curve" smooth="yes"/>
			<point x="953.286" y="849.714"/>
			<point x="810.857" y="741.857"/>
			<point x="606.286" y="741.857" type="curve" smooth="yes"/>
			<point x="346.571" y="741.857" type="line"/>
			<point x="346.571" y="1340.14" type="line"/>
		</contour>
	</outline>
	<anchor name="bottom" x="641.429" y="0"/>
	<anchor name="top" x="621.143" y="1462"/>
	<anchor name="topright" x="1199.57" y="1462"/>
</glyph>
<glyph name="S" format="2">
	<unicode hex="0053"/>
	<advance width="1132"/>
	<outline>
		<contour>
			<point x="1033.29" y="390.429" type="curve" smooth="yes"/>
			<point x="1033.29" y="627.714"/>
			<point x="873.857" y="711.714"/>
			<point x="627.286" y="797.714" type="curve" smooth="yes"/>
			<point x="414.571" y="873.143"/>
			<point x="273.429" y="926.143"/>
			<point x="273.429" y="1105.14" type="curve" smooth="yes"/>
			<point x="273.429" y="1276.71"/>
			<point x="421.286" y="1356.29"/>
			<point x="605.429" y="1356.29" type="curve" smooth="yes"/>
			<point x="712.286" y="1356.29"/>
			<point x="830.143" y="1333.57"/>
			<point x="956.571" y="1278" type="curve"/>
			<point x="1007.57" y="1398.71" type="line"/>
			<point x="886.571" y="1452"/>
			<point x="758.429" y="1483"/>
			<point x="611.714" y="1483" type="curve" smooth="yes"/>
			<point x="334" y="1483"/>
			<point x="122.143" y="1353.43"/>
			<point x="122.143" y="1097.14" type="curve" smooth="yes"/>
			<point x="122.143" y="850.857"/>
			<point x="283" y="769.857"/>
			<point x="515" y="687" type="curve"/>
			<point x="749.286" y="605.286"/>
			<point x="881.143" y="547.857"/>
			<point x="881.143" y="382.143" type="curve" smooth="yes"/>
			<point x="881.143" y="193.857"/>
			<point x="724.571" y="108.143"/>
			<point x="525.429" y="108.143" type="curve" smooth="yes"/>
			<point x="369.429" y="108.143"/>
			<point x="230.143" y="140.429"/>
			<point x="107.857" y="191.143" type="curve"/>
			<point x="107.857" y="48.4286" type="line"/>
			<point x="217.571" y="8.85714"/>
			<point x="328.571" y="-20"/>
			<point x="520.286" y="-20" type="curve" smooth="yes"/>
			<point x="824.286" y="-20"/>
			<point x="1033.29" y="132.857"/>
		</contour>
	</outline>
	<anchor name="bottom" x="567" y="0"/>
	<anchor name="top" x="567" y="1462"/>
	<anchor name="topright" x="1091" y="1462"/>
</glyph>
<glyph name="X" format="2">
	<unicode hex="0058"/>
	<advance width="1167"/>
	<outline>
		<contour>
			<point x="1170.71" y="0" type="line"/>
			<point x="679.857" y="746.286" type="line"/>
			<point x="1134.29" y="1462" type="line"/>
			<point x="959.714" y="1462" type="line"/>
			<point x="585.714" y="859.286" type="line"/>
			<point x="212.429" y="1462" type="line"/>
			<point x="41.5714" y="1462" type="line"/>
			<point x="489" y="755.143" type="line"/>
			<point x="-3.14286" y="0" type="line"/>
			<point x="169.571" y="0" type="line"/>
			<point x="583.714" y="642.714" type="line"/>
			<point x="994.429" y="0" type="line"/>
		</contour>
	</outline>
	<anchor name="bottom" x="584.571" y="0"/>
	<anchor name="top" x="581.143" y="1462"/>
	<anchor name="topright" x="1126.43" y="1462"/>
</glyph>
<glyph name="Z" format="2">
	<unicode hex="005A"/>
	<advance width="1203"/>
	<outline>
		<contour>
			<point x="1130" y="0" type="line"/>
			<point x="1130" y="127.571" type="line"/>
			<point x="264.571" y="127.571" type="line"/>
			<point x="1107.57" y="1366.14" type="line"/>
			<point x="1107.57" y="1462" type="line"/>
			<point x="115.286" y="1462" type="line"/>
			<point x="115.286" y="1334.43" type="line"/>
			<point x="913.286" y="1334.43" type="line"/>
			<point x="70.2857" y="96.1429" type="line"/>
			<point x="70.2857" y="0" type="line"/>
		</contour>
	</outline>
	<anchor name="bottom" x="607.714" y="0"/>
	<anchor name="top" x="607.143" y="1462"/>
	<anchor name="topright" x="1162.14" y="1462"/>
</glyph>
<glyph name="bracketleft" format="2">
	<unicode hex="005B"/>
	<advance width="648"/>
	<outline>
		<contour>
			<point x="597.429" y="-329.714" type="line"/>
			<point x="597.429" y="-220" type="line"/>
			<point x="289" y="-220" type="line"/>
			<point x="289" y="1364.71" type="line"/>
			<point x="597.429" y="1364.71" type="line"/>
			<point x="597.429" y="1473.71" type="line"/>
			<point x="162" y="1473.71" type="line"/>
			<point x="162" y="-329.714" type="line"/>
		</contour>
	</outline>
</glyph>
<glyph name="backslash" format="2">
	<unicode hex="005C"/>
	<advance width="729"/>
	<outline>
		<contour>
			<point x="160.571" y="1468" type="line"/>
			<point x="21" y="1468" type="line"/>
			<point x="568.143" y="-5.71429" type="line"/>
			<point x="708.429" y="-5.71429" type="line"/>
		</contour>
	</outline>
</glyph>
<glyph name="bracketright" format="2">
	<unicode hex="005D"/>
	<advance width="648"/>
	<outline>
		<contour>
			<point x="49.8571" y="-220" type="line"/>
			<point x="49.8571" y="-329.714" type="line"/>
			<point x="485.571" y="-329.714" type="line"/>
			<point x="485.571" y="1473.71" type="line"/>
			<point x="49.8571" y="1473.71" type="line"/>
			<point x="49.8571" y="1364.71" type="line"/>
			<point x="358.286" y="1364.71" type="line"/>
			<point x="358.286" y="-220" type="line"/>
		</contour>
	</outline>
</glyph>
<glyph name="asciicircum" format="2">
	<unicode hex="005E"/>
	<advance width="1141"/>
	<outline>
		<contour>
			<point x="62.5714" y="549.857" type="line"/>
			<point x="187.143" y="549.857" type="line"/>
			<point x="575.143" y="1311.86" type="line"/>
			<point x="954.857" y="549.857" type="line"/>
			<point x="1081.29" y="549.857" type="line"/>
			<point x="616.143" y="1471.57" type="line"/>
			<point x="534" y="1471.57" type="line"/>
		</contour>
	</outline>
</glyph>
<glyph name="underscore" format="2">
	<unicode hex="005F"/>
	<advance width="865"/>
	<outline>
		<contour>
			<point x="868.714" y="-278.286" type="line"/>
			<point x="868.714" y="-170.857" type="line"/>
			<point x="-4" y="-170.857" type="line"/>
			<point x="-4" y="-278.286" type="line"/>
		</contour>
	</outline>
</glyph>
<glyph name="grave" format="2">
	<unicode hex="0060"/>
	<advance width="609"/>
	<outline>
		<contour>
			<point x="248.429" y="1569" type="curve"/>
			<point x="82" y="1569" type="line"/>
			<point x="82" y="1552.29" type="line"/>
			<point x="161.429" y="1464.29"/>
			<point x="312.286" y="1325.29"/>
			<point x="421.857" y="1241" type="curve"/>
			<point x="526.857" y="1241" type="line"/>
			<point x="526.857" y="1257.86" type="line"/>
			<point x="442" y="1338.14"/>
			<point x="311.286" y="1479.86"/>
		</contour>
	</outline>
</glyph>
<glyph name="b" format="2">
	<unicode hex="0062"/>
	<advance width="1229"/>
	<outline>
		<contour>
			<point x="318.857" y="1556" type="line"/>
			<point x="168.571" y="1556" type="line"/>
			<point x="168.571" y="0" type="line"/>
			<point x="287.857" y="0" type="line"/>
			<point x="312" y="183.857" type="line"/>
			<point x="321.714" y="183.857" type="line"/>
			<point x="373.286" y="69.1429"/>
			<point x="480" y="-20"/>
			<point x="664.286" y="-20" type="curve" smooth="yes"/>
			<point x="970.286" y="-20"/>
			<point x="1117.57" y="218.429"/>
			<point x="1117.57" y="551.857" type="curve" smooth="yes"/>
			<point x="1117.57" y="920.143"/>
			<point x="963.714" y="1118"/>
			<point x="691.286" y="1118" type="curve" smooth="yes"/>
			<point x="499.714" y="1118"/>
			<point x="367.571" y="1014.71"/>
			<point x="318.857" y="875.571" type="curve"/>
			<point x="311.286" y="875.571" type="line"/>
			<point x="315" y="942.429"/>
			<point x="318.857" y="1042.57"/>
			<point x="318.857" y="1111.86" type="curve" smooth="yes"/>
		</contour>
		<contour>
			<point x="650.429" y="993.857" type="curve" smooth="yes"/>
			<point x="860.429" y="993.857"/>
			<point x="964.571" y="844.714"/>
			<point x="964.571" y="553" type="curve" smooth="yes"/>
			<point x="964.571" y="266.714"/>
			<point x="847.143" y="106.429"/>
			<point x="628" y="106.429" type="curve" smooth="yes"/>
			<point x="416.286" y="106.429"/>
			<point x="318.857" y="251.857"/>
			<point x="318.857" y="528.571" type="curve" smooth="yes"/>
			<point x="318.857" y="559.286" type="line" smooth="yes"/>
			<point x="318.857" y="833.429"/>
			<point x="425" y="993.857"/>
		</contour>
	</outline>
	<anchor name="bottom" x="622" y="0"/>
	<anchor name="top" x="619.143" y="1556"/>
	<anchor name="topright" x="1121.14" y="1556"/>
</glyph>
<glyph name="d" format="2">
	<unicode hex="0064"/>
	<advance width="1229"/>
	<outline>
		<contour>
			<point x="553.429" y="-20" type="curve" smooth="yes"/>
			<point x="751.571" y="-20"/>
			<point x="858.714" y="82.2857"/>
			<point x="909.429" y="205.857" type="curve"/>
			<point x="917.286" y="205.857" type="line"/>
			<point x="944.143" y="0" type="line"/>
			<point x="1060.57" y="0" type="line"/>
			<point x="1060.57" y="1556" type="line"/>
			<point x="909.429" y="1556" type="line"/>
			<point x="909.429" y="1152.29" type="line" smooth="yes"/>
			<point x="909.429" y="1063.43"/>
			<point x="912" y="969.714"/>
			<point x="918.429" y="887.714" type="curve"/>
			<point x="912.571" y="887.714" type="line"/>
			<point x="863.286" y="1016.71"/>
			<point x="753" y="1116.57"/>
			<point x="569.143" y="1116.57" type="curve" smooth="yes"/>
			<point x="279.571" y="1116.57"/>
			<point x="111" y="911.286"/>
			<point x="111" y="532.857" type="curve" smooth="yes"/>
			<point x="111" y="173.429"/>
			<point x="264" y="-20"/>
		</contour>
		<contour>
			<point x="599.143" y="104.714" type="curve" smooth="yes"/>
			<point x="374.714" y="104.714"/>
			<point x="263.143" y="243.857"/>
			<point x="263.143" y="531.143" type="curve" smooth="yes"/>
			<point x="263.143" y="838.571"/>
			<point x="389.714" y="990.143"/>
			<point x="609.429" y="990.143" type="curve" smooth="yes"/>
			<point x="822.857" y="990.143"/>
			<point x="918.857" y="834"/>
			<point x="918.857" y="549.571" type="curve" smooth="yes"/>
			<point x="918.857" y="536.429" type="line"/>
			<point x="917.714" y="261.286"/>
			<point x="829.143" y="104.714"/>
		</contour>
	</outline>
	<anchor name="bottom" x="610.857" y="0"/>
	<anchor name="center" x="615.429" y="548.429"/>
	<anchor name="top" x="564" y="1556"/>
	<anchor name="topright" x="1176.43" y="1556"/>
</glyph>
<glyph name="h" format="2">
	<unicode hex="0068"/>
	<advance width="1231"/>
	<outline>
		<contour>
			<point x="320.286" y="1556" type="line"/>
			<point x="170" y="1556" type="line"/>
			<point x="170" y="0" type="line"/>
			<point x="320.286" y="0" type="line"/>
			<point x="320.286" y="583.714" type="line" smooth="yes"/>
			<point x="320.286" y="858.143"/>
			<point x="446.714" y="992.429"/>
			<point x="655.857" y="992.429" type="curve" smooth="yes"/>
			<point x="823.571" y="992.429"/>
			<point x="919.429" y="895.143"/>
			<point x="919.429" y="681.571" type="curve" smooth="yes"/>
			<point x="919.429" y="0" type="line"/>
			<point x="1069.57" y="0" type="line"/>
			<point x="1069.57" y="717" type="line" smooth="yes"/>
			<point x="1069.57" y="992.143"/>
			<point x="922.286" y="1116.57"/>
			<point x="692.143" y="1116.57" type="curve" smooth="yes"/>
			<point x="489.286" y="1116.57"/>
			<point x="372.714" y="1019.29"/>
			<point x="320.857" y="893.714" type="curve"/>
			<point x="312.143" y="893.714" type="line"/>
			<point x="316" y="953"/>
			<point x="320.286" y="1014.86"/>
			<point x="320.286" y="1107.14" type="curve" smooth="yes"/>
		</contour>
	</outline>
	<anchor name="bottom" x="618.857" y="0"/>
	<anchor name="center" x="616" y="548.429"/>
	<anchor name="top" x="246.714" y="1556"/>
	<anchor name="topright" x="1162.14" y="1556"/>
</glyph>
<glyph name="i" format="2">
	<unicode hex="0069"/>
	<advance width="493"/>
	<outline>
		<contour>
			<point x="320.857" y="1095.86" type="line"/>
			<point x="170.571" y="1095.86" type="line"/>
			<point x="170.571" y="0" type="line"/>
			<point x="320.857" y="0" type="line"/>
		</contour>
		<contour>
			<point x="246.143" y="1509" type="curve" smooth="yes"/>
			<point x="184" y="1509"/>
			<point x="150.571" y="1476.86"/>
			<point x="150.571" y="1413.57" type="curve" smooth="yes"/>
			<point x="150.571" y="1350"/>
			<point x="184" y="1319.43"/>
			<point x="246.143" y="1319.43" type="curve" smooth="yes"/>
			<point x="313.143" y="1319.43"/>
			<point x="345.143" y="1350"/>
			<point x="345.143" y="1413.57" type="curve" smooth="yes"/>
			<point x="345.143" y="1476.86"/>
			<point x="313.143" y="1509"/>
		</contour>
	</outline>
	<anchor name="bottom" x="249.286" y="0"/>
	<anchor name="top" x="247.571" y="1509"/>
	<anchor name="topright" x="452.143" y="1509"/>
</glyph>
<glyph name="l" format="2">
	<unicode hex="006C"/>
	<advance width="492"/>
	<outline>
		<contour>
			<point x="321.714" y="0" type="line"/>
			<point x="321.714" y="1556" type="line"/>
			<point x="171.429" y="1556" type="line"/>
			<point x="171.429" y="0" type="line"/>
		</contour>
	</outline>
	<anchor name="bottom" x="247" y="0"/>
	<anchor name="center" x="247" y="548.429"/>
	<anchor name="top" x="247" y="1556"/>
	<anchor name="topright" x="436.143" y="1556"/>
</glyph>
<glyph name="m" format="2">
	<unicode hex="006D"/>
	<advance width="1832"/>
	<outline>
		<contour>
			<point x="1331.57" y="1116.57" type="curve" smooth="yes"/>
			<point x="1152.43" y="1116.57"/>
			<point x="1032.86" y="1036"/>
			<point x="975.857" y="912.143" type="curve"/>
			<point x="969.571" y="912.143" type="line"/>
			<point x="923.714" y="1044"/>
			<point x="813.286" y="1116.57"/>
			<point x="659.429" y="1116.57" type="curve" smooth="yes"/>
			<point x="462.143" y="1116.57"/>
			<point x="361.286" y="1013.57"/>
			<point x="313.714" y="915.857" type="curve"/>
			<point x="307.714" y="915.857" type="line"/>
			<point x="285" y="1095.86" type="line"/>
			<point x="170" y="1095.86" type="line"/>
			<point x="170" y="0" type="line"/>
			<point x="320.286" y="0" type="line"/>
			<point x="320.286" y="617.429" type="line" smooth="yes"/>
			<point x="320.286" y="877.429"/>
			<point x="444.429" y="992.429"/>
			<point x="619.429" y="992.429" type="curve" smooth="yes"/>
			<point x="751" y="992.429"/>
			<point x="846.857" y="905.714"/>
			<point x="846.857" y="702.429" type="curve" smooth="yes"/>
			<point x="846.857" y="0" type="line"/>
			<point x="996.714" y="0" type="line"/>
			<point x="996.714" y="626.571" type="line" smooth="yes"/>
			<point x="996.714" y="880.286"/>
			<point x="1112.71" y="992.429"/>
			<point x="1294.71" y="992.429" type="curve" smooth="yes"/>
			<point x="1427.57" y="992.429"/>
			<point x="1524.57" y="908"/>
			<point x="1524.57" y="702.429" type="curve" smooth="yes"/>
			<point x="1524.57" y="0" type="line"/>
			<point x="1674.14" y="0" type="line"/>
			<point x="1674.14" y="738.429" type="line" smooth="yes"/>
			<point x="1674.14" y="998.714"/>
			<point x="1537.43" y="1116.57"/>
		</contour>
	</outline>
	<anchor name="bottom" x="924.143" y="0"/>
	<anchor name="top" x="927.143" y="1095.86"/>
	<anchor name="topright" x="1782.29" y="1095.86"/>
</glyph>
<glyph name="n" format="2">
	<unicode hex="006E"/>
	<advance width="1231"/>
	<outline>
		<contour>
			<point x="693.286" y="1116.57" type="curve" smooth="yes"/>
			<point x="483.286" y="1116.57"/>
			<point x="367.571" y="1010.71"/>
			<point x="313.714" y="890.857" type="curve"/>
			<point x="306.571" y="890.857" type="line"/>
			<point x="285" y="1095.86" type="line"/>
			<point x="170" y="1095.86" type="line"/>
			<point x="170" y="0" type="line"/>
			<point x="320.286" y="0" type="line"/>
			<point x="320.286" y="583.143" type="line" smooth="yes"/>
			<point x="320.286" y="858.143"/>
			<point x="445" y="992.429"/>
			<point x="655.857" y="992.429" type="curve" smooth="yes"/>
			<point x="824.714" y="992.429"/>
			<point x="920" y="895.143"/>
			<point x="920" y="681.571" type="curve" smooth="yes"/>
			<point x="920" y="0" type="line"/>
			<point x="1069.57" y="0" type="line"/>
			<point x="1069.57" y="717" type="line" smooth="yes"/>
			<point x="1069.57" y="991.571"/>
			<point x="926.286" y="1116.57"/>
		</contour>
	</outline>
	<anchor name="bottom" x="616" y="0"/>
	<anchor name="top" x="616" y="1095.86"/>
	<anchor name="topright" x="1181.57" y="1095.86"/>
</glyph>
<glyph name="p" format="2">
	<unicode hex="0070"/>
	<advance width="1229"/>
	<outline>
		<contour>
			<point x="694.143" y="1116.57" type="curve" smooth="yes"/>
			<point x="488.571" y="1116.57"/>
			<point x="369.857" y="998.429"/>
			<point x="321.714" y="870.429" type="curve"/>
			<point x="313.714" y="870.429" type="line"/>
			<point x="294.429" y="1095.86" type="line"/>
			<point x="171.429" y="1095.86" type="line"/>
			<point x="171.429" y="-479.857" type="line"/>
			<point x="321.714" y="-479.857" type="line"/>
			<point x="321.714" y="-44.4286" type="line" smooth="yes"/>
			<point x="321.714" y="39.8571"/>
			<point x="320" y="120.429"/>
			<point x="315.429" y="201.714" type="curve"/>
			<point x="321.714" y="201.714" type="line"/>
			<point x="367.857" y="81.1429"/>
			<point x="477.143" y="-20"/>
			<point x="676.429" y="-20" type="curve" smooth="yes"/>
			<point x="950.143" y="-20"/>
			<point x="1120.43" y="184.857"/>
			<point x="1120.43" y="556.143" type="curve" smooth="yes"/>
			<point x="1120.43" y="921"/>
			<point x="970.571" y="1116.57"/>
		</contour>
		<contour>
			<point x="652.143" y="992.429" type="curve" smooth="yes"/>
			<point x="858.714" y="992.429"/>
			<point x="967.429" y="855.571"/>
			<point x="967.429" y="557.286" type="curve" smooth="yes"/>
			<point x="967.429" y="254.429"/>
			<point x="845.714" y="106.429"/>
			<point x="638.429" y="106.429" type="curve" smooth="yes"/>
			<point x="436.714" y="106.429"/>
			<point x="321.714" y="246"/>
			<point x="321.714" y="546.714" type="curve" smooth="yes"/>
			<point x="321.714" y="559.857" type="line"/>
			<point x="322.857" y="834"/>
			<point x="432.143" y="992.429"/>
		</contour>
	</outline>
	<anchor name="bottom" x="247.571" y="-479.857"/>
	<anchor name="top" x="620.286" y="1095.86"/>
	<anchor name="topright" x="1188.14" y="1095.86"/>
</glyph>
<glyph name="s" format="2">
	<unicode hex="0073"/>
	<advance width="973"/>
	<outline>
		<contour>
			<point x="880.571" y="295.143" type="curve" smooth="yes"/>
			<point x="880.571" y="499.857"/>
			<point x="721.571" y="556.857"/>
			<point x="536.714" y="621.143" type="curve" smooth="yes"/>
			<point x="364.429" y="680.429"/>
			<point x="252.571" y="704"/>
			<point x="252.571" y="836.286" type="curve" smooth="yes"/>
			<point x="252.571" y="948.429"/>
			<point x="349" y="1004.71"/>
			<point x="506.429" y="1004.71" type="curve" smooth="yes"/>
			<point x="603.714" y="1004.71"/>
			<point x="726.429" y="977.429"/>
			<point x="812.714" y="936.429" type="curve"/>
			<point x="859" y="1044.86" type="line"/>
			<point x="757" y="1087.86"/>
			<point x="640.571" y="1116.57"/>
			<point x="505.857" y="1116.57" type="curve" smooth="yes"/>
			<point x="262" y="1116.57"/>
			<point x="106.714" y="1012.14"/>
			<point x="106.714" y="829.714" type="curve" smooth="yes"/>
			<point x="106.714" y="633"/>
			<point x="242.286" y="580"/>
			<point x="432.714" y="517" type="curve" smooth="yes"/>
			<point x="615.571" y="456.143"/>
			<point x="735.143" y="416"/>
			<point x="735.143" y="287.714" type="curve" smooth="yes"/>
			<point x="735.143" y="168.714"/>
			<point x="651.143" y="97.5714"/>
			<point x="448.857" y="97.5714" type="curve" smooth="yes"/>
			<point x="333.571" y="97.5714"/>
			<point x="200.286" y="123.857"/>
			<point x="82.2857" y="181" type="curve"/>
			<point x="82.2857" y="47.2857" type="line"/>
			<point x="175.429" y="8.28571"/>
			<point x="301" y="-20"/>
			<point x="453.714" y="-20" type="curve" smooth="yes"/>
			<point x="745.571" y="-20"/>
			<point x="880.571" y="103.714"/>
		</contour>
	</outline>
	<anchor name="bottom" x="481.857" y="0"/>
	<anchor name="top" x="481.857" y="1095.86"/>
	<anchor name="topright" x="931.571" y="1095.86"/>
</glyph>
<glyph name="x" format="2">
	<unicode hex="0078"/>
	<advance width="1069"/>
	<outline>
		<contour>
			<point x="427.857" y="563" type="line"/>
			<point x="40.7143" y="0" type="line"/>
			<point x="213.571" y="0" type="line"/>
			<point x="529.286" y="468.286" type="line"/>
			<point x="848.857" y="0" type="line"/>
			<point x="1022.86" y="0" type="line"/>
			<point x="631.714" y="563" type="line"/>
			<point x="1001" y="1095.86" type="line"/>
			<point x="826.714" y="1095.86" type="line"/>
			<point x="529.286" y="657.143" type="line"/>
			<point x="233" y="1095.86" type="line"/>
			<point x="58.2857" y="1095.86" type="line"/>
		</contour>
	</outline>
	<anchor name="bottom" x="535.714" y="0"/>
	<anchor name="top" x="535.143" y="1095.86"/>
	<anchor name="topright" x="1028.29" y="1095.86"/>
</glyph>
<glyph name="braceleft" format="2">
	<unicode hex="007B"/>
	<advance width="746"/>
	<outline>
		<contour>
			<point x="673.143" y="-329.714" type="curve"/>
			<point x="673.143" y="-213.143" type="line"/>
			<point x="511.714" y="-212.286"/>
			<point x="418.857" y="-160.429"/>
			<point x="418.857" y="-17.5714" type="curve" smooth="yes"/>
			<point x="418.857" y="312.714" type="line" smooth="yes"/>
			<point x="418.857" y="457.286"/>
			<point x="365.571" y="543.286"/>
			<point x="234.571" y="565.857" type="curve"/>
			<point x="234.571" y="572.143" type="line"/>
			<point x="364.429" y="594.571"/>
			<point x="418.857" y="680.571"/>
			<point x="418.857" y="827" type="curve" smooth="yes"/>
			<point x="418.857" y="1152.29" type="line" smooth="yes"/>
			<point x="418.857" y="1299.29"/>
			<point x="511.143" y="1351.29"/>
			<point x="673.143" y="1351.86" type="curve"/>
			<point x="673.143" y="1468" type="line"/>
			<point x="392.143" y="1468"/>
			<point x="287" y="1367.43"/>
			<point x="287" y="1173.71" type="curve" smooth="yes"/>
			<point x="287" y="851.143" type="line" smooth="yes"/>
			<point x="287" y="689"/>
			<point x="208.714" y="629.714"/>
			<point x="55.2857" y="629.714" type="curve"/>
			<point x="55.2857" y="508.714" type="line"/>
			<point x="207.571" y="508.714"/>
			<point x="287" y="443.857"/>
			<point x="287" y="287.286" type="curve" smooth="yes"/>
			<point x="287" y="-33.5714" type="line" smooth="yes"/>
			<point x="287" y="-229.286"/>
			<point x="393.857" y="-329.714"/>
		</contour>
	</outline>
</glyph>
<glyph name="bar" format="2">
	<unicode hex="007C"/>
	<advance width="1081"/>
	<outline>
		<contour>
			<point x="480.571" y="1561" type="line"/>
			<point x="480.571" y="-494.571" type="line"/>
			<point x="593.571" y="-494.571" type="line"/>
			<point x="593.571" y="1561" type="line"/>
		</contour>
	</outline>
</glyph>
<glyph name="exclamdown" format="2">
	<unicode hex="00A1"/>
	<advance width="496"/>
	<outline>
		<contour>
			<point x="181.571" y="692.714" type="line"/>
			<point x="164.143" y="-367.571" type="line"/>
			<point x="328.286" y="-367.571" type="line"/>
			<point x="310.857" y="692.714" type="line"/>
		</contour>
		<contour>
			<point x="346.429" y="1013.71" type="curve" smooth="yes"/>
			<point x="346.429" y="1077.29"/>
			<point x="311.143" y="1113.71"/>
			<point x="249" y="1113.71" type="curve" smooth="yes"/>
			<point x="181.714" y="1113.71"/>
			<point x="150.571" y="1077.29"/>
			<point x="150.571" y="1013.71" type="curve" smooth="yes"/>
			<point x="150.571" y="949.571"/>
			<point x="181.714" y="913.571"/>
			<point x="249" y="913.571" type="curve" smooth="yes"/>
			<point x="311.143" y="913.571"/>
			<point x="346.429" y="949.571"/>
		</contour>
	</outline>
</glyph>
<glyph name="cent" format="2">
	<unicode hex="00A2"/>
	<advance width="1176"/>
	<outline>
		<contour>
			<point x="714.857" y="1483" type="line"/>
			<point x="619.286" y="1483" type="line"/>
			<point x="619.286" y="1307" type="line"/>
			<point x="336.286" y="1271.71"/>
			<point x="161.143" y="1057.29"/>
			<point x="161.143" y="739" type="curve" smooth="yes"/>
			<point x="161.143" y="419.714"/>
			<point x="310.714" y="201.286"/>
			<point x="619.286" y="178.857" type="curve"/>
			<point x="619.286" y="-20" type="line"/>
			<point x="714.857" y="-20" type="line"/>
			<point x="714.857" y="177.143" type="line"/>
			<point x="823.286" y="182"/>
			<point x="913.286" y="209.857"/>
			<point x="980.571" y="243.714" type="curve"/>
			<point x="980.571" y="369" type="line"/>
			<point x="894.571" y="327.429"/>
			<point x="790" y="302.571"/>
			<point x="687.714" y="302.571" type="curve" smooth="yes"/>
			<point x="430.857" y="302.571"/>
			<point x="313.857" y="485"/>
			<point x="313.857" y="739.571" type="curve" smooth="yes"/>
			<point x="313.857" y="1010.57"/>
			<point x="467.429" y="1189"/>
			<point x="712.143" y="1189" type="curve" smooth="yes"/>
			<point x="791.714" y="1189"/>
			<point x="872" y="1172.71"/>
			<point x="957.429" y="1134.57" type="curve"/>
			<point x="997.429" y="1253.57" type="line"/>
			<point x="912.429" y="1292"/>
			<point x="826.714" y="1311.57"/>
			<point x="714.857" y="1313.29" type="curve"/>
		</contour>
	</outline>
</glyph>
<glyph name="currency" format="2">
	<unicode hex="00A4"/>
	<advance width="1165"/>
	<outline>
		<contour>
			<point x="174.286" y="724.429" type="curve" smooth="yes"/>
			<point x="174.286" y="636.143"/>
			<point x="203" y="549.714"/>
			<point x="258.857" y="479" type="curve"/>
			<point x="111.571" y="330.714" type="line"/>
			<point x="183.857" y="256.286" type="line"/>
			<point x="332.143" y="403.429" type="line"/>
			<point x="403.286" y="345.714"/>
			<point x="490.143" y="317.857"/>
			<point x="578.857" y="317.857" type="curve" smooth="yes"/>
			<point x="667.143" y="317.857"/>
			<point x="756" y="347.429"/>
			<point x="826.571" y="404" type="curve"/>
			<point x="973.714" y="255.714" type="line"/>
			<point x="1048.43" y="330.143" type="line"/>
			<point x="899.571" y="478.429" type="line"/>
			<point x="956.857" y="549.143"/>
			<point x="985.571" y="635.571"/>
			<point x="985.571" y="724.429" type="curve" smooth="yes"/>
			<point x="985.571" y="812.429"/>
			<point x="956.286" y="902"/>
			<point x="899.571" y="971" type="curve"/>
			<point x="1048.71" y="1119.57" type="line"/>
			<point x="973.714" y="1192.86" type="line"/>
			<point x="826.571" y="1043.71" type="line"/>
			<point x="754.286" y="1102.57"/>
			<point x="667.143" y="1131.57"/>
			<point x="578.857" y="1131.57" type="curve" smooth="yes"/>
			<point x="493" y="1131.57"/>
			<point x="403.857" y="1102"/>
			<point x="333.286" y="1044.86" type="curve"/>
			<point x="183.857" y="1194.29" type="line"/>
			<point x="111" y="1118.71" type="line"/>
			<point x="258.857" y="970.429" type="line"/>
			<point x="204.143" y="900.857"/>
			<point x="174.286" y="812.429"/>
		</contour>
		<contour>
			<point x="279.571" y="724.429" type="curve" smooth="yes"/>
			<point x="279.571" y="891.714"/>
			<point x="415.857" y="1025.71"/>
			<point x="580.286" y="1025.71" type="curve" smooth="yes"/>
			<point x="744" y="1025.71"/>
			<point x="880.857" y="890.286"/>
			<point x="880.857" y="725.857" type="curve" smooth="yes"/>
			<point x="880.857" y="560.571"/>
			<point x="744" y="423.714"/>
			<point x="577.429" y="423.714" type="curve" smooth="yes"/>
			<point x="417.286" y="423.714"/>
			<point x="279.571" y="553.429"/>
		</contour>
	</outline>
</glyph>
<glyph name="dieresis" format="2">
	<unicode hex="00A8"/>
	<advance width="1194"/>
	<outline>
		<contour>
			<point x="312.286" y="1395.86" type="curve" smooth="yes"/>
			<point x="312.286" y="1340.57"/>
			<point x="340.571" y="1305.57"/>
			<point x="394.429" y="1305.57" type="curve" smooth="yes"/>
			<point x="452.857" y="1305.57"/>
			<point x="480" y="1340.57"/>
			<point x="480" y="1395.86" type="curve" smooth="yes"/>
			<point x="480" y="1449.86"/>
			<point x="452.857" y="1486"/>
			<point x="394.429" y="1486" type="curve" smooth="yes"/>
			<point x="340.571" y="1486"/>
			<point x="312.286" y="1449.86"/>
		</contour>
		<contour>
			<point x="719.857" y="1395.86" type="curve" smooth="yes"/>
			<point x="719.857" y="1340.57"/>
			<point x="748.143" y="1305.57"/>
			<point x="802.571" y="1305.57" type="curve" smooth="yes"/>
			<point x="861.286" y="1305.57"/>
			<point x="888.429" y="1340.57"/>
			<point x="888.429" y="1395.86" type="curve" smooth="yes"/>
			<point x="888.429" y="1449.86"/>
			<point x="861.286" y="1486"/>
			<point x="802.571" y="1486" type="curve" smooth="yes"/>
			<point x="748.143" y="1486"/>
			<point x="719.857" y="1449.86"/>
		</contour>
	</outline>
</glyph>
<glyph name="plusminus" format="2">
	<unicode hex="00B1"/>
	<advance width="1176"/>
	<outline>
		<component base="plus" xyScale="0" yOffset="25.1429"/>
		<contour>
			<point x="107" y="0" type="line"/>
			<point x="1069.57" y="0" type="line"/>
			<point x="1069.57" y="111.571" type="line"/>
			<point x="107" y="111.571" type="line"/>
		</contour>
	</outline>
</glyph>
<glyph name="twosuperior" format="2">
	<unicode hex="00B2"/>
	<advance width="713"/>
	<outline>
		<contour>
			<point x="663.571" y="852" type="line"/>
			<point x="663.571" y="952.714" type="line"/>
			<point x="208.714" y="952.714" type="line"/>
			<point x="378.286" y="1122.29" type="line"/>
			<point x="532.571" y="1273.43"/>
			<point x="639.714" y="1368.29"/>
			<point x="639.714" y="1516.57" type="curve" smooth="yes"/>
			<point x="639.714" y="1653.57"/>
			<point x="544" y="1751"/>
			<point x="370.571" y="1751" type="curve" smooth="yes"/>
			<point x="251.143" y="1751"/>
			<point x="159.143" y="1712.29"/>
			<point x="80.2857" y="1645.29" type="curve"/>
			<point x="140.143" y="1568.57" type="line"/>
			<point x="215.429" y="1629.86"/>
			<point x="280" y="1653.71"/>
			<point x="354.286" y="1653.71" type="curve" smooth="yes"/>
			<point x="461" y="1653.71"/>
			<point x="517.857" y="1593.71"/>
			<point x="517.857" y="1507.43" type="curve" smooth="yes"/>
			<point x="517.857" y="1407.29"/>
			<point x="441" y="1328.14"/>
			<point x="302.429" y="1187" type="curve" smooth="yes"/>
			<point x="61" y="941.857" type="line"/>
			<point x="61" y="852" type="line"/>
		</contour>
	</outline>
</glyph>
<glyph name="threesuperior" format="2">
	<unicode hex="00B3"/>
	<advance width="713"/>
	<outline>
		<contour>
			<point x="364.571" y="1744.14" type="curve" smooth="yes"/>
			<point x="244.286" y="1744.14"/>
			<point x="146.429" y="1706"/>
			<point x="69.4286" y="1651.29" type="curve"/>
			<point x="117.143" y="1570.57" type="line"/>
			<point x="192.857" y="1619.57"/>
			<point x="262.857" y="1647.43"/>
			<point x="354.571" y="1647.43" type="curve" smooth="yes"/>
			<point x="464.429" y="1647.43"/>
			<point x="523" y="1591.71"/>
			<point x="523" y="1512.29" type="curve" smooth="yes"/>
			<point x="523" y="1412.14"/>
			<point x="456.714" y="1352.43"/>
			<point x="320.429" y="1352.43" type="curve" smooth="yes"/>
			<point x="199.714" y="1352.43" type="line"/>
			<point x="199.714" y="1260.29" type="line"/>
			<point x="327.286" y="1260.29" type="line" smooth="yes"/>
			<point x="481.857" y="1260.29"/>
			<point x="543" y="1209.57"/>
			<point x="543" y="1109.71" type="curve" smooth="yes"/>
			<point x="543" y="1002.14"/>
			<point x="465.286" y="941.286"/>
			<point x="325.571" y="941.286" type="curve" smooth="yes"/>
			<point x="227.857" y="941.286"/>
			<point x="141" y="964"/>
			<point x="57.8571" y="1005.43" type="curve"/>
			<point x="57.8571" y="897.857" type="line"/>
			<point x="131.286" y="862.286"/>
			<point x="226.429" y="841.714"/>
			<point x="329" y="841.714" type="curve" smooth="yes"/>
			<point x="536.286" y="841.714"/>
			<point x="660.429" y="934.571"/>
			<point x="660.429" y="1100" type="curve" smooth="yes"/>
			<point x="660.429" y="1216.14"/>
			<point x="597" y="1284.86"/>
			<point x="479.429" y="1312.14" type="curve"/>
			<point x="479.429" y="1317.29" type="line"/>
			<point x="577.857" y="1343.86"/>
			<point x="637.143" y="1419.29"/>
			<point x="637.143" y="1530.57" type="curve" smooth="yes"/>
			<point x="637.143" y="1663.86"/>
			<point x="532.286" y="1744.14"/>
		</contour>
	</outline>
</glyph>
<glyph name="micro" format="2">
	<unicode hex="00B5"/>
	<advance width="1242"/>
	<outline>
		<contour>
			<point x="1069.57" y="1095.86" type="line"/>
			<point x="920.857" y="1095.86" type="line"/>
			<point x="920.857" y="514.143" type="line" smooth="yes"/>
			<point x="920.857" y="252"/>
			<point x="838.571" y="104.714"/>
			<point x="604.857" y="104.714" type="curve" smooth="yes"/>
			<point x="409.143" y="104.714"/>
			<point x="318.857" y="209.286"/>
			<point x="318.857" y="418.714" type="curve" smooth="yes"/>
			<point x="318.857" y="1095.86" type="line"/>
			<point x="170" y="1095.86" type="line"/>
			<point x="170" y="-492" type="line"/>
			<point x="318.857" y="-492" type="line"/>
			<point x="318.857" y="-75.5714" type="line" smooth="yes"/>
			<point x="318.857" y="-9.57143"/>
			<point x="317.143" y="67.4286"/>
			<point x="315.429" y="121.571" type="curve"/>
			<point x="319.429" y="121.571" type="line"/>
			<point x="365" y="33.8571"/>
			<point x="452.714" y="-20"/>
			<point x="603.143" y="-20" type="curve" smooth="yes"/>
			<point x="793.286" y="-20"/>
			<point x="874.714" y="65.7143"/>
			<point x="925.429" y="181.286" type="curve"/>
			<point x="932.857" y="181.286" type="line"/>
			<point x="952.286" y="0" type="line"/>
			<point x="1069.57" y="0" type="line"/>
		</contour>
	</outline>
</glyph>
<glyph name="periodcentered" format="2">
	<unicode hex="00B7"/>
	<advance width="491"/>
	<outline>
		<contour>
			<point x="148.857" y="665.857" type="curve" smooth="yes"/>
			<point x="148.857" y="602.286"/>
			<point x="183.429" y="566.286"/>
			<point x="246.143" y="566.286" type="curve" smooth="yes"/>
			<point x="312.857" y="566.286"/>
			<point x="344.714" y="602.286"/>
			<point x="344.714" y="665.857" type="curve" smooth="yes"/>
			<point x="344.714" y="729.714"/>
			<point x="312.857" y="766.429"/>
			<point x="246.143" y="766.429" type="curve" smooth="yes"/>
			<point x="183.429" y="766.429"/>
			<point x="148.857" y="729.714"/>
		</contour>
	</outline>
</glyph>
<glyph name="cedilla" format="2">
	<unicode hex="00B8"/>
	<advance width="451"/>
	<outline>
		<contour>
			<point x="418.143" y="-284.143" type="curve" smooth="yes"/>
			<point x="418.143" y="-176.714"/>
			<point x="337.571" y="-122.143"/>
			<point x="229.143" y="-112.429" type="curve"/>
			<point x="283.143" y="0" type="line"/>
			<point x="191" y="0" type="line"/>
			<point x="108.571" y="-164" type="line"/>
			<point x="242.571" y="-169.429"/>
			<point x="300.714" y="-204.143"/>
			<point x="300.714" y="-279" type="curve" smooth="yes"/>
			<point x="300.714" y="-354.714"/>
			<point x="238.286" y="-397.714"/>
			<point x="148.714" y="-397.714" type="curve" smooth="yes"/>
			<point x="99.4286" y="-397.714"/>
			<point x="65" y="-394"/>
			<point x="27.1429" y="-382.571" type="curve"/>
			<point x="27.1429" y="-472.714" type="line"/>
			<point x="63.2857" y="-483.571"/>
			<point x="110.571" y="-492"/>
			<point x="173.857" y="-492" type="curve" smooth="yes"/>
			<point x="316.286" y="-492"/>
			<point x="418.143" y="-410.571"/>
		</contour>
	</outline>
</glyph>
<glyph name="onesuperior" format="2">
	<unicode hex="00B9"/>
	<advance width="713"/>
	<outline>
		<contour>
			<point x="458.143" y="1729" type="line"/>
			<point x="366.286" y="1729" type="line"/>
			<point x="70.5714" y="1543.29" type="line"/>
			<point x="128" y="1462.57" type="line"/>
			<point x="220.143" y="1519" type="line"/>
			<point x="272.286" y="1549.14"/>
			<point x="307" y="1570.29"/>
			<point x="344" y="1599.29" type="curve"/>
			<point x="341.429" y="1538.43"/>
			<point x="339.714" y="1431"/>
			<point x="339.714" y="1363" type="curve" smooth="yes"/>
			<point x="339.714" y="852" type="line"/>
			<point x="458.143" y="852" type="line"/>
		</contour>
	</outline>
</glyph>
<glyph name="guillemotright" format="2">
	<unicode hex="00BB"/>
	<advance width="968"/>
	<outline>
		<contour>
			<point x="908.143" y="561" type="line"/>
			<point x="908.143" y="588" type="line"/>
			<point x="575.429" y="996.714" type="line"/>
			<point x="470.429" y="937.714" type="line"/>
			<point x="749.714" y="573.571" type="line"/>
			<point x="470.429" y="209.857" type="line"/>
			<point x="575.429" y="150" type="line"/>
		</contour>
		<contour>
			<point x="496.429" y="561" type="line"/>
			<point x="496.429" y="588" type="line"/>
			<point x="163.714" y="996.714" type="line"/>
			<point x="59.5714" y="937.714" type="line"/>
			<point x="338" y="573.571" type="line"/>
			<point x="59.5714" y="209.857" type="line"/>
			<point x="163.714" y="150" type="line"/>
		</contour>
	</outline>
</glyph>
<glyph name="onehalf" format="2">
	<unicode hex="00BD"/>
	<advance width="1630"/>
	<outline>
		<contour>
			<point x="323.857" y="0" type="line"/>
			<point x="450.571" y="0" type="line"/>
			<point x="1210.29" y="1462" type="line"/>
			<point x="1083.57" y="1462" type="line"/>
		</contour>
		<contour>
			<point x="289" y="586" type="line"/>
			<point x="407.714" y="586" type="line"/>
			<point x="407.714" y="1462" type="line"/>
			<point x="315.857" y="1462" type="line"/>
			<point x="20.1429" y="1277.29" type="line"/>
			<point x="77.2857" y="1196.57" type="line"/>
			<point x="168.857" y="1252.71" type="line" smooth="yes"/>
			<point x="223" y="1284.86"/>
			<point x="258" y="1307.71"/>
			<point x="293.286" y="1333.29" type="curve"/>
			<point x="291.286" y="1277.57"/>
			<point x="289" y="1159.29"/>
			<point x="289" y="1097" type="curve" smooth="yes"/>
		</contour>
		<contour>
			<point x="977.857" y="0" type="line"/>
			<point x="1580.43" y="0" type="line"/>
			<point x="1580.43" y="100.714" type="line"/>
			<point x="1125.86" y="100.714" type="line"/>
			<point x="1332.57" y="304" type="line"/>
			<point x="1468.29" y="442.571"/>
			<point x="1556.57" y="530.857"/>
			<point x="1556.57" y="664.857" type="curve" smooth="yes"/>
			<point x="1556.57" y="803.857"/>
			<point x="1458.57" y="899"/>
			<point x="1287.43" y="899" type="curve" smooth="yes"/>
			<point x="1174.57" y="899"/>
			<point x="1080.57" y="864.857"/>
			<point x="997.429" y="793.286" type="curve"/>
			<point x="1057" y="716.571" type="line"/>
			<point x="1128" y="774.143"/>
			<point x="1194.57" y="801.714"/>
			<point x="1271.14" y="801.714" type="curve" smooth="yes"/>
			<point x="1378.43" y="801.714"/>
			<point x="1435" y="742.286"/>
			<point x="1435" y="655.429" type="curve" smooth="yes"/>
			<point x="1435" y="554.143"/>
			<point x="1357.29" y="475.571"/>
			<point x="1219.29" y="335" type="curve" smooth="yes"/>
			<point x="977.857" y="89.8571" type="line"/>
		</contour>
	</outline>
</glyph>
<glyph name="Aring" format="2">
	<unicode hex="00C5"/>
	<advance width="1269"/>
	<outline>
		<contour>
			<point x="1104.29" y="0" type="line"/>
			<point x="1269.14" y="0" type="line"/>
			<point x="736.143" y="1466.57" type="line"/>
			<point x="549.143" y="1466.57" type="line"/>
			<point x="0" y="0" type="line"/>
			<point x="164.714" y="0" type="line"/>
			<point x="342.286" y="474.714" type="line"/>
			<point x="931.571" y="474.714" type="line"/>
		</contour>
		<contour>
			<point x="893.857" y="603.714" type="line"/>
			<point x="379.286" y="603.714" type="line"/>
			<point x="566.571" y="1106.57" type="line"/>
			<point x="588.714" y="1174"/>
			<point x="621.429" y="1275.29"/>
			<point x="640.857" y="1348.43" type="curve"/>
			<point x="665.571" y="1265.29"/>
			<point x="697" y="1164.29"/>
			<point x="715.143" y="1108.71" type="curve"/>
		</contour>
		<contour>
			<point x="637.714" y="1390.14" type="curve" smooth="yes"/>
			<point x="761.143" y="1390.14"/>
			<point x="861.857" y="1477.57"/>
			<point x="861.857" y="1609.14" type="curve" smooth="yes"/>
			<point x="861.857" y="1734.43"/>
			<point x="760.571" y="1827.57"/>
			<point x="637.714" y="1827.57" type="curve" smooth="yes"/>
			<point x="511.857" y="1827.57"/>
			<point x="414.429" y="1737.29"/>
			<point x="414.429" y="1608.57" type="curve" smooth="yes"/>
			<point x="414.429" y="1476.14"/>
			<point x="513.286" y="1390.14"/>
		</contour>
		<contour>
			<point x="637.714" y="1473.14" type="curve" smooth="yes"/>
			<point x="556.286" y="1473.14"/>
			<point x="500.857" y="1533.14"/>
			<point x="500.857" y="1608.57" type="curve" smooth="yes"/>
			<point x="500.857" y="1684.57"/>
			<point x="560" y="1744"/>
			<point x="637.714" y="1744" type="curve" smooth="yes"/>
			<point x="711.143" y="1744"/>
			<point x="772.429" y="1684.57"/>
			<point x="772.429" y="1608.57" type="curve" smooth="yes"/>
			<point x="772.429" y="1533.14"/>
			<point x="716.857" y="1473.14"/>
		</contour>
	</outline>
	<anchor name="bottom" x="635.143" y="0"/>
	<anchor name="top" x="635.143" y="1827.29"/>
</glyph>
<glyph name="AE" format="2">
	<unicode hex="00C6"/>
	<advance width="1670"/>
	<outline>
		<contour>
			<point x="1622.57" y="0" type="line"/>
			<point x="1622.57" y="128.429" type="line"/>
			<point x="962.429" y="128.429" type="line"/>
			<point x="962.429" y="703" type="line"/>
			<point x="1583.29" y="703" type="line"/>
			<point x="1583.29" y="830.714" type="line"/>
			<point x="962.429" y="830.714" type="line"/>
			<point x="962.429" y="1335" type="line"/>
			<point x="1622.57" y="1335" type="line"/>
			<point x="1622.57" y="1462" type="line"/>
			<point x="624.429" y="1462" type="line"/>
			<point x="-4.28571" y="0" type="line"/>
			<point x="167" y="0" type="line"/>
			<point x="362.714" y="473.286" type="line"/>
			<point x="811.143" y="473.286" type="line"/>
			<point x="811.143" y="0" type="line"/>
		</contour>
		<contour>
			<point x="414.429" y="603.429" type="line"/>
			<point x="718" y="1330.14" type="line"/>
			<point x="811.143" y="1330.14" type="line"/>
			<point x="811.143" y="603.429" type="line"/>
		</contour>
	</outline>
	<anchor name="bottom" x="835.429" y="0"/>
	<anchor name="top" x="867.429" y="1462"/>
</glyph>
<glyph name="Eth" format="2">
	<unicode hex="00D0"/>
	<advance width="1442"/>
	<outline>
		<contour>
			<point x="599" y="1462" type="curve" smooth="yes"/>
			<point x="195.857" y="1462" type="line"/>
			<point x="195.857" y="790.857" type="line"/>
			<point x="33.8571" y="790.857" type="line"/>
			<point x="33.8571" y="662.286" type="line"/>
			<point x="195.857" y="662.286" type="line"/>
			<point x="195.857" y="0" type="line"/>
			<point x="556" y="0" type="line" smooth="yes"/>
			<point x="1054.57" y="0"/>
			<point x="1318.29" y="254.857"/>
			<point x="1318.29" y="749.857" type="curve" smooth="yes"/>
			<point x="1318.29" y="1211.14"/>
			<point x="1079.29" y="1462"/>
		</contour>
		<contour>
			<point x="585.857" y="1334.43" type="line" smooth="yes"/>
			<point x="986.571" y="1334.43"/>
			<point x="1161.86" y="1131.14"/>
			<point x="1161.86" y="744.429" type="curve" smooth="yes"/>
			<point x="1161.86" y="331"/>
			<point x="966.714" y="129"/>
			<point x="563.143" y="129" type="curve" smooth="yes"/>
			<point x="346.571" y="129" type="line"/>
			<point x="346.571" y="662.286" type="line"/>
			<point x="708.286" y="662.286" type="line"/>
			<point x="708.286" y="790.857" type="line"/>
			<point x="346.571" y="790.857" type="line"/>
			<point x="346.571" y="1334.43" type="line"/>
		</contour>
	</outline>
	<anchor name="bottom" x="721.286" y="0"/>
	<anchor name="top" x="721.286" y="1462"/>
</glyph>
<glyph name="multiply" format="2">
	<unicode hex="00D7"/>
	<advance width="1176"/>
	<outline>
		<contour>
			<point x="953" y="1166.43" type="line"/>
			<point x="586.857" y="802.286" type="line"/>
			<point x="221.143" y="1166.43" type="line"/>
			<point x="143.857" y="1087.43" type="line"/>
			<point x="508.714" y="723" type="line"/>
			<point x="144.429" y="357.857" type="line"/>
			<point x="221.143" y="280.143" type="line"/>
			<point x="586.857" y="644.857" type="line"/>
			<point x="953" y="279.571" type="line"/>
			<point x="1030.86" y="356.714" type="line"/>
			<point x="664.857" y="723" type="line"/>
			<point x="1032" y="1089.14" type="line"/>
		</contour>
	</outline>
</glyph>
<glyph name="Thorn" format="2">
	<unicode hex="00DE"/>
	<advance width="1205"/>
	<outline>
		<contour>
			<point x="1106.14" y="782.571" type="curve" smooth="yes"/>
			<point x="1106.14" y="1072.43"/>
			<point x="936.143" y="1208.29"/>
			<point x="600.429" y="1208.29" type="curve" smooth="yes"/>
			<point x="346.571" y="1208.29" type="line"/>
			<point x="346.571" y="1462" type="line"/>
			<point x="195.857" y="1462" type="line"/>
			<point x="195.857" y="0" type="line"/>
			<point x="346.571" y="0" type="line"/>
			<point x="346.571" y="330.571" type="line"/>
			<point x="564" y="330.571" type="line" smooth="yes"/>
			<point x="919.714" y="330.571"/>
			<point x="1106.14" y="491.571"/>
		</contour>
		<contour>
			<point x="346.571" y="459.714" type="line"/>
			<point x="346.571" y="1080.71" type="line"/>
			<point x="587.857" y="1080.71" type="line" smooth="yes"/>
			<point x="840" y="1080.71"/>
			<point x="952.571" y="989.714"/>
			<point x="952.571" y="782" type="curve" smooth="yes"/>
			<point x="952.571" y="541.143"/>
			<point x="787" y="459.714"/>
			<point x="547.143" y="459.714" type="curve" smooth="yes"/>
		</contour>
	</outline>
	<anchor name="bottom" x="603.714" y="0"/>
	<anchor name="top" x="603.714" y="1462"/>
</glyph>
<glyph name="ccedilla" format="2">
	<unicode hex="00E7"/>
	<advance width="1006"/>
	<outline>
		<contour>
			<point x="627.429" y="-20" type="curve" smooth="yes"/>
			<point x="752.714" y="-20"/>
			<point x="855" y="8"/>
			<point x="930.429" y="46.4286" type="curve"/>
			<point x="930.429" y="171.714" type="line"/>
			<point x="844.429" y="130.143"/>
			<point x="739.857" y="105.286"/>
			<point x="636.857" y="105.286" type="curve" smooth="yes"/>
			<point x="380.714" y="105.286"/>
			<point x="263.714" y="287.714"/>
			<point x="263.714" y="543" type="curve" smooth="yes"/>
			<point x="263.714" y="814"/>
			<point x="416.571" y="992.429"/>
			<point x="661.286" y="992.429" type="curve" smooth="yes"/>
			<point x="741.571" y="992.429"/>
			<point x="821.857" y="975.429"/>
			<point x="907.286" y="937.286" type="curve"/>
			<point x="947.286" y="1057" type="line"/>
			<point x="862.429" y="1095"/>
			<point x="771.714" y="1116.57"/>
			<point x="661.286" y="1116.57" type="curve" smooth="yes"/>
			<point x="327.143" y="1116.57"/>
			<point x="111" y="895.143"/>
			<point x="111" y="542.429" type="curve" smooth="yes"/>
			<point x="111" y="200.143"/>
			<point x="282" y="-20"/>
		</contour>
		<contour>
			<point x="776" y="-284.143" type="curve" smooth="yes"/>
			<point x="776" y="-176.714"/>
			<point x="695.429" y="-122.143"/>
			<point x="587" y="-112.429" type="curve"/>
			<point x="641" y="0" type="line"/>
			<point x="548.857" y="0" type="line"/>
			<point x="466.429" y="-164" type="line"/>
			<point x="600.429" y="-169.429"/>
			<point x="658.571" y="-204.143"/>
			<point x="658.571" y="-279" type="curve" smooth="yes"/>
			<point x="658.571" y="-354.714"/>
			<point x="596.143" y="-397.714"/>
			<point x="506.571" y="-397.714" type="curve" smooth="yes"/>
			<point x="457.286" y="-397.714"/>
			<point x="422.857" y="-394"/>
			<point x="385" y="-382.571" type="curve"/>
			<point x="385" y="-472.714" type="line"/>
			<point x="421.143" y="-483.571"/>
			<point x="468.429" y="-492"/>
			<point x="531.714" y="-492" type="curve" smooth="yes"/>
			<point x="674.143" y="-492"/>
			<point x="776" y="-410.571"/>
		</contour>
	</outline>
	<anchor name="bottom" x="617.143" y="-492"/>
	<anchor name="top" x="619.286" y="1095.86"/>
</glyph>
<glyph name="divide" format="2">
	<unicode hex="00F7"/>
	<advance width="1176"/>
	<outline>
		<contour>
			<point x="107" y="666.571" type="line"/>
			<point x="1069.57" y="666.571" type="line"/>
			<point x="1069.57" y="778.857" type="line"/>
			<point x="107" y="778.857" type="line"/>
		</contour>
		<contour>
			<point x="586.571" y="257" type="curve" smooth="yes"/>
			<point x="645" y="257"/>
			<point x="671" y="292.286"/>
			<point x="671" y="350.571" type="curve" smooth="yes"/>
			<point x="671" y="410.429"/>
			<point x="645" y="444.857"/>
			<point x="586.571" y="444.857" type="curve" smooth="yes"/>
			<point x="533.286" y="444.857"/>
			<point x="504.857" y="410.429"/>
			<point x="504.857" y="350.571" type="curve" smooth="yes"/>
			<point x="504.857" y="292.286"/>
			<point x="533.286" y="257"/>
		</contour>
		<contour>
			<point x="586.571" y="1000.57" type="curve" smooth="yes"/>
			<point x="645" y="1000.57"/>
			<point x="671" y="1035.86"/>
			<point x="671" y="1094.14" type="curve" smooth="yes"/>
			<point x="671" y="1154"/>
			<point x="645" y="1188.43"/>
			<point x="586.571" y="1188.43" type="curve" smooth="yes"/>
			<point x="533.286" y="1188.43"/>
			<point x="504.857" y="1154"/>
			<point x="504.857" y="1094.14" type="curve" smooth="yes"/>
			<point x="504.857" y="1035.86"/>
			<point x="533.286" y="1000.57"/>
		</contour>
	</outline>
</glyph>
<glyph name="oslash" format="2">
	<unicode hex="00F8"/>
	<advance width="1231"/>
	<outline>
		<contour>
			<point x="1117.57" y="549" type="curve" smooth="yes"/>
			<point x="1117.57" y="722.429"/>
			<point x="1071.14" y="869.429"/>
			<point x="981.429" y="970.286" type="curve"/>
			<point x="1088.43" y="1108.57" type="line"/>
			<point x="1012.57" y="1162.14" type="line"/>
			<point x="907.286" y="1024.71" type="line"/>
			<point x="835.857" y="1083.29"/>
			<point x="741.571" y="1116.57"/>
			<point x="622.571" y="1116.57" type="curve" smooth="yes"/>
			<point x="301" y="1116.57"/>
			<point x="111" y="901.857"/>
			<point x="111" y="549" type="curve" smooth="yes"/>
			<point x="111" y="381.286"/>
			<point x="157.429" y="240.857"/>
			<point x="241.857" y="140.857" type="curve"/>
			<point x="118.571" y="-19.2857" type="line"/>
			<point x="195" y="-72.7143" type="line"/>
			<point x="315.429" y="83.2857" type="line"/>
			<point x="389.429" y="18.4286"/>
			<point x="487.429" y="-20"/>
			<point x="612.286" y="-20" type="curve" smooth="yes"/>
			<point x="947.571" y="-20"/>
			<point x="1117.57" y="213.571"/>
		</contour>
		<contour>
			<point x="257.429" y="549" type="curve" smooth="yes"/>
			<point x="257.429" y="836"/>
			<point x="382.286" y="1003"/>
			<point x="621.429" y="1003" type="curve" smooth="yes"/>
			<point x="715.286" y="1003"/>
			<point x="785.571" y="974"/>
			<point x="837.714" y="925.714" type="curve"/>
			<point x="322.286" y="259.857" type="line"/>
			<point x="278.714" y="335"/>
			<point x="257.429" y="432.714"/>
		</contour>
		<contour>
			<point x="970.429" y="549" type="curve" smooth="yes"/>
			<point x="970.429" y="277.143"/>
			<point x="865.143" y="93.5714"/>
			<point x="613.429" y="93.5714" type="curve" smooth="yes"/>
			<point x="514.429" y="93.5714"/>
			<point x="438.286" y="126.286"/>
			<point x="383.857" y="182.286" type="curve"/>
			<point x="899" y="847.857" type="line"/>
			<point x="949.857" y="771.857"/>
			<point x="970.429" y="666.571"/>
		</contour>
	</outline>
	<anchor name="bottom" x="616.286" y="0"/>
	<anchor name="top" x="616.857" y="1095.86"/>
</glyph>
<glyph name="udieresis" format="2">
	<unicode hex="00FC"/>
	<advance width="1231"/>
	<outline>
		<contour>
			<point x="1057" y="1095.86" type="line"/>
			<point x="907.429" y="1095.86" type="line"/>
			<point x="907.429" y="512.714" type="line" smooth="yes"/>
			<point x="907.429" y="237.714"/>
			<point x="782" y="104.714"/>
			<point x="571.857" y="104.714" type="curve" smooth="yes"/>
			<point x="399.429" y="104.714"/>
			<point x="307.571" y="204.143"/>
			<point x="307.571" y="419" type="curve" smooth="yes"/>
			<point x="307.571" y="1095.86" type="line"/>
			<point x="158" y="1095.86" type="line"/>
			<point x="158" y="379.286" type="line" smooth="yes"/>
			<point x="158" y="113.286"/>
			<point x="297.857" y="-20"/>
			<point x="534.429" y="-20" type="curve" smooth="yes"/>
			<point x="738" y="-20"/>
			<point x="859" y="80.5714"/>
			<point x="912.857" y="202.429" type="curve"/>
			<point x="922.286" y="202.429" type="line"/>
			<point x="942" y="0" type="line"/>
			<point x="1057" y="0" type="line"/>
		</contour>
		<contour>
			<point x="326.857" y="1395.86" type="curve" smooth="yes"/>
			<point x="326.857" y="1340.57"/>
			<point x="355.143" y="1305.57"/>
			<point x="409" y="1305.57" type="curve" smooth="yes"/>
			<point x="467.429" y="1305.57"/>
			<point x="494.571" y="1340.57"/>
			<point x="494.571" y="1395.86" type="curve" smooth="yes"/>
			<point x="494.571" y="1449.86"/>
			<point x="467.429" y="1486"/>
			<point x="409" y="1486" type="curve" smooth="yes"/>
			<point x="355.143" y="1486"/>
			<point x="326.857" y="1449.86"/>
		</contour>
		<contour>
			<point x="734.429" y="1395.86" type="curve" smooth="yes"/>
			<point x="734.429" y="1340.57"/>
			<point x="762.714" y="1305.57"/>
			<point x="817.143" y="1305.57" type="curve" smooth="yes"/>
			<point x="875.857" y="1305.57"/>
			<point x="903" y="1340.57"/>
			<point x="903" y="1395.86" type="curve" smooth="yes"/>
			<point x="903" y="1449.86"/>
			<point x="875.857" y="1486"/>
			<point x="817.143" y="1486" type="curve" smooth="yes"/>
			<point x="762.714" y="1486"/>
			<point x="734.429" y="1449.86"/>
		</contour>
	</outline>
	<anchor name="bottom" x="612.571" y="0"/>
	<anchor name="top" x="616" y="1486"/>
</glyph>
<glyph name="eogonek" format="2">
	<unicode hex="0119"/>
	<advance width="1152"/>
	<outline>
		<component base="e"/>
		<contour>
			<point x="773.571" y="-244.571" type="curve" smooth="yes"/>
			<point x="773.571" y="-153.429"/>
			<point x="842.143" y="-69.4286"/>
			<point x="973.143" y="47.2857" type="curve"/>
			<point x="875.714" y="46.7143" type="line"/>
			<point x="718.714" y="-76.2857"/>
			<point x="663.429" y="-175.143"/>
			<point x="663.429" y="-271.429" type="curve" smooth="yes"/>
			<point x="663.429" y="-393"/>
			<point x="749.857" y="-457.714"/>
			<point x="861.571" y="-457.714" type="curve" smooth="yes"/>
			<point x="913.429" y="-457.714"/>
			<point x="955.571" y="-448.286"/>
			<point x="984.857" y="-438.571" type="curve"/>
			<point x="984.857" y="-340.429" type="line"/>
			<point x="960.143" y="-349.571"/>
			<point x="921.429" y="-356.714"/>
			<point x="882.571" y="-356.714" type="curve" smooth="yes"/>
			<point x="812" y="-356.714"/>
			<point x="773.571" y="-316.571"/>
		</contour>
	</outline>
	<anchor name="bottom" x="589.857" y="-457.714"/>
	<anchor name="top" x="575.857" y="1095.86"/>
</glyph>
<glyph name="hbar" format="2">
	<unicode hex="0127"/>
	<advance width="1237"/>
	<outline>
		<contour>
			<point x="326.286" y="1556" type="line"/>
			<point x="176" y="1556" type="line"/>
			<point x="176" y="1360.43" type="line"/>
			<point x="23.5714" y="1360.43" type="line"/>
			<point x="23.5714" y="1254.86" type="line"/>
			<point x="176" y="1254.86" type="line"/>
			<point x="176" y="0" type="line"/>
			<point x="326.286" y="0" type="line"/>
			<point x="326.286" y="554.286" type="line" smooth="yes"/>
			<point x="326.286" y="829.571"/>
			<point x="452.714" y="963.571"/>
			<point x="661.571" y="963.571" type="curve" smooth="yes"/>
			<point x="829.286" y="963.571"/>
			<point x="925.143" y="866.571"/>
			<point x="925.143" y="653" type="curve" smooth="yes"/>
			<point x="925.143" y="0" type="line"/>
			<point x="1075.57" y="0" type="line"/>
			<point x="1075.57" y="689" type="line" smooth="yes"/>
			<point x="1075.57" y="963"/>
			<point x="929.143" y="1088"/>
			<point x="698.429" y="1088" type="curve" smooth="yes"/>
			<point x="495" y="1088"/>
			<point x="379.857" y="990.143"/>
			<point x="328" y="865.143" type="curve"/>
			<point x="317.857" y="865.143" type="line"/>
			<point x="322" y="925.286"/>
			<point x="325.714" y="985.143"/>
			<point x="325.714" y="1047.43" type="curve" smooth="yes"/>
			<point x="325.714" y="1254.86" type="line"/>
			<point x="746.429" y="1254.86" type="line"/>
			<point x="746.429" y="1360.43" type="line"/>
			<point x="326.286" y="1360.43" type="line"/>
		</contour>
	</outline>
	<anchor name="bottom" x="618.857" y="0"/>
	<anchor name="top" x="516" y="1556"/>
</glyph>
<glyph name="idotless" format="2">
	<unicode hex="0131"/>
	<advance width="493"/>
	<outline>
		<contour>
			<point x="320.857" y="0" type="line"/>
			<point x="320.857" y="1095.86" type="line"/>
			<point x="170.571" y="1095.86" type="line"/>
			<point x="170.571" y="0" type="line"/>
		</contour>
	</outline>
	<anchor name="bottom" x="247" y="0"/>
	<anchor name="top" x="247.571" y="1095.86"/>
</glyph>
<glyph name="lslash" format="2">
	<unicode hex="0142"/>
	<advance width="547"/>
	<outline>
		<contour>
			<point x="204.429" y="0" type="line"/>
			<point x="354.286" y="0" type="line"/>
			<point x="354.286" y="703.286" type="line"/>
			<point x="564.286" y="838" type="line"/>
			<point x="505.429" y="936.429" type="line"/>
			<point x="354.286" y="837.429" type="line"/>
			<point x="354.286" y="1556" type="line"/>
			<point x="204.429" y="1556" type="line"/>
			<point x="204.429" y="748.571" type="line"/>
			<point x="5.42857" y="623.286" type="line"/>
			<point x="66.1429" y="521.714" type="line"/>
			<point x="204.429" y="610.857" type="line"/>
		</contour>
	</outline>
	<anchor name="bottom" x="274.429" y="0"/>
	<anchor name="top" x="274.429" y="1556"/>
</glyph>
<glyph name="Eng" format="2">
	<unicode hex="014A"/>
	<advance width="1509"/>
	<outline>
		<contour>
			<point x="944.429" y="-394" type="curve" smooth="yes"/>
			<point x="1175.71" y="-394"/>
			<point x="1312.14" y="-249.857"/>
			<point x="1312.14" y="2" type="curve" smooth="yes"/>
			<point x="1312.14" y="1462" type="line"/>
			<point x="1173" y="1462" type="line"/>
			<point x="1173" y="615.714" type="line" smooth="yes"/>
			<point x="1173" y="509.429"/>
			<point x="1175.86" y="371"/>
			<point x="1179" y="275.857" type="curve"/>
			<point x="1173.86" y="275.857" type="line"/>
			<point x="360.857" y="1462" type="line"/>
			<point x="195.857" y="1462" type="line"/>
			<point x="195.857" y="0" type="line"/>
			<point x="333.714" y="0" type="line"/>
			<point x="333.714" y="909.714" type="line" smooth="yes"/>
			<point x="333.714" y="1030.43"/>
			<point x="330.857" y="1145"/>
			<point x="326.857" y="1252.14" type="curve"/>
			<point x="332.286" y="1252.14" type="line"/>
			<point x="1179" y="14.2857" type="line"/>
			<point x="1175.86" y="-179.571"/>
			<point x="1096.43" y="-268.429"/>
			<point x="928.429" y="-268.429" type="curve" smooth="yes"/>
			<point x="866.857" y="-268.429"/>
			<point x="809.571" y="-257.857"/>
			<point x="764.286" y="-245.571" type="curve"/>
			<point x="764.286" y="-369.714" type="line"/>
			<point x="800.286" y="-381.143"/>
			<point x="871.429" y="-394"/>
		</contour>
	</outline>
	<anchor name="bottom" x="754.714" y="-394"/>
	<anchor name="top" x="754.714" y="1462"/>
</glyph>
<glyph name="eng" format="2">
	<unicode hex="014B"/>
	<advance width="1231"/>
	<outline>
		<contour>
			<point x="798.286" y="-492" type="curve" smooth="yes"/>
			<point x="968.714" y="-492"/>
			<point x="1069.57" y="-379.143"/>
			<point x="1069.57" y="-202" type="curve" smooth="yes"/>
			<point x="1069.57" y="717" type="line" smooth="yes"/>
			<point x="1069.57" y="991.571"/>
			<point x="922.857" y="1116.57"/>
			<point x="693.857" y="1116.57" type="curve" smooth="yes"/>
			<point x="491" y="1116.57"/>
			<point x="369.286" y="1015.86"/>
			<point x="315.429" y="893.714" type="curve"/>
			<point x="305.429" y="893.714" type="line"/>
			<point x="285" y="1095.86" type="line"/>
			<point x="170" y="1095.86" type="line"/>
			<point x="170" y="0" type="line"/>
			<point x="320.286" y="0" type="line"/>
			<point x="320.286" y="583.143" type="line" smooth="yes"/>
			<point x="320.286" y="858.143"/>
			<point x="445" y="992.429"/>
			<point x="655.857" y="992.429" type="curve" smooth="yes"/>
			<point x="821.857" y="992.429"/>
			<point x="919.429" y="898.571"/>
			<point x="919.429" y="692.143" type="curve" smooth="yes"/>
			<point x="919.429" y="-172.857" type="line" smooth="yes"/>
			<point x="919.429" y="-302.714"/>
			<point x="866.429" y="-365.714"/>
			<point x="771.429" y="-365.714" type="curve" smooth="yes"/>
			<point x="729.857" y="-365.714"/>
			<point x="691.143" y="-361.143"/>
			<point x="649.429" y="-344.857" type="curve"/>
			<point x="649.429" y="-469.857" type="line"/>
			<point x="687.714" y="-482.429"/>
			<point x="744.429" y="-492"/>
		</contour>
	</outline>
	<anchor name="bottom" x="616" y="-492"/>
	<anchor name="top" x="616" y="1095.86"/>
	<anchor name="topright" x="1181.57" y="1095.86"/>
</glyph>
<glyph name="OE" format="2">
	<unicode hex="0152"/>
	<advance width="1875"/>
	<outline>
		<contour>
			<point x="776" y="1472.86" type="curve" smooth="yes"/>
			<point x="353.286" y="1472.86"/>
			<point x="121.857" y="1179.43"/>
			<point x="121.857" y="735" type="curve" smooth="yes"/>
			<point x="121.857" y="289.571"/>
			<point x="340.571" y="-10"/>
			<point x="771.143" y="-10" type="curve" smooth="yes"/>
			<point x="839.714" y="-10"/>
			<point x="909.571" y="-4.85714"/>
			<point x="958" y="0" type="curve"/>
			<point x="1756.29" y="0" type="line"/>
			<point x="1756.29" y="128.429" type="line"/>
			<point x="1096.14" y="128.429" type="line"/>
			<point x="1096.14" y="703" type="line"/>
			<point x="1716.43" y="703" type="line"/>
			<point x="1716.43" y="830.714" type="line"/>
			<point x="1096.14" y="830.714" type="line"/>
			<point x="1096.14" y="1335" type="line"/>
			<point x="1756.29" y="1335" type="line"/>
			<point x="1756.29" y="1462" type="line"/>
			<point x="974.571" y="1462" type="line"/>
			<point x="907" y="1467.71"/>
			<point x="845.714" y="1472.86"/>
		</contour>
		<contour>
			<point x="776.571" y="1343.86" type="curve" smooth="yes"/>
			<point x="849.143" y="1343.86"/>
			<point x="910.143" y="1334.43"/>
			<point x="945.143" y="1324.14" type="curve"/>
			<point x="945.143" y="138.429" type="line"/>
			<point x="904.714" y="126.143"/>
			<point x="844.286" y="120.429"/>
			<point x="771.714" y="120.429" type="curve" smooth="yes"/>
			<point x="438.429" y="120.429"/>
			<point x="280" y="364"/>
			<point x="280" y="734.429" type="curve" smooth="yes"/>
			<point x="280" y="1098.43"/>
			<point x="442.714" y="1343.86"/>
		</contour>
	</outline>
	<anchor name="bottom" x="938.857" y="0"/>
	<anchor name="top" x="938.857" y="1462"/>
</glyph>
<glyph name="oe" format="2">
	<unicode hex="0153"/>
	<advance width="1988"/>
	<outline>
		<contour>
			<point x="1452.86" y="1116.57" type="curve" smooth="yes"/>
			<point x="1229.57" y="1116.57"/>
			<point x="1094.43" y="991.714"/>
			<point x="1028.57" y="819.571" type="curve"/>
			<point x="968.429" y="995.714"/>
			<point x="838" y="1116.57"/>
			<point x="614.286" y="1116.57" type="curve" smooth="yes"/>
			<point x="298.143" y="1116.57"/>
			<point x="111" y="901.857"/>
			<point x="111" y="549" type="curve" smooth="yes"/>
			<point x="111" y="210.714"/>
			<point x="287.714" y="-20"/>
			<point x="604" y="-20" type="curve" smooth="yes"/>
			<point x="829.143" y="-20"/>
			<point x="967" y="97"/>
			<point x="1031.71" y="273.429" type="curve"/>
			<point x="1095.29" y="94.4286"/>
			<point x="1234.57" y="-20"/>
			<point x="1467.57" y="-20" type="curve" smooth="yes"/>
			<point x="1616.57" y="-20"/>
			<point x="1718.29" y="1.71429"/>
			<point x="1824.71" y="51.5714" type="curve"/>
			<point x="1824.71" y="171.143" type="line"/>
			<point x="1697.14" y="111.857"/>
			<point x="1605.43" y="95.8571"/>
			<point x="1482.14" y="95.8571" type="curve" smooth="yes"/>
			<point x="1233.43" y="95.8571"/>
			<point x="1099.57" y="253.571"/>
			<point x="1100.71" y="521" type="curve"/>
			<point x="1873.86" y="521" type="line"/>
			<point x="1873.86" y="606.571" type="line" smooth="yes"/>
			<point x="1873.86" y="909.571"/>
			<point x="1732.43" y="1116.57"/>
		</contour>
		<contour>
			<point x="613.143" y="997" type="curve" smooth="yes"/>
			<point x="854.714" y="997"/>
			<point x="947.571" y="805.571"/>
			<point x="947.571" y="549" type="curve" smooth="yes"/>
			<point x="947.571" y="281.429"/>
			<point x="844" y="99.2857"/>
			<point x="605.143" y="99.2857" type="curve" smooth="yes"/>
			<point x="372.143" y="99.2857"/>
			<point x="264.286" y="278.571"/>
			<point x="264.286" y="549" type="curve" smooth="yes"/>
			<point x="264.286" y="832"/>
			<point x="386.286" y="997"/>
		</contour>
		<contour>
			<point x="1446.29" y="1004.14" type="curve" smooth="yes"/>
			<point x="1640.29" y="1004.14"/>
			<point x="1735.43" y="848.571"/>
			<point x="1734.57" y="627.714" type="curve"/>
			<point x="1103.86" y="627.714" type="line"/>
			<point x="1123.86" y="877.857"/>
			<point x="1255.29" y="1004.14"/>
		</contour>
	</outline>
	<anchor name="bottom" x="994.714" y="0"/>
	<anchor name="top" x="994.714" y="1095.86"/>
</glyph>
<glyph name="Tbar" format="2">
	<unicode hex="0166"/>
	<advance width="1084"/>
	<outline>
		<contour>
			<point x="465.857" y="0" type="line"/>
			<point x="617.286" y="0" type="line"/>
			<point x="617.286" y="675.571" type="line"/>
			<point x="954" y="675.571" type="line"/>
			<point x="954" y="804.857" type="line"/>
			<point x="617.286" y="804.857" type="line"/>
			<point x="617.286" y="1333.29" type="line"/>
			<point x="1066.86" y="1333.29" type="line"/>
			<point x="1066.86" y="1462" type="line"/>
			<point x="17.4286" y="1462" type="line"/>
			<point x="17.4286" y="1333.29" type="line"/>
			<point x="465.857" y="1333.29" type="line"/>
			<point x="465.857" y="804.857" type="line"/>
			<point x="128.857" y="804.857" type="line"/>
			<point x="128.857" y="675.571" type="line"/>
			<point x="465.857" y="675.571" type="line"/>
		</contour>
	</outline>
	<anchor name="bottom" x="543.143" y="0"/>
	<anchor name="top" x="543.143" y="1462"/>
</glyph>
<glyph name="uni0183" format="2">
	<unicode hex="0183"/>
	<advance width="1233"/>
	<outline>
		<contour>
			<point x="670.286" y="-20" type="curve" smooth="yes"/>
			<point x="972" y="-20"/>
			<point x="1123.86" y="213.286"/>
			<point x="1123.86" y="551.857" type="curve" smooth="yes"/>
			<point x="1123.86" y="929.571"/>
			<point x="966" y="1109.14"/>
			<point x="696.714" y="1109.14" type="curve" smooth="yes"/>
			<point x="502.571" y="1109.14"/>
			<point x="371" y="1004.14"/>
			<point x="324.857" y="870.429" type="curve"/>
			<point x="317" y="870.429" type="line"/>
			<point x="319.857" y="929.571"/>
			<point x="324.857" y="1029.14"/>
			<point x="324.857" y="1104.43" type="curve" smooth="yes"/>
			<point x="324.857" y="1435.57" type="line"/>
			<point x="1007.14" y="1435.57" type="line"/>
			<point x="1007.14" y="1556" type="line"/>
			<point x="172.857" y="1556" type="line"/>
			<point x="172.857" y="0" type="line"/>
			<point x="293.857" y="0" type="line"/>
			<point x="317.714" y="181.857" type="line"/>
			<point x="327.714" y="181.857" type="line"/>
			<point x="378.429" y="69.7143"/>
			<point x="483.714" y="-20"/>
		</contour>
		<contour>
			<point x="634.571" y="107.571" type="curve" smooth="yes"/>
			<point x="421.143" y="107.571"/>
			<point x="324.857" y="257.571"/>
			<point x="324.857" y="535.714" type="curve" smooth="yes"/>
			<point x="324.857" y="553.571" type="line"/>
			<point x="326.571" y="825.143"/>
			<point x="439.857" y="983.286"/>
			<point x="656.429" y="983.286" type="curve" smooth="yes"/>
			<point x="860.429" y="983.286"/>
			<point x="968.857" y="843.571"/>
			<point x="968.857" y="553" type="curve" smooth="yes"/>
			<point x="968.857" y="267.286"/>
			<point x="848.286" y="107.571"/>
		</contour>
	</outline>
	<anchor name="bottom" x="617.429" y="0"/>
	<anchor name="top" x="617.429" y="1556"/>
</glyph>
<glyph name="uni0184" format="2">
	<unicode hex="0184"/>
	<advance width="1250"/>
	<outline>
		<contour>
			<point x="672.429" y="-8.85714" type="curve" smooth="yes"/>
			<point x="971.571" y="-8.85714"/>
			<point x="1129.57" y="163.429"/>
			<point x="1129.57" y="428.286" type="curve" smooth="yes"/>
			<point x="1129.57" y="714.429"/>
			<point x="943.143" y="843"/>
			<point x="606.143" y="843" type="curve" smooth="yes"/>
			<point x="348.857" y="843" type="line"/>
			<point x="348.857" y="1462" type="line"/>
			<point x="196.429" y="1462" type="line"/>
			<point x="196.429" y="471.857" type="line" smooth="yes"/>
			<point x="196.429" y="147.714"/>
			<point x="358" y="-8.85714"/>
		</contour>
		<contour>
			<point x="669.857" y="121.286" type="curve" smooth="yes"/>
			<point x="454.429" y="121.286"/>
			<point x="348.857" y="238.714"/>
			<point x="348.857" y="488.857" type="curve" smooth="yes"/>
			<point x="348.857" y="712.857" type="line"/>
			<point x="583.286" y="712.857" type="line" smooth="yes"/>
			<point x="830" y="712.857"/>
			<point x="973.857" y="653.429"/>
			<point x="973.857" y="428.286" type="curve" smooth="yes"/>
			<point x="973.857" y="231.429"/>
			<point x="857.143" y="121.286"/>
		</contour>
	</outline>
	<anchor name="bottom" x="625.714" y="0"/>
	<anchor name="top" x="625.714" y="1462"/>
</glyph>
<glyph name="uni0186" format="2">
	<unicode hex="0186"/>
	<advance width="1278"/>
	<outline>
		<contour>
			<point x="447.714" y="-20" type="curve" smooth="yes"/>
			<point x="916.143" y="-20"/>
			<point x="1155.71" y="318.286"/>
			<point x="1155.71" y="765.429" type="curve" smooth="yes"/>
			<point x="1155.71" y="1196"/>
			<point x="949.714" y="1483"/>
			<point x="504.143" y="1483" type="curve" smooth="yes"/>
			<point x="354.571" y="1483"/>
			<point x="196.857" y="1447.71"/>
			<point x="77.1429" y="1390.71" type="curve"/>
			<point x="118.857" y="1266.43" type="line"/>
			<point x="232.714" y="1325.29"/>
			<point x="372" y="1354"/>
			<point x="495" y="1354" type="curve" smooth="yes"/>
			<point x="835.571" y="1354"/>
			<point x="1000.43" y="1119.29"/>
			<point x="1000.43" y="756.571" type="curve" smooth="yes"/>
			<point x="1000.43" y="374.571"/>
			<point x="809.143" y="108.714"/>
			<point x="444" y="108.714" type="curve" smooth="yes"/>
			<point x="300" y="108.714"/>
			<point x="190.286" y="137.571"/>
			<point x="85.1429" y="177.143" type="curve"/>
			<point x="85.1429" y="45.2857" type="line"/>
			<point x="184" y="5.71429"/>
			<point x="296.286" y="-20"/>
		</contour>
	</outline>
	<anchor name="bottom" x="610.143" y="0"/>
	<anchor name="top" x="610.143" y="1462"/>
</glyph>
<glyph name="uni0187" format="2">
	<unicode hex="0187"/>
	<advance width="1275"/>
	<outline>
		<contour>
			<point x="1312.43" y="1774.71" type="curve" smooth="yes"/>
			<point x="1180.86" y="1774.71"/>
			<point x="1081.57" y="1695.71"/>
			<point x="1081.57" y="1531.57" type="curve" smooth="yes"/>
			<point x="1081.57" y="1438.71" type="line"/>
			<point x="998.571" y="1467.71"/>
			<point x="912.857" y="1483"/>
			<point x="819.286" y="1483" type="curve" smooth="yes"/>
			<point x="377.571" y="1483"/>
			<point x="125" y="1164.14"/>
			<point x="125" y="734.143" type="curve" smooth="yes"/>
			<point x="125" y="282.429"/>
			<point x="342" y="-20"/>
			<point x="785" y="-20" type="curve" smooth="yes"/>
			<point x="945.714" y="-20"/>
			<point x="1067.57" y="6.85714"/>
			<point x="1173" y="49.5714" type="curve"/>
			<point x="1173" y="179.429" type="line"/>
			<point x="1058.43" y="138.143"/>
			<point x="939.429" y="111"/>
			<point x="793.857" y="111" type="curve" smooth="yes"/>
			<point x="448.429" y="111"/>
			<point x="282.286" y="353"/>
			<point x="282.286" y="733.571" type="curve" smooth="yes"/>
			<point x="282.286" y="1095.86"/>
			<point x="476" y="1351.71"/>
			<point x="818.714" y="1351.71" type="curve" smooth="yes"/>
			<point x="928.571" y="1351.71"/>
			<point x="1043" y="1325.29"/>
			<point x="1157.43" y="1267.71" type="curve"/>
			<point x="1208" y="1388.14" type="line"/>
			<point x="1208" y="1507.43" type="line" smooth="yes"/>
			<point x="1208" y="1609.86"/>
			<point x="1251.57" y="1650"/>
			<point x="1327" y="1650" type="curve" smooth="yes"/>
			<point x="1375.43" y="1650"/>
			<point x="1415.57" y="1638"/>
			<point x="1439.14" y="1628.57" type="curve"/>
			<point x="1439.14" y="1752.43" type="line"/>
			<point x="1417.86" y="1761.57"/>
			<point x="1370.57" y="1774.71"/>
		</contour>
	</outline>
	<anchor name="bottom" x="671" y="0"/>
	<anchor name="top" x="663" y="1555.71"/>
</glyph>
<glyph name="uni0188" format="2">
	<unicode hex="0188"/>
	<advance width="981"/>
	<outline>
		<contour>
			<point x="616.857" y="-20" type="curve" smooth="yes"/>
			<point x="747.286" y="-20"/>
			<point x="843.286" y="4.57143"/>
			<point x="921.571" y="45.8571" type="curve"/>
			<point x="921.571" y="178.286" type="line"/>
			<point x="836.429" y="133.571"/>
			<point x="738.714" y="107.571"/>
			<point x="628" y="107.571" type="curve" smooth="yes"/>
			<point x="377.286" y="107.571"/>
			<point x="264.286" y="286.286"/>
			<point x="264.286" y="543" type="curve" smooth="yes"/>
			<point x="264.286" y="812.857"/>
			<point x="408.571" y="990.143"/>
			<point x="651.286" y="990.143" type="curve" smooth="yes"/>
			<point x="731.571" y="990.143"/>
			<point x="813" y="971.429"/>
			<point x="899" y="932.714" type="curve"/>
			<point x="940.143" y="1052.43" type="line"/>
			<point x="940.143" y="1288.57" type="line" smooth="yes"/>
			<point x="940.143" y="1409.57"/>
			<point x="986.571" y="1448.29"/>
			<point x="1066.29" y="1448.29" type="curve" smooth="yes"/>
			<point x="1112.57" y="1448.29"/>
			<point x="1146.29" y="1437.71"/>
			<point x="1168.43" y="1429" type="curve"/>
			<point x="1168.43" y="1552.14" type="line"/>
			<point x="1145.43" y="1561.29"/>
			<point x="1111.14" y="1573.57"/>
			<point x="1055.14" y="1573.57" type="curve" smooth="yes"/>
			<point x="911.714" y="1573.57"/>
			<point x="813.714" y="1493.86"/>
			<point x="813.714" y="1298.57" type="curve" smooth="yes"/>
			<point x="813.714" y="1094.71" type="line"/>
			<point x="765.571" y="1109.43"/>
			<point x="711.571" y="1116.57"/>
			<point x="650.714" y="1116.57" type="curve" smooth="yes"/>
			<point x="322.571" y="1116.57"/>
			<point x="109.286" y="902.571"/>
			<point x="109.286" y="542.429" type="curve" smooth="yes"/>
			<point x="109.286" y="194.143"/>
			<point x="273.143" y="-20"/>
		</contour>
	</outline>
	<anchor name="bottom" x="519.286" y="0"/>
	<anchor name="top" x="506.429" y="1573.57"/>
</glyph>
<glyph name="uni018B" format="2">
	<unicode hex="018B"/>
	<advance width="1229"/>
	<outline>
		<contour>
			<point x="626.714" y="0" type="curve" smooth="yes"/>
			<point x="1019" y="0" type="line"/>
			<point x="1019" y="1462" type="line"/>
			<point x="192.286" y="1462" type="line"/>
			<point x="192.286" y="1333.57" type="line"/>
			<point x="867.571" y="1333.57" type="line"/>
			<point x="867.571" y="868.857" type="line"/>
			<point x="646.714" y="868.857" type="line" smooth="yes"/>
			<point x="308.857" y="868.857"/>
			<point x="104.143" y="720.429"/>
			<point x="104.143" y="417.286" type="curve" smooth="yes"/>
			<point x="104.143" y="126.714"/>
			<point x="287.857" y="0"/>
		</contour>
		<contour>
			<point x="636.429" y="125.857" type="line" smooth="yes"/>
			<point x="376.714" y="125.857"/>
			<point x="256.286" y="213.429"/>
			<point x="256.286" y="420.429" type="curve" smooth="yes"/>
			<point x="256.286" y="662.571"/>
			<point x="417.857" y="742.286"/>
			<point x="651.286" y="742.286" type="curve" smooth="yes"/>
			<point x="867.571" y="742.286" type="line"/>
			<point x="867.571" y="125.857" type="line"/>
		</contour>
	</outline>
	<anchor name="bottom" x="615.429" y="0"/>
	<anchor name="top" x="615.429" y="1462"/>
</glyph>
<glyph name="uni018C" format="2">
	<unicode hex="018C"/>
	<advance width="1233"/>
	<outline>
		<contour>
			<point x="552.286" y="-20" type="curve" smooth="yes"/>
			<point x="752.714" y="-20"/>
			<point x="859.286" y="83.4286"/>
			<point x="908.286" y="203.571" type="curve"/>
			<point x="915.571" y="203.571" type="line"/>
			<point x="939.857" y="0" type="line"/>
			<point x="1060.57" y="0" type="line"/>
			<point x="1060.57" y="1556" type="line"/>
			<point x="228.857" y="1556" type="line"/>
			<point x="228.857" y="1435.57" type="line"/>
			<point x="908.286" y="1435.57" type="line"/>
			<point x="908.286" y="1132.57" type="line" smooth="yes"/>
			<point x="908.286" y="1044.86"/>
			<point x="917.143" y="938.286"/>
			<point x="920.143" y="883.143" type="curve"/>
			<point x="913.143" y="883.143" type="line"/>
			<point x="867.571" y="1005.57"/>
			<point x="754.143" y="1107.71"/>
			<point x="567.429" y="1107.71" type="curve" smooth="yes"/>
			<point x="280.714" y="1107.71"/>
			<point x="109.286" y="903.286"/>
			<point x="109.286" y="534" type="curve" smooth="yes"/>
			<point x="109.286" y="173.429"/>
			<point x="264.571" y="-20"/>
		</contour>
		<contour>
			<point x="596.857" y="105.857" type="curve" smooth="yes"/>
			<point x="373.571" y="105.857"/>
			<point x="263.143" y="247.857"/>
			<point x="263.143" y="532.286" type="curve" smooth="yes"/>
			<point x="263.143" y="829.143"/>
			<point x="388.571" y="980.714"/>
			<point x="606.571" y="980.714" type="curve" smooth="yes"/>
			<point x="820" y="980.714"/>
			<point x="916.571" y="826.571"/>
			<point x="916.571" y="549" type="curve" smooth="yes"/>
			<point x="916.571" y="533.571" type="line"/>
			<point x="914.857" y="259.286"/>
			<point x="825.714" y="105.857"/>
		</contour>
	</outline>
	<anchor name="bottom" x="617.429" y="0"/>
	<anchor name="top" x="617.429" y="1556"/>
</glyph>
<glyph name="uni0190" format="2">
	<unicode hex="0190"/>
	<advance width="1165"/>
	<outline>
		<contour>
			<point x="641.571" y="1484.14" type="curve" smooth="yes"/>
			<point x="346.857" y="1484.14"/>
			<point x="159.429" y="1335"/>
			<point x="159.429" y="1100.86" type="curve" smooth="yes"/>
			<point x="159.429" y="885.857"/>
			<point x="285.571" y="796.714"/>
			<point x="432" y="764.571" type="curve"/>
			<point x="432" y="760" type="line"/>
			<point x="234.571" y="723"/>
			<point x="103.286" y="597.143"/>
			<point x="103.286" y="387.286" type="curve" smooth="yes"/>
			<point x="103.286" y="133"/>
			<point x="272.714" y="-21.4286"/>
			<point x="618.857" y="-21.4286" type="curve" smooth="yes"/>
			<point x="812" y="-21.4286"/>
			<point x="967.429" y="19"/>
			<point x="1074.86" y="68" type="curve"/>
			<point x="1074.86" y="203.571" type="line"/>
			<point x="965.143" y="145.429"/>
			<point x="802.571" y="104.714"/>
			<point x="647.429" y="104.714" type="curve" smooth="yes"/>
			<point x="381" y="104.714"/>
			<point x="256" y="206.143"/>
			<point x="256" y="401.571" type="curve" smooth="yes"/>
			<point x="256" y="598"/>
			<point x="411.143" y="698.143"/>
			<point x="700.143" y="698.143" type="curve" smooth="yes"/>
			<point x="884.857" y="698.143" type="line"/>
			<point x="884.857" y="822.286" type="line"/>
			<point x="708.429" y="822.286" type="line" smooth="yes"/>
			<point x="413.143" y="822.286"/>
			<point x="309.286" y="916.714"/>
			<point x="309.286" y="1088.57" type="curve" smooth="yes"/>
			<point x="309.286" y="1257.29"/>
			<point x="447" y="1356.29"/>
			<point x="655.571" y="1356.29" type="curve" smooth="yes"/>
			<point x="808.857" y="1356.29"/>
			<point x="921.571" y="1309.43"/>
			<point x="1017.57" y="1253.29" type="curve"/>
			<point x="1083.14" y="1362.29" type="line"/>
			<point x="970.571" y="1430.29"/>
			<point x="837.286" y="1484.14"/>
		</contour>
	</outline>
	<anchor name="bottom" x="582.429" y="0"/>
	<anchor name="top" x="582.429" y="1462"/>
</glyph>
<glyph name="florin" format="2">
	<unicode hex="0192"/>
	<advance width="1158"/>
	<outline>
		<contour>
			<point x="795" y="1507" type="curve" smooth="yes"/>
			<point x="570.571" y="1507"/>
			<point x="470.571" y="1378.86"/>
			<point x="470.571" y="1122.86" type="curve" smooth="yes"/>
			<point x="470.571" y="979.429" type="line"/>
			<point x="285.714" y="947" type="line"/>
			<point x="285.714" y="860" type="line"/>
			<point x="468.286" y="860" type="line"/>
			<point x="468.286" y="-146.286" type="line" smooth="yes"/>
			<point x="468.286" y="-288.857"/>
			<point x="415.857" y="-365.714"/>
			<point x="305.714" y="-365.714" type="curve" smooth="yes"/>
			<point x="255.714" y="-365.714"/>
			<point x="217.857" y="-358.286"/>
			<point x="175.429" y="-346.286" type="curve"/>
			<point x="175.429" y="-470.143" type="line"/>
			<point x="211.571" y="-480.429"/>
			<point x="269.429" y="-492"/>
			<point x="336.857" y="-492" type="curve" smooth="yes"/>
			<point x="521.286" y="-492"/>
			<point x="617.857" y="-362.143"/>
			<point x="617.857" y="-167.571" type="curve" smooth="yes"/>
			<point x="617.857" y="860" type="line"/>
			<point x="894.571" y="860" type="line"/>
			<point x="894.571" y="980.857" type="line"/>
			<point x="617.857" y="980.857" type="line"/>
			<point x="617.857" y="1110.57" type="line" smooth="yes"/>
			<point x="617.857" y="1306.14"/>
			<point x="682.429" y="1388.57"/>
			<point x="822.429" y="1388.57" type="curve" smooth="yes"/>
			<point x="879.571" y="1388.57"/>
			<point x="929.429" y="1379.29"/>
			<point x="976.429" y="1363.57" type="curve"/>
			<point x="1006.71" y="1475.14" type="line"/>
			<point x="940.286" y="1496.14"/>
			<point x="869.286" y="1507"/>
		</contour>
	</outline>
	<anchor name="bottom" x="579.143" y="-492"/>
	<anchor name="top" x="742.286" y="1507"/>
</glyph>
<glyph name="uni0199" format="2">
	<unicode hex="0199"/>
	<advance width="1063"/>
	<outline>
		<contour>
			<point x="473.714" y="1565.86" type="curve" smooth="yes"/>
			<point x="286.857" y="1565.86"/>
			<point x="174.286" y="1459.43"/>
			<point x="174.286" y="1247.43" type="curve" smooth="yes"/>
			<point x="174.286" y="0" type="line"/>
			<point x="326.286" y="0" type="line"/>
			<point x="326.286" y="345.714" type="line"/>
			<point x="503.429" y="531.429" type="line"/>
			<point x="894.429" y="0" type="line"/>
			<point x="1070" y="0" type="line"/>
			<point x="605.571" y="622" type="line"/>
			<point x="1034.14" y="1095.86" type="line"/>
			<point x="857.286" y="1095.86" type="line"/>
			<point x="442.286" y="635.571" type="line"/>
			<point x="396.143" y="586.286"/>
			<point x="357.143" y="539"/>
			<point x="322.857" y="490.857" type="curve"/>
			<point x="318.857" y="490.857" type="line"/>
			<point x="323.429" y="602.429"/>
			<point x="326.286" y="705.286"/>
			<point x="326.286" y="819.714" type="curve" smooth="yes"/>
			<point x="326.286" y="1241.43" type="line" smooth="yes"/>
			<point x="326.286" y="1379.14"/>
			<point x="385" y="1439.29"/>
			<point x="491.714" y="1439.29" type="curve" smooth="yes"/>
			<point x="529.571" y="1439.29"/>
			<point x="562.286" y="1432.71"/>
			<point x="582.286" y="1427.57" type="curve"/>
			<point x="582.286" y="1548.86" type="line"/>
			<point x="560.857" y="1556.43"/>
			<point x="517" y="1565.86"/>
		</contour>
	</outline>
	<anchor name="bottom" x="531.571" y="0"/>
	<anchor name="top" x="531.571" y="1565.86"/>
</glyph>
<glyph name="uni019C" format="2">
	<unicode hex="019C"/>
	<advance width="2024"/>
	<outline>
		<contour>
			<point x="568.143" y="-20" type="curve" smooth="yes"/>
			<point x="772.143" y="-20"/>
			<point x="891.857" y="68.8571"/>
			<point x="951.571" y="205.286" type="curve"/>
			<point x="959.857" y="205.286" type="line"/>
			<point x="1011.71" y="67.7143"/>
			<point x="1112" y="-20"/>
			<point x="1311.29" y="-20" type="curve" smooth="yes"/>
			<point x="1528.14" y="-20"/>
			<point x="1634.71" y="84.2857"/>
			<point x="1687.71" y="195.571" type="curve"/>
			<point x="1696.86" y="195.571" type="line"/>
			<point x="1718.43" y="0" type="line"/>
			<point x="1835.71" y="0" type="line"/>
			<point x="1835.71" y="1462" type="line"/>
			<point x="1681.43" y="1462" type="line"/>
			<point x="1681.43" y="526.714" type="line" smooth="yes"/>
			<point x="1681.43" y="227.571"/>
			<point x="1558.71" y="111.571"/>
			<point x="1349.57" y="111.571" type="curve" smooth="yes"/>
			<point x="1175.43" y="111.571"/>
			<point x="1082.57" y="198.143"/>
			<point x="1082.57" y="435.714" type="curve" smooth="yes"/>
			<point x="1082.57" y="1462" type="line"/>
			<point x="929.143" y="1462" type="line"/>
			<point x="929.143" y="518.714" type="line" smooth="yes"/>
			<point x="929.143" y="224.143"/>
			<point x="812.143" y="111.571"/>
			<point x="597.286" y="111.571" type="curve" smooth="yes"/>
			<point x="424.286" y="111.571"/>
			<point x="330.143" y="198.714"/>
			<point x="330.143" y="435.714" type="curve" smooth="yes"/>
			<point x="330.143" y="1462" type="line"/>
			<point x="177.143" y="1462" type="line"/>
			<point x="177.143" y="397.857" type="line" smooth="yes"/>
			<point x="177.143" y="94"/>
			<point x="323.857" y="-20"/>
		</contour>
	</outline>
	<anchor name="bottom" x="1013" y="0"/>
	<anchor name="top" x="1013" y="1462"/>
</glyph>
<glyph name="uni019D" format="2">
	<unicode hex="019D"/>
	<advance width="1521"/>
	<outline>
		<contour>
			<point x="81.8571" y="-367" type="curve" smooth="yes"/>
			<point x="230.571" y="-367"/>
			<point x="340" y="-277.857"/>
			<point x="340" y="-89.7143" type="curve" smooth="yes"/>
			<point x="340" y="897.429" type="line" smooth="yes"/>
			<point x="340" y="1027.57"/>
			<point x="336" y="1142.71"/>
			<point x="332.857" y="1249.29" type="curve"/>
			<point x="338" y="1249.29" type="line"/>
			<point x="1141.71" y="0" type="line"/>
			<point x="1319.29" y="0" type="line"/>
			<point x="1319.29" y="1462" type="line"/>
			<point x="1178.43" y="1462" type="line"/>
			<point x="1178.43" y="562.571" type="line" smooth="yes"/>
			<point x="1178.43" y="452"/>
			<point x="1182.43" y="305"/>
			<point x="1184.43" y="219.857" type="curve"/>
			<point x="1179.86" y="219.857" type="line"/>
			<point x="378.286" y="1462" type="line"/>
			<point x="200.429" y="1462" type="line"/>
			<point x="200.429" y="-79.2857" type="line" smooth="yes"/>
			<point x="200.429" y="-183.143"/>
			<point x="149.714" y="-241.714"/>
			<point x="68.8571" y="-241.714" type="curve" smooth="yes"/>
			<point x="21.1429" y="-241.714"/>
			<point x="-15.1429" y="-231.714"/>
			<point x="-47" y="-220.714" type="curve"/>
			<point x="-47" y="-345.571" type="line"/>
			<point x="-15.1429" y="-356.143"/>
			<point x="23.7143" y="-367"/>
		</contour>
	</outline>
	<anchor name="bottom" x="760.429" y="-367"/>
	<anchor name="top" x="760.429" y="1462"/>
</glyph>
<glyph name="Ohorn" format="2">
	<unicode hex="01A0"/>
	<advance width="1595"/>
	<outline>
		<contour>
			<point x="1445.86" y="733" type="curve" smooth="yes"/>
			<point x="1445.86" y="905.143"/>
			<point x="1414.57" y="1048.43"/>
			<point x="1359" y="1163.43" type="curve"/>
			<point x="1489.57" y="1213.86"/>
			<point x="1581.29" y="1314.43"/>
			<point x="1598.43" y="1542.57" type="curve"/>
			<point x="1587.29" y="1556" type="line"/>
			<point x="1448" y="1556" type="line"/>
			<point x="1448" y="1372"/>
			<point x="1378" y="1298.86"/>
			<point x="1300.86" y="1259.29" type="curve"/>
			<point x="1192.14" y="1405"/>
			<point x="1021.43" y="1485"/>
			<point x="793.143" y="1485" type="curve" smooth="yes"/>
			<point x="352.286" y="1485"/>
			<point x="121.857" y="1180"/>
			<point x="121.857" y="735" type="curve" smooth="yes"/>
			<point x="121.857" y="289"/>
			<point x="338.857" y="-20"/>
			<point x="782.857" y="-20" type="curve" smooth="yes"/>
			<point x="1234.86" y="-20"/>
			<point x="1445.86" y="289.571"/>
		</contour>
		<contour>
			<point x="280" y="734.429" type="curve" smooth="yes"/>
			<point x="280" y="1099"/>
			<point x="445.286" y="1356"/>
			<point x="792" y="1356" type="curve" smooth="yes"/>
			<point x="1116.43" y="1356"/>
			<point x="1287.71" y="1126.86"/>
			<point x="1287.71" y="733" type="curve" smooth="yes"/>
			<point x="1287.71" y="361.857"/>
			<point x="1132.86" y="110.429"/>
			<point x="784.286" y="110.429" type="curve" smooth="yes"/>
			<point x="439.571" y="110.429"/>
			<point x="280" y="366.857"/>
		</contour>
	</outline>
	<anchor name="bottom" x="782.857" y="0"/>
	<anchor name="top" x="785.143" y="1462"/>
</glyph>
<glyph name="ohorn" format="2">
	<unicode hex="01A1"/>
	<advance width="1253"/>
	<outline>
		<contour>
			<point x="1101.29" y="549" type="curve" smooth="yes"/>
			<point x="1101.29" y="676.857"/>
			<point x="1076.86" y="790.714"/>
			<point x="1029.29" y="880.429" type="curve"/>
			<point x="1179.86" y="933.143"/>
			<point x="1252.43" y="1051.71"/>
			<point x="1264.14" y="1250.14" type="curve"/>
			<point x="1253" y="1263.57" type="line"/>
			<point x="1113.14" y="1263.57" type="line"/>
			<point x="1113.14" y="1085.86"/>
			<point x="1052" y="1001.86"/>
			<point x="973.429" y="969.429" type="curve"/>
			<point x="892.286" y="1062.29"/>
			<point x="771.143" y="1116.57"/>
			<point x="614.286" y="1116.57" type="curve" smooth="yes"/>
			<point x="298.143" y="1116.57"/>
			<point x="111" y="901.857"/>
			<point x="111" y="549" type="curve" smooth="yes"/>
			<point x="111" y="210.714"/>
			<point x="287.714" y="-20"/>
			<point x="604" y="-20" type="curve" smooth="yes"/>
			<point x="933.857" y="-20"/>
			<point x="1101.29" y="213.571"/>
		</contour>
		<contour>
			<point x="264.286" y="549" type="curve" smooth="yes"/>
			<point x="264.286" y="829.714"/>
			<point x="386.286" y="991.286"/>
			<point x="613.143" y="991.286" type="curve" smooth="yes"/>
			<point x="854.143" y="991.286"/>
			<point x="947.571" y="803.286"/>
			<point x="947.571" y="549" type="curve" smooth="yes"/>
			<point x="947.571" y="284.286"/>
			<point x="842.857" y="105.286"/>
			<point x="605.143" y="105.286" type="curve" smooth="yes"/>
			<point x="372.714" y="105.286"/>
			<point x="264.286" y="281.429"/>
		</contour>
	</outline>
	<anchor name="bottom" x="601.714" y="0"/>
	<anchor name="top" x="603.429" y="1095.86"/>
</glyph>
<glyph name="uni01A3" format="2">
	<unicode hex="01A3"/>
	<advance width="1753"/>
	<outline>
		<contour>
			<point x="1084.71" y="549" type="curve" smooth="yes"/>
			<point x="1084.71" y="684.857"/>
			<point x="1055.43" y="807.714"/>
			<point x="997.714" y="898.571" type="curve"/>
			<point x="1049" y="955.143"/>
			<point x="1115.57" y="990.714"/>
			<point x="1216.57" y="990.714" type="curve" smooth="yes"/>
			<point x="1365.43" y="990.714"/>
			<point x="1440.29" y="895.714"/>
			<point x="1440.29" y="702.429" type="curve" smooth="yes"/>
			<point x="1440.29" y="-492" type="line"/>
			<point x="1591.57" y="-492" type="line"/>
			<point x="1591.57" y="737.571" type="line" smooth="yes"/>
			<point x="1591.57" y="990.714"/>
			<point x="1465.71" y="1116.57"/>
			<point x="1251.71" y="1116.57" type="curve" smooth="yes"/>
			<point x="1110.71" y="1116.57"/>
			<point x="1011" y="1061.43"/>
			<point x="941.857" y="983.286" type="curve"/>
			<point x="861.143" y="1070.71"/>
			<point x="750.143" y="1116.57"/>
			<point x="605.143" y="1116.57" type="curve" smooth="yes"/>
			<point x="296.429" y="1116.57"/>
			<point x="109.286" y="904.714"/>
			<point x="109.286" y="549" type="curve" smooth="yes"/>
			<point x="109.286" y="203.857"/>
			<point x="284" y="-20"/>
			<point x="594.571" y="-20" type="curve" smooth="yes"/>
			<point x="917" y="-20"/>
			<point x="1084.71" y="210.143"/>
		</contour>
		<contour>
			<point x="264.286" y="549" type="curve" smooth="yes"/>
			<point x="264.286" y="829.714"/>
			<point x="381.714" y="990.143"/>
			<point x="603.714" y="990.143" type="curve" smooth="yes"/>
			<point x="838.429" y="990.143"/>
			<point x="929" y="806.143"/>
			<point x="929" y="549" type="curve" smooth="yes"/>
			<point x="929" y="280.857"/>
			<point x="827.143" y="106.429"/>
			<point x="596" y="106.429" type="curve" smooth="yes"/>
			<point x="369.857" y="106.429"/>
			<point x="264.286" y="278.571"/>
		</contour>
	</outline>
	<anchor name="bottom" x="890" y="-492"/>
	<anchor name="top" x="890" y="1095.86"/>
</glyph>
<glyph name="uni01A4" format="2">
	<unicode hex="01A4"/>
	<advance width="1400"/>
	<outline>
		<contour>
			<point x="386.286" y="0" type="line"/>
			<point x="539.429" y="0" type="line"/>
			<point x="539.429" y="584.429" type="line"/>
			<point x="751.714" y="584.429" type="line" smooth="yes"/>
			<point x="1117" y="584.429"/>
			<point x="1295.43" y="748.143"/>
			<point x="1295.43" y="1041.86" type="curve" smooth="yes"/>
			<point x="1295.43" y="1327.43"/>
			<point x="1122" y="1462"/>
			<point x="778" y="1462" type="curve" smooth="yes"/>
			<point x="339.571" y="1462" type="line" smooth="yes"/>
			<point x="112.429" y="1462"/>
			<point x="16" y="1330"/>
			<point x="16" y="1169.43" type="curve" smooth="yes"/>
			<point x="16" y="1120.43"/>
			<point x="25.8571" y="1077.43"/>
			<point x="37.2857" y="1052" type="curve"/>
			<point x="162.857" y="1052" type="line"/>
			<point x="154.857" y="1070.86"/>
			<point x="142.571" y="1111.29"/>
			<point x="142.571" y="1156.86" type="curve" smooth="yes"/>
			<point x="142.571" y="1261.29"/>
			<point x="200.714" y="1332.14"/>
			<point x="339" y="1332.14" type="curve" smooth="yes"/>
			<point x="386.286" y="1332.14" type="line"/>
		</contour>
		<contour>
			<point x="539.429" y="714.571" type="line"/>
			<point x="539.429" y="1332.14" type="line"/>
			<point x="767.143" y="1332.14" type="line" smooth="yes"/>
			<point x="1021.29" y="1332.14"/>
			<point x="1140.71" y="1244.43"/>
			<point x="1140.71" y="1037" type="curve" smooth="yes"/>
			<point x="1140.71" y="792.857"/>
			<point x="977.714" y="714.571"/>
			<point x="739.429" y="714.571" type="curve" smooth="yes"/>
		</contour>
	</outline>
	<anchor name="bottom" x="705.429" y="0"/>
	<anchor name="top" x="705.429" y="1462"/>
</glyph>
<glyph name="uni01A8" format="2">
	<unicode hex="01A8"/>
	<advance width="969"/>
	<outline>
		<contour>
			<point x="478.429" y="1116.57" type="curve" smooth="yes"/>
			<point x="344.571" y="1116.57"/>
			<point x="215.571" y="1089.57"/>
			<point x="111.857" y="1044.86" type="curve"/>
			<point x="154.714" y="928.143" type="line"/>
			<point x="243.286" y="969.714"/>
			<point x="359.429" y="998.143"/>
			<point x="463.857" y="998.143" type="curve" smooth="yes"/>
			<point x="618.429" y="998.143"/>
			<point x="710.286" y="946.429"/>
			<point x="710.286" y="835.143" type="curve" smooth="yes"/>
			<point x="710.286" y="718.286"/>
			<point x="598.571" y="681.857"/>
			<point x="422.286" y="620.571" type="curve" smooth="yes"/>
			<point x="230.857" y="553.143"/>
			<point x="73.7143" y="478.143"/>
			<point x="73.7143" y="280" type="curve" smooth="yes"/>
			<point x="73.7143" y="84.2857"/>
			<point x="204.857" y="-20"/>
			<point x="489.571" y="-20" type="curve" smooth="yes"/>
			<point x="637.714" y="-20"/>
			<point x="772.857" y="10.8571"/>
			<point x="864.857" y="55.2857" type="curve"/>
			<point x="864.857" y="176" type="line"/>
			<point x="755.286" y="124.429"/>
			<point x="619.143" y="97"/>
			<point x="501" y="97" type="curve" smooth="yes"/>
			<point x="302.714" y="97"/>
			<point x="224.714" y="159.571"/>
			<point x="224.714" y="279.143" type="curve" smooth="yes"/>
			<point x="224.714" y="396"/>
			<point x="321.714" y="445"/>
			<point x="527" y="515.857" type="curve" smooth="yes"/>
			<point x="724.714" y="583.714"/>
			<point x="862.429" y="650.714"/>
			<point x="862.429" y="839.714" type="curve" smooth="yes"/>
			<point x="862.429" y="1027.43"/>
			<point x="713.143" y="1116.57"/>
		</contour>
	</outline>
	<anchor name="bottom" x="484.714" y="0"/>
	<anchor name="top" x="484.714" y="1095.86"/>
</glyph>
<glyph name="uni01AA" format="2">
	<unicode hex="01AA"/>
	<advance width="773"/>
	<outline>
		<contour>
			<point x="253.429" y="1571" type="curve" smooth="yes"/>
			<point x="78.8571" y="1571"/>
			<point x="-20" y="1468.57"/>
			<point x="-20" y="1336.14" type="curve" smooth="yes"/>
			<point x="-20" y="1183.14"/>
			<point x="82" y="1095.71"/>
			<point x="260.571" y="1095.71" type="curve" smooth="yes"/>
			<point x="393.143" y="1095.71" type="line"/>
			<point x="393.143" y="-170.429" type="line" smooth="yes"/>
			<point x="393.143" y="-396.143"/>
			<point x="513.143" y="-487"/>
			<point x="697.429" y="-487" type="curve" smooth="yes"/>
			<point x="769.429" y="-487"/>
			<point x="831.429" y="-473.571"/>
			<point x="873.286" y="-455" type="curve"/>
			<point x="873.286" y="-335.429" type="line"/>
			<point x="830.286" y="-351.143"/>
			<point x="785.143" y="-361.429"/>
			<point x="723.714" y="-361.429" type="curve" smooth="yes"/>
			<point x="615.286" y="-361.429"/>
			<point x="544.429" y="-305"/>
			<point x="544.429" y="-161.429" type="curve" smooth="yes"/>
			<point x="544.429" y="1261.71" type="line" smooth="yes"/>
			<point x="544.429" y="1449.14"/>
			<point x="449.857" y="1571"/>
		</contour>
		<contour>
			<point x="233.571" y="1476.57" type="curve" smooth="yes"/>
			<point x="331.714" y="1476.57"/>
			<point x="393.143" y="1418.86"/>
			<point x="393.143" y="1287.14" type="curve" smooth="yes"/>
			<point x="393.143" y="1186.71" type="line"/>
			<point x="270.571" y="1186.71" type="line" smooth="yes"/>
			<point x="143.143" y="1186.71"/>
			<point x="83" y="1246.43"/>
			<point x="83" y="1336.43" type="curve" smooth="yes"/>
			<point x="83" y="1416.57"/>
			<point x="138" y="1476.57"/>
		</contour>
	</outline>
	<anchor name="bottom" x="387.143" y="-487"/>
	<anchor name="top" x="387.143" y="1571"/>
</glyph>
<glyph name="uni01AB" format="2">
	<unicode hex="01AB"/>
	<advance width="747"/>
	<outline>
		<contour>
			<point x="441.571" y="-492" type="curve" smooth="yes"/>
			<point x="593.143" y="-492"/>
			<point x="685.429" y="-402.286"/>
			<point x="685.429" y="-221.143" type="curve" smooth="yes"/>
			<point x="685.429" y="136.714" type="line"/>
			<point x="633" y="118.143"/>
			<point x="579.143" y="105.857"/>
			<point x="511.429" y="105.857" type="curve" smooth="yes"/>
			<point x="385.857" y="105.857"/>
			<point x="340.571" y="179.857"/>
			<point x="340.571" y="325.857" type="curve" smooth="yes"/>
			<point x="340.571" y="975.143" type="line"/>
			<point x="680.857" y="975.143" type="line"/>
			<point x="680.857" y="1095.86" type="line"/>
			<point x="340.571" y="1095.86" type="line"/>
			<point x="340.571" y="1352.29" type="line"/>
			<point x="236.143" y="1352.29" type="line"/>
			<point x="196.286" y="1094.43" type="line"/>
			<point x="30.5714" y="1053.29" type="line"/>
			<point x="30.5714" y="975.143" type="line"/>
			<point x="188.571" y="975.143" type="line"/>
			<point x="188.571" y="311.571" type="line" smooth="yes"/>
			<point x="188.571" y="83.7143"/>
			<point x="283.714" y="-20"/>
			<point x="468.571" y="-20" type="curve" smooth="yes"/>
			<point x="504.143" y="-20"/>
			<point x="530.857" y="-17.1429"/>
			<point x="555.571" y="-11.4286" type="curve"/>
			<point x="555.571" y="-218.286" type="line" smooth="yes"/>
			<point x="555.571" y="-330.143"/>
			<point x="504.143" y="-376"/>
			<point x="418.143" y="-376" type="curve" smooth="yes"/>
			<point x="373.714" y="-376"/>
			<point x="335" y="-366.571"/>
			<point x="304.571" y="-352.857" type="curve"/>
			<point x="304.571" y="-467.286" type="line"/>
			<point x="337.286" y="-481"/>
			<point x="381.429" y="-492"/>
		</contour>
	</outline>
	<anchor name="bottom" x="374.857" y="-492"/>
	<anchor name="top" x="374.857" y="1352.29"/>
</glyph>
<glyph name="uni01AC" format="2">
	<unicode hex="01AC"/>
	<advance width="1108"/>
	<outline>
		<contour>
			<point x="501.286" y="0" type="line"/>
			<point x="655.286" y="0" type="line"/>
			<point x="655.286" y="1330.71" type="line"/>
			<point x="1106.57" y="1330.71" type="line"/>
			<point x="1106.57" y="1462" type="line"/>
			<point x="346.714" y="1462" type="line" smooth="yes"/>
			<point x="108.143" y="1462"/>
			<point x="14.5714" y="1327.14"/>
			<point x="14.5714" y="1168" type="curve" smooth="yes"/>
			<point x="14.5714" y="1113.29"/>
			<point x="28.7143" y="1071.71"/>
			<point x="38.7143" y="1048.43" type="curve"/>
			<point x="167.143" y="1048.43" type="line"/>
			<point x="159.143" y="1068"/>
			<point x="144" y="1107"/>
			<point x="144" y="1156.57" type="curve" smooth="yes"/>
			<point x="144" y="1259.29"/>
			<point x="203.571" y="1330.71"/>
			<point x="346.143" y="1330.71" type="curve" smooth="yes"/>
			<point x="501.286" y="1330.71" type="line"/>
		</contour>
	</outline>
	<anchor name="bottom" x="554.571" y="0"/>
	<anchor name="top" x="554.571" y="1462"/>
</glyph>
<glyph name="uni01AD" format="2">
	<unicode hex="01AD"/>
	<advance width="747"/>
	<outline>
		<contour>
			<point x="469.571" y="1567" type="curve" smooth="yes"/>
			<point x="301.714" y="1567"/>
			<point x="190" y="1479.57"/>
			<point x="190" y="1297.57" type="curve" smooth="yes"/>
			<point x="190" y="1088.71" type="line"/>
			<point x="30.5714" y="1053.29" type="line"/>
			<point x="30.5714" y="975.143" type="line"/>
			<point x="188.571" y="975.143" type="line"/>
			<point x="188.571" y="311.571" type="line" smooth="yes"/>
			<point x="188.571" y="83.7143"/>
			<point x="280.857" y="-20"/>
			<point x="475.143" y="-20" type="curve" smooth="yes"/>
			<point x="565.714" y="-20"/>
			<point x="632.429" y="-3.42857"/>
			<point x="685.429" y="16.5714" type="curve"/>
			<point x="685.429" y="136.714" type="line"/>
			<point x="633" y="118.143"/>
			<point x="579.143" y="105.857"/>
			<point x="511.429" y="105.857" type="curve" smooth="yes"/>
			<point x="385.857" y="105.857"/>
			<point x="340.571" y="179.857"/>
			<point x="340.571" y="314.143" type="curve" smooth="yes"/>
			<point x="340.571" y="975.143" type="line"/>
			<point x="680.857" y="975.143" type="line"/>
			<point x="680.857" y="1095.86" type="line"/>
			<point x="340.571" y="1095.86" type="line"/>
			<point x="340.571" y="1289.57" type="line" smooth="yes"/>
			<point x="340.571" y="1393.43"/>
			<point x="392.429" y="1442.29"/>
			<point x="481.286" y="1442.29" type="curve" smooth="yes"/>
			<point x="534.571" y="1442.29"/>
			<point x="583.571" y="1429.86"/>
			<point x="615.429" y="1416.14" type="curve"/>
			<point x="615.429" y="1540" type="line"/>
			<point x="585.143" y="1552.57"/>
			<point x="536.143" y="1567"/>
		</contour>
	</outline>
	<anchor name="bottom" x="374.857" y="0"/>
	<anchor name="top" x="374.857" y="1567"/>
</glyph>
<glyph name="uni01AE" format="2">
	<unicode hex="01AE"/>
	<advance width="1092"/>
	<outline>
		<contour>
			<point x="776" y="-379.857" type="curve" smooth="yes"/>
			<point x="833.286" y="-379.857"/>
			<point x="887.143" y="-368.143"/>
			<point x="917.143" y="-355.571" type="curve"/>
			<point x="917.143" y="-234.286" type="line"/>
			<point x="892" y="-244.571"/>
			<point x="852.714" y="-254.571"/>
			<point x="799.429" y="-254.571" type="curve" smooth="yes"/>
			<point x="693.286" y="-254.571"/>
			<point x="621.857" y="-197.857"/>
			<point x="621.857" y="-45.7143" type="curve" smooth="yes"/>
			<point x="621.857" y="1330.71" type="line"/>
			<point x="1073.43" y="1330.71" type="line"/>
			<point x="1073.43" y="1462" type="line"/>
			<point x="18.5714" y="1462" type="line"/>
			<point x="18.5714" y="1330.71" type="line"/>
			<point x="468.714" y="1330.71" type="line"/>
			<point x="468.714" y="-58.1429" type="line" smooth="yes"/>
			<point x="468.714" y="-277.857"/>
			<point x="581.714" y="-379.857"/>
		</contour>
	</outline>
	<anchor name="bottom" x="546.571" y="-379.857"/>
	<anchor name="top" x="546.571" y="1462"/>
</glyph>
<glyph name="Uhorn" format="2">
	<unicode hex="01AF"/>
	<advance width="1568"/>
	<outline>
		<contour>
			<point x="1304.57" y="1462" type="line"/>
			<point x="1153.14" y="1462" type="line"/>
			<point x="1153.14" y="519.143" type="line" smooth="yes"/>
			<point x="1153.14" y="241.429"/>
			<point x="994.286" y="110.429"/>
			<point x="741.286" y="110.429" type="curve" smooth="yes"/>
			<point x="480.857" y="110.429"/>
			<point x="333.429" y="243.571"/>
			<point x="333.429" y="535.714" type="curve" smooth="yes"/>
			<point x="333.429" y="1462" type="line"/>
			<point x="182.143" y="1462" type="line"/>
			<point x="182.143" y="520" type="line" smooth="yes"/>
			<point x="182.143" y="174.286"/>
			<point x="381.286" y="-20"/>
			<point x="736.429" y="-20" type="curve" smooth="yes"/>
			<point x="1082.29" y="-20"/>
			<point x="1304.57" y="169.429"/>
			<point x="1304.57" y="516" type="curve" smooth="yes"/>
			<point x="1304.57" y="1151.71" type="line"/>
			<point x="1527.29" y="1194.14"/>
			<point x="1606.14" y="1324.71"/>
			<point x="1622.14" y="1542.57" type="curve"/>
			<point x="1611" y="1556" type="line"/>
			<point x="1471.14" y="1556" type="line"/>
			<point x="1471.14" y="1374.29"/>
			<point x="1402" y="1288.29"/>
			<point x="1304.57" y="1252.14" type="curve"/>
		</contour>
	</outline>
	<anchor name="bottom" x="738.429" y="0"/>
	<anchor name="top" x="742.429" y="1462"/>
</glyph>
<glyph name="uhorn" format="2">
	<unicode hex="01B0"/>
	<advance width="1313"/>
	<outline>
		<contour>
			<point x="1340.86" y="1263" type="line"/>
			<point x="1201" y="1263" type="line"/>
			<point x="1201" y="1090.71"/>
			<point x="1142.71" y="1000.14"/>
			<point x="1057" y="965.429" type="curve"/>
			<point x="1057" y="1095.86" type="line"/>
			<point x="906.857" y="1095.86" type="line"/>
			<point x="906.857" y="512.714" type="line" smooth="yes"/>
			<point x="906.857" y="237.714"/>
			<point x="782" y="104.714"/>
			<point x="571.857" y="104.714" type="curve" smooth="yes"/>
			<point x="399.429" y="104.714"/>
			<point x="307.571" y="204.143"/>
			<point x="307.571" y="419" type="curve" smooth="yes"/>
			<point x="307.571" y="1095.86" type="line"/>
			<point x="158" y="1095.86" type="line"/>
			<point x="158" y="379.286" type="line" smooth="yes"/>
			<point x="158" y="113.286"/>
			<point x="297.857" y="-20"/>
			<point x="533.857" y="-20" type="curve" smooth="yes"/>
			<point x="736.286" y="-20"/>
			<point x="857.857" y="80.5714"/>
			<point x="911.714" y="202.429" type="curve"/>
			<point x="922.286" y="202.429" type="line"/>
			<point x="942" y="0" type="line"/>
			<point x="1057" y="0" type="line"/>
			<point x="1057" y="864.714" type="line"/>
			<point x="1262.57" y="911.714"/>
			<point x="1337.43" y="1042.71"/>
			<point x="1352.29" y="1249.57" type="curve"/>
		</contour>
	</outline>
	<anchor name="bottom" x="610.857" y="0"/>
	<anchor name="top" x="614.857" y="1095.86"/>
</glyph>
<glyph name="uni01B2" format="2">
	<unicode hex="01B2"/>
	<advance width="1484"/>
	<outline>
		<contour>
			<point x="739.286" y="-20" type="curve" smooth="yes"/>
			<point x="1086.29" y="-20"/>
			<point x="1304.57" y="169.429"/>
			<point x="1304.57" y="534.857" type="curve" smooth="yes"/>
			<point x="1304.57" y="1220.43" type="line" smooth="yes"/>
			<point x="1304.57" y="1385.29"/>
			<point x="1210" y="1483.57"/>
			<point x="1048.43" y="1483.57" type="curve" smooth="yes"/>
			<point x="965.286" y="1483.57"/>
			<point x="904" y="1461.43"/>
			<point x="867.286" y="1442.86" type="curve"/>
			<point x="867.286" y="1315" type="line"/>
			<point x="899.429" y="1331.57"/>
			<point x="949.857" y="1351.71"/>
			<point x="1011.57" y="1351.71" type="curve" smooth="yes"/>
			<point x="1088.71" y="1351.71"/>
			<point x="1153.14" y="1305.71"/>
			<point x="1153.14" y="1192.71" type="curve" smooth="yes"/>
			<point x="1153.14" y="530.286" type="line" smooth="yes"/>
			<point x="1153.14" y="247.714"/>
			<point x="996.571" y="110.429"/>
			<point x="742.429" y="110.429" type="curve" smooth="yes"/>
			<point x="481.429" y="110.429"/>
			<point x="333.429" y="254.143"/>
			<point x="333.429" y="546.857" type="curve" smooth="yes"/>
			<point x="333.429" y="1462" type="line"/>
			<point x="182.143" y="1462" type="line"/>
			<point x="182.143" y="535.143" type="line" smooth="yes"/>
			<point x="182.143" y="174.286"/>
			<point x="382.714" y="-20"/>
		</contour>
	</outline>
	<anchor name="bottom" x="732.143" y="0"/>
	<anchor name="top" x="732.143" y="1462"/>
	<anchor name="topright" x="1443.29" y="1462"/>
</glyph>
<glyph name="uni01B3" format="2">
	<unicode hex="01B3"/>
	<advance width="1218"/>
	<outline>
		<contour>
			<point x="490.286" y="0" type="line"/>
			<point x="641.857" y="0" type="line"/>
			<point x="641.857" y="565.286" type="line"/>
			<point x="956.714" y="1187.14" type="line" smooth="yes"/>
			<point x="1019.43" y="1310"/>
			<point x="1049" y="1353.71"/>
			<point x="1129" y="1353.71" type="curve" smooth="yes"/>
			<point x="1159.14" y="1353.71"/>
			<point x="1187.43" y="1344.43"/>
			<point x="1205.57" y="1335.86" type="curve"/>
			<point x="1205.57" y="1460" type="line"/>
			<point x="1181.71" y="1472.14"/>
			<point x="1139.43" y="1484.43"/>
			<point x="1093" y="1484.43" type="curve" smooth="yes"/>
			<point x="961.429" y="1484.43"/>
			<point x="904.429" y="1400.71"/>
			<point x="851.143" y="1289" type="curve"/>
			<point x="564.286" y="701.429" type="line"/>
			<point x="166.429" y="1462" type="line"/>
			<point x="0" y="1462" type="line"/>
			<point x="490.286" y="556.143" type="line"/>
		</contour>
	</outline>
	<anchor name="bottom" x="599.571" y="0"/>
	<anchor name="top" x="599.571" y="1462"/>
</glyph>
<glyph name="uni01B4" format="2">
	<unicode hex="01B4"/>
	<advance width="1149"/>
	<outline>
		<contour>
			<point x="1016.43" y="1114.29" type="curve" smooth="yes"/>
			<point x="875.429" y="1114.29"/>
			<point x="813.286" y="1020"/>
			<point x="775.714" y="920" type="curve"/>
			<point x="586.429" y="427.714" type="line" smooth="yes"/>
			<point x="547.143" y="324.143"/>
			<point x="521" y="239.857"/>
			<point x="503.429" y="183.714" type="curve"/>
			<point x="498.857" y="183.714" type="line"/>
			<point x="481.143" y="253"/>
			<point x="452.429" y="338.714"/>
			<point x="416" y="438" type="curve" smooth="yes"/>
			<point x="172.143" y="1095.86" type="line"/>
			<point x="8.28571" y="1095.86" type="line"/>
			<point x="433.429" y="12" type="line"/>
			<point x="371.714" y="-152.143" type="line"/>
			<point x="314" y="-311"/>
			<point x="246.143" y="-368.857"/>
			<point x="139.143" y="-368.857" type="curve" smooth="yes"/>
			<point x="99" y="-368.857"/>
			<point x="62.1429" y="-361.429"/>
			<point x="28.2857" y="-350.286" type="curve"/>
			<point x="28.2857" y="-477" type="line"/>
			<point x="65.5714" y="-489.429"/>
			<point x="108.143" y="-496.286"/>
			<point x="151.429" y="-496.286" type="curve" smooth="yes"/>
			<point x="323" y="-496.286"/>
			<point x="428.714" y="-397.429"/>
			<point x="503.857" y="-201.429" type="curve" smooth="yes"/>
			<point x="893" y="813.571" type="line" smooth="yes"/>
			<point x="939.714" y="936.143"/>
			<point x="979.286" y="983"/>
			<point x="1059.29" y="983" type="curve" smooth="yes"/>
			<point x="1090" y="983"/>
			<point x="1114.86" y="975.429"/>
			<point x="1136.14" y="968" type="curve"/>
			<point x="1136.14" y="1091.86" type="line"/>
			<point x="1111.71" y="1104.86"/>
			<point x="1061.86" y="1114.29"/>
		</contour>
	</outline>
	<anchor name="bottom" x="538.143" y="-496.286"/>
	<anchor name="top" x="538.143" y="1095.86"/>
</glyph>
<glyph name="uni01B5" format="2">
	<unicode hex="01B5"/>
	<advance width="1185"/>
	<outline>
		<contour>
			<point x="154.571" y="812.571" type="line"/>
			<point x="154.571" y="681.857" type="line"/>
			<point x="460.429" y="681.857" type="line"/>
			<point x="62.8571" y="99.5714" type="line"/>
			<point x="62.8571" y="0" type="line"/>
			<point x="1117.14" y="0" type="line"/>
			<point x="1117.14" y="130.143" type="line"/>
			<point x="252.286" y="130.143" type="line"/>
			<point x="626.857" y="681.857" type="line"/>
			<point x="1013.29" y="681.857" type="line"/>
			<point x="1013.29" y="812.571" type="line"/>
			<point x="718.429" y="812.571" type="line"/>
			<point x="1094.14" y="1362.43" type="line"/>
			<point x="1094.14" y="1462" type="line"/>
			<point x="105.857" y="1462" type="line"/>
			<point x="105.857" y="1332.14" type="line"/>
			<point x="905.286" y="1332.14" type="line"/>
			<point x="551.429" y="812.571" type="line"/>
		</contour>
	</outline>
	<anchor name="bottom" x="592.571" y="0"/>
	<anchor name="top" x="592.571" y="1462"/>
</glyph>
<glyph name="uni01B8" format="2">
	<unicode hex="01B8"/>
	<advance width="1158"/>
	<outline>
		<contour>
			<point x="631.714" y="-20" type="curve" smooth="yes"/>
			<point x="809.143" y="-20"/>
			<point x="950.714" y="16"/>
			<point x="1064" y="66.2857" type="curve"/>
			<point x="1064" y="203" type="line"/>
			<point x="948.429" y="145.714"/>
			<point x="791.714" y="105.857"/>
			<point x="642.286" y="105.857" type="curve" smooth="yes"/>
			<point x="377.571" y="105.857"/>
			<point x="246.286" y="218.286"/>
			<point x="246.286" y="417.571" type="curve" smooth="yes"/>
			<point x="246.286" y="613"/>
			<point x="377.857" y="716.857"/>
			<point x="703.571" y="716.857" type="curve" smooth="yes"/>
			<point x="791.286" y="716.857" type="line"/>
			<point x="791.286" y="832.429" type="line"/>
			<point x="353.857" y="1332.14" type="line"/>
			<point x="1035.29" y="1332.14" type="line"/>
			<point x="1035.29" y="1462" type="line"/>
			<point x="146.857" y="1462" type="line"/>
			<point x="146.857" y="1361.29" type="line"/>
			<point x="617" y="828.714" type="line"/>
			<point x="272.429" y="819"/>
			<point x="92.8571" y="681.429"/>
			<point x="92.8571" y="408.143" type="curve" smooth="yes"/>
			<point x="92.8571" y="146.714"/>
			<point x="278.571" y="-20"/>
		</contour>
	</outline>
	<anchor name="bottom" x="578.714" y="0"/>
	<anchor name="top" x="578.714" y="1462"/>
</glyph>
<glyph name="uni01B9" format="2">
	<unicode hex="01B9"/>
	<advance width="1011"/>
	<outline>
		<contour>
			<point x="565.714" y="-492" type="curve"/>
			<point x="721.286" y="-492"/>
			<point x="841.714" y="-465.286"/>
			<point x="950" y="-418.857" type="curve"/>
			<point x="950" y="-283.571" type="line"/>
			<point x="840.857" y="-336.286"/>
			<point x="707.286" y="-364.571"/>
			<point x="582" y="-364.571" type="curve" smooth="yes"/>
			<point x="332.571" y="-364.571"/>
			<point x="213.714" y="-228.143"/>
			<point x="213.714" y="-28.7143" type="curve" smooth="yes"/>
			<point x="213.714" y="193.571"/>
			<point x="353.143" y="320"/>
			<point x="697.857" y="320" type="curve" smooth="yes"/>
			<point x="786.429" y="320" type="line"/>
			<point x="786.429" y="431.571" type="line"/>
			<point x="300.857" y="974" type="line"/>
			<point x="929.857" y="974" type="line"/>
			<point x="929.857" y="1095.86" type="line"/>
			<point x="104.286" y="1095.86" type="line"/>
			<point x="104.286" y="993.429" type="line"/>
			<point x="610.429" y="438.429" type="line"/>
			<point x="219.571" y="417.857"/>
			<point x="59.8571" y="232.429"/>
			<point x="59.8571" y="-38.7143" type="curve"/>
			<point x="60.4286" y="-311.714"/>
			<point x="233.286" y="-491.143"/>
		</contour>
	</outline>
	<anchor name="bottom" x="506.714" y="-492"/>
	<anchor name="top" x="506.714" y="1095.86"/>
</glyph>
<glyph name="uni01BA" format="2">
	<unicode hex="01BA"/>
	<advance width="1005"/>
	<outline>
		<contour>
			<point x="435.143" y="-492" type="curve" smooth="yes"/>
			<point x="600.714" y="-492"/>
			<point x="742.286" y="-461.857"/>
			<point x="827.429" y="-428.857" type="curve"/>
			<point x="827.429" y="-310.429" type="line"/>
			<point x="723" y="-344.857"/>
			<point x="604.429" y="-373.429"/>
			<point x="450.286" y="-373.429" type="curve" smooth="yes"/>
			<point x="282.429" y="-373.429"/>
			<point x="193.571" y="-322.429"/>
			<point x="193.571" y="-219.143" type="curve" smooth="yes"/>
			<point x="193.571" y="-117.571"/>
			<point x="253.143" y="-63.7143"/>
			<point x="442.429" y="-47.2857" type="curve" smooth="yes"/>
			<point x="750.143" y="-21.5714"/>
			<point x="875" y="71.2857"/>
			<point x="875" y="295.571" type="curve" smooth="yes"/>
			<point x="875" y="562.143"/>
			<point x="645.571" y="607.429"/>
			<point x="422.143" y="607.429" type="curve"/>
			<point x="832.857" y="998.857" type="line"/>
			<point x="832.857" y="1095.86" type="line"/>
			<point x="106.714" y="1095.86" type="line"/>
			<point x="106.714" y="980.286" type="line"/>
			<point x="643.714" y="980.286" type="line"/>
			<point x="258.286" y="602.286" type="line"/>
			<point x="258.286" y="507.857" type="line"/>
			<point x="347.857" y="507.857" type="line" smooth="yes"/>
			<point x="561.286" y="507.857"/>
			<point x="720.429" y="482.286"/>
			<point x="720.429" y="298.429" type="curve" smooth="yes"/>
			<point x="720.429" y="131.143"/>
			<point x="611.143" y="86.4286"/>
			<point x="408.143" y="64.5714" type="curve"/>
			<point x="157.143" y="38.8571"/>
			<point x="56.1429" y="-55.4286"/>
			<point x="56.1429" y="-218.571" type="curve" smooth="yes"/>
			<point x="56.1429" y="-397.714"/>
			<point x="193.714" y="-492"/>
		</contour>
	</outline>
	<anchor name="bottom" x="503" y="-492"/>
	<anchor name="top" x="503" y="1095.86"/>
</glyph>
<glyph name="uni01BB" format="2">
	<unicode hex="01BB"/>
	<advance width="1170"/>
	<outline>
		<contour>
			<point x="551" y="1574.71" type="curve" smooth="yes"/>
			<point x="356.143" y="1574.71"/>
			<point x="222" y="1492.57"/>
			<point x="122" y="1410.86" type="curve"/>
			<point x="196.857" y="1312.43" type="line"/>
			<point x="287" y="1385.71"/>
			<point x="399.143" y="1448.57"/>
			<point x="534.714" y="1448.57" type="curve" smooth="yes"/>
			<point x="719.143" y="1448.57"/>
			<point x="829.571" y="1346.43"/>
			<point x="829.571" y="1172.57" type="curve" smooth="yes"/>
			<point x="829.571" y="1027.71"/>
			<point x="782.286" y="928.143"/>
			<point x="680.714" y="803.429" type="curve"/>
			<point x="168.714" y="803.429" type="line"/>
			<point x="168.714" y="695.571" type="line"/>
			<point x="592" y="695.571" type="line"/>
			<point x="94.7143" y="116.714" type="line"/>
			<point x="94.7143" y="0" type="line"/>
			<point x="1032.86" y="0" type="line"/>
			<point x="1032.86" y="120.714" type="line"/>
			<point x="281" y="120.714" type="line"/>
			<point x="281" y="127.286" type="line"/>
			<point x="763.857" y="695.571" type="line"/>
			<point x="1029" y="695.571" type="line"/>
			<point x="1029" y="803.429" type="line"/>
			<point x="844" y="803.429" type="line"/>
			<point x="933.286" y="923.571"/>
			<point x="983.571" y="1028"/>
			<point x="983.571" y="1179.43" type="curve" smooth="yes"/>
			<point x="983.571" y="1417.14"/>
			<point x="817.857" y="1574.71"/>
		</contour>
	</outline>
	<anchor name="bottom" x="585.429" y="0"/>
	<anchor name="top" x="585.429" y="1574.71"/>
</glyph>
<glyph name="uni01BC" format="2">
	<unicode hex="01BC"/>
	<advance width="1180"/>
	<outline>
		<contour>
			<point x="532.143" y="-20" type="curve" smooth="yes"/>
			<point x="850.143" y="-20"/>
			<point x="1061.71" y="144.143"/>
			<point x="1061.71" y="464.143" type="curve" smooth="yes"/>
			<point x="1061.71" y="755"/>
			<point x="860.714" y="887.143"/>
			<point x="565.714" y="887.143" type="curve" smooth="yes"/>
			<point x="460.429" y="887.143" type="line"/>
			<point x="460.429" y="1327.29" type="line"/>
			<point x="1014.43" y="1327.29" type="line"/>
			<point x="1014.43" y="1462" type="line"/>
			<point x="111.857" y="1462" type="line"/>
			<point x="111.857" y="1327.29" type="line"/>
			<point x="320" y="1327.29" type="line"/>
			<point x="320" y="763" type="line"/>
			<point x="511.429" y="763" type="line" smooth="yes"/>
			<point x="756.571" y="763"/>
			<point x="906.714" y="674.143"/>
			<point x="906.714" y="455.286" type="curve" smooth="yes"/>
			<point x="906.714" y="210.857"/>
			<point x="734.571" y="109.286"/>
			<point x="523.286" y="109.286" type="curve" smooth="yes"/>
			<point x="360.429" y="109.286"/>
			<point x="238" y="154.286"/>
			<point x="149.143" y="204.143" type="curve"/>
			<point x="149.143" y="63.4286" type="line"/>
			<point x="218" y="28.7143"/>
			<point x="347.429" y="-20"/>
		</contour>
	</outline>
	<anchor name="bottom" x="591.429" y="0"/>
	<anchor name="top" x="591.429" y="1462"/>
</glyph>
<glyph name="uni01BD" format="2">
	<unicode hex="01BD"/>
	<advance width="961"/>
	<outline>
		<contour>
			<point x="410.143" y="-16.5714" type="curve" smooth="yes"/>
			<point x="743.857" y="-16.5714"/>
			<point x="882.571" y="137.857"/>
			<point x="882.571" y="337.143" type="curve" smooth="yes"/>
			<point x="882.571" y="533.714"/>
			<point x="756.143" y="651.571"/>
			<point x="513.143" y="651.571" type="curve" smooth="yes"/>
			<point x="385" y="651.571" type="line"/>
			<point x="385" y="975.714" type="line"/>
			<point x="858" y="975.714" type="line"/>
			<point x="858" y="1095.86" type="line"/>
			<point x="78.5714" y="1095.86" type="line"/>
			<point x="78.5714" y="975.714" type="line"/>
			<point x="246.429" y="975.714" type="line"/>
			<point x="246.429" y="542.429" type="line"/>
			<point x="454.571" y="542.429" type="line" smooth="yes"/>
			<point x="647.857" y="542.429"/>
			<point x="733.857" y="468.143"/>
			<point x="733.857" y="341.143" type="curve" smooth="yes"/>
			<point x="733.857" y="216.857"/>
			<point x="654.714" y="109"/>
			<point x="423.286" y="107.286" type="curve"/>
			<point x="280" y="105.286"/>
			<point x="149.286" y="144"/>
			<point x="68.1429" y="185.857" type="curve"/>
			<point x="68.1429" y="51.5714" type="line"/>
			<point x="132.143" y="20.4286"/>
			<point x="260.429" y="-16.5714"/>
		</contour>
	</outline>
	<anchor name="bottom" x="481.714" y="0"/>
	<anchor name="top" x="481.714" y="1095.86"/>
</glyph>
<glyph name="uni01BE" format="2">
	<unicode hex="01BE"/>
	<advance width="946"/>
	<outline>
		<contour>
			<point x="433.714" y="-20" type="curve" smooth="yes"/>
			<point x="742" y="-20"/>
			<point x="861" y="123.571"/>
			<point x="861" y="308.143" type="curve" smooth="yes"/>
			<point x="861" y="497.286"/>
			<point x="714.714" y="556.429"/>
			<point x="571.429" y="609.429" type="curve" smooth="yes"/>
			<point x="481.714" y="642.286"/>
			<point x="439.286" y="675.857"/>
			<point x="439.286" y="816.714" type="curve" smooth="yes"/>
			<point x="439.286" y="975.143" type="line"/>
			<point x="766.714" y="975.143" type="line"/>
			<point x="766.714" y="1095.86" type="line"/>
			<point x="439.286" y="1095.86" type="line"/>
			<point x="439.286" y="1352.29" type="line"/>
			<point x="334.857" y="1352.29" type="line"/>
			<point x="295" y="1094.43" type="line"/>
			<point x="116.429" y="1053.29" type="line"/>
			<point x="116.429" y="975.143" type="line"/>
			<point x="294.714" y="975.143" type="line"/>
			<point x="294.714" y="800.714" type="line" smooth="yes"/>
			<point x="294.714" y="604"/>
			<point x="362.143" y="555"/>
			<point x="487" y="509" type="curve"/>
			<point x="598.857" y="469.429"/>
			<point x="711.714" y="439.571"/>
			<point x="711.714" y="298.714" type="curve" smooth="yes"/>
			<point x="711.714" y="182.714"/>
			<point x="644" y="97"/>
			<point x="427.714" y="97" type="curve" smooth="yes"/>
			<point x="298.143" y="97"/>
			<point x="182.143" y="129.857"/>
			<point x="93.7143" y="170.857" type="curve"/>
			<point x="93.7143" y="39.5714" type="line"/>
			<point x="160" y="9.14286"/>
			<point x="287.429" y="-20"/>
		</contour>
	</outline>
	<anchor name="bottom" x="474.143" y="0"/>
	<anchor name="top" x="474.143" y="1352.29"/>
</glyph>
<glyph name="uni01C0" format="2">
	<unicode hex="01C0"/>
	<advance width="732"/>
	<outline>
		<contour>
			<point x="304.286" y="0" type="line"/>
			<point x="428.143" y="0" type="line"/>
			<point x="428.143" y="1556" type="line"/>
			<point x="304.286" y="1556" type="line"/>
		</contour>
	</outline>
	<anchor name="bottom" x="367" y="0"/>
	<anchor name="top" x="367" y="1556"/>
</glyph>
<glyph name="uni01C2" format="2">
	<unicode hex="01C2"/>
	<advance width="1057"/>
	<outline>
		<contour>
			<point x="590.143" y="1556" type="line"/>
			<point x="466.286" y="1556" type="line"/>
			<point x="466.286" y="1030.14" type="line"/>
			<point x="124.429" y="1030.14" type="line"/>
			<point x="124.429" y="914" type="line"/>
			<point x="466.286" y="914" type="line"/>
			<point x="466.286" y="663.571" type="line"/>
			<point x="124.429" y="663.571" type="line"/>
			<point x="124.429" y="547.429" type="line"/>
			<point x="466.286" y="547.429" type="line"/>
			<point x="466.286" y="0" type="line"/>
			<point x="590.143" y="0" type="line"/>
			<point x="590.143" y="547.429" type="line"/>
			<point x="933.714" y="547.429" type="line"/>
			<point x="933.714" y="663.571" type="line"/>
			<point x="590.143" y="663.571" type="line"/>
			<point x="590.143" y="914" type="line"/>
			<point x="933.714" y="914" type="line"/>
			<point x="933.714" y="1030.14" type="line"/>
			<point x="590.143" y="1030.14" type="line"/>
		</contour>
	</outline>
	<anchor name="bottom" x="528" y="0"/>
	<anchor name="top" x="528" y="1556"/>
</glyph>
<glyph name="uni01E4" format="2">
	<unicode hex="01E4"/>
	<advance width="1477"/>
	<outline>
		<contour>
			<point x="838.286" y="-20" type="curve" smooth="yes"/>
			<point x="1017.71" y="-20"/>
			<point x="1179.14" y="12.8571"/>
			<point x="1311.86" y="70.2857" type="curve"/>
			<point x="1311.86" y="338.286" type="line"/>
			<point x="1442" y="338.286" type="line"/>
			<point x="1442" y="441.857" type="line"/>
			<point x="1311.86" y="441.857" type="line"/>
			<point x="1311.86" y="774.429" type="line"/>
			<point x="744.286" y="774.429" type="line"/>
			<point x="744.286" y="670.571" type="line"/>
			<point x="1161" y="670.571" type="line"/>
			<point x="1161" y="441.857" type="line"/>
			<point x="789.286" y="441.857" type="line"/>
			<point x="789.286" y="338.286" type="line"/>
			<point x="1161" y="338.286" type="line"/>
			<point x="1161" y="157.143" type="line"/>
			<point x="1075.29" y="122.714"/>
			<point x="970.857" y="103"/>
			<point x="845.714" y="103" type="curve" smooth="yes"/>
			<point x="501" y="103"/>
			<point x="282.286" y="275.857"/>
			<point x="282.286" y="722.143" type="curve" smooth="yes"/>
			<point x="282.286" y="1096.71"/>
			<point x="498.286" y="1354"/>
			<point x="866" y="1354" type="curve" smooth="yes"/>
			<point x="993.571" y="1354"/>
			<point x="1127.43" y="1328.14"/>
			<point x="1248.57" y="1269.14" type="curve"/>
			<point x="1300.86" y="1395.29" type="line"/>
			<point x="1174.14" y="1454.86"/>
			<point x="1028.57" y="1485.86"/>
			<point x="873.429" y="1485.86" type="curve" smooth="yes"/>
			<point x="403.143" y="1485.86"/>
			<point x="125" y="1167.86"/>
			<point x="125" y="717.571" type="curve" smooth="yes"/>
			<point x="125" y="232.857"/>
			<point x="385.571" y="-20"/>
		</contour>
	</outline>
	<anchor name="bottom" x="761.571" y="0"/>
	<anchor name="top" x="767.571" y="1462"/>
</glyph>
<glyph name="uni01F6" format="2">
	<unicode hex="01F6"/>
	<advance width="2095"/>
	<outline>
		<contour>
			<point x="200.429" y="0" type="line"/>
			<point x="352.857" y="0" type="line"/>
			<point x="352.857" y="698.429" type="line"/>
			<point x="1056" y="698.429" type="line"/>
			<point x="1056" y="411.286" type="line" smooth="yes"/>
			<point x="1056" y="101.714"/>
			<point x="1212.86" y="-23.1429"/>
			<point x="1486.71" y="-23.1429" type="curve" smooth="yes"/>
			<point x="1741.43" y="-23.1429"/>
			<point x="1903.86" y="112.571"/>
			<point x="1903.86" y="431.286" type="curve" smooth="yes"/>
			<point x="1903.86" y="1095.86" type="line"/>
			<point x="1754.86" y="1095.86" type="line"/>
			<point x="1754.86" y="437.571" type="line" smooth="yes"/>
			<point x="1754.86" y="186.714"/>
			<point x="1649" y="105.857"/>
			<point x="1485.57" y="105.857" type="curve" smooth="yes"/>
			<point x="1318.86" y="105.857"/>
			<point x="1209" y="184.143"/>
			<point x="1209" y="428.143" type="curve" smooth="yes"/>
			<point x="1209" y="1462" type="line"/>
			<point x="1056" y="1462" type="line"/>
			<point x="1056" y="830.429" type="line"/>
			<point x="352.857" y="830.429" type="line"/>
			<point x="352.857" y="1462" type="line"/>
			<point x="200.429" y="1462" type="line"/>
		</contour>
	</outline>
	<anchor name="bottom" x="1047.43" y="0"/>
	<anchor name="top" x="1047.43" y="1462"/>
</glyph>
<glyph name="uni01F7" format="2">
	<unicode hex="01F7"/>
	<advance width="1293"/>
	<outline>
		<contour>
			<point x="761.429" y="1485" type="curve" smooth="yes"/>
			<point x="512.857" y="1485"/>
			<point x="390.143" y="1339.29"/>
			<point x="346" y="1208.29" type="curve"/>
			<point x="340.286" y="1208.29" type="line"/>
			<point x="317.714" y="1463.43" type="line"/>
			<point x="200.429" y="1463.43" type="line"/>
			<point x="200.429" y="-492" type="line"/>
			<point x="349.429" y="-492" type="line"/>
			<point x="349.429" y="1.71429" type="line"/>
			<point x="816.571" y="127.286"/>
			<point x="1186.86" y="453.143"/>
			<point x="1186.86" y="953.857" type="curve" smooth="yes"/>
			<point x="1186.86" y="1332.57"/>
			<point x="1001.71" y="1485"/>
		</contour>
		<contour>
			<point x="717.714" y="1353.14" type="curve" smooth="yes"/>
			<point x="889.857" y="1353.14"/>
			<point x="1031.29" y="1248.71"/>
			<point x="1031.29" y="946.286" type="curve" smooth="yes"/>
			<point x="1031.29" y="502.143"/>
			<point x="710.286" y="241.143"/>
			<point x="349.429" y="134.429" type="curve"/>
			<point x="349.429" y="878.714" type="line" smooth="yes"/>
			<point x="349.429" y="1192.71"/>
			<point x="493.429" y="1353.14"/>
		</contour>
	</outline>
	<anchor name="bottom" x="647.143" y="-492"/>
	<anchor name="top" x="647.143" y="1462"/>
</glyph>
<glyph name="Aringacute" format="2">
	<unicode hex="01FA"/>
	<advance width="1267"/>
	<outline>
		<contour>
			<point x="-11.4286" y="0" type="line"/>
			<point x="156.143" y="0" type="line"/>
			<point x="344.429" y="419" type="line"/>
			<point x="927" y="419" type="line"/>
			<point x="1108.57" y="0" type="line"/>
			<point x="1276.29" y="0" type="line"/>
			<point x="734.714" y="1244.57" type="line"/>
			<point x="814.429" y="1267.14"/>
			<point x="867" y="1326.86"/>
			<point x="867" y="1423" type="curve" smooth="yes"/>
			<point x="867" y="1556.57"/>
			<point x="773.286" y="1644.29"/>
			<point x="639.714" y="1644.29" type="curve" smooth="yes"/>
			<point x="505.571" y="1644.29"/>
			<point x="412.143" y="1555.14"/>
			<point x="412.143" y="1423.86" type="curve" smooth="yes"/>
			<point x="412.143" y="1324"/>
			<point x="467" y="1263.43"/>
			<point x="544.429" y="1247.14" type="curve"/>
		</contour>
		<contour>
			<point x="386.714" y="549.143" type="line"/>
			<point x="577" y="961.714" type="line"/>
			<point x="598.143" y="1017"/>
			<point x="621.429" y="1080.57"/>
			<point x="639.429" y="1141.29" type="curve"/>
			<point x="657.714" y="1080.57"/>
			<point x="684.143" y="1007.57"/>
			<point x="702.429" y="960.286" type="curve"/>
			<point x="885" y="549.143" type="line"/>
		</contour>
		<contour>
			<point x="638.286" y="1275.57" type="curve" smooth="yes"/>
			<point x="554" y="1275.57"/>
			<point x="494.286" y="1330.57"/>
			<point x="494.286" y="1422.43" type="curve" smooth="yes"/>
			<point x="494.286" y="1508.43"/>
			<point x="552" y="1565"/>
			<point x="638.286" y="1565" type="curve" smooth="yes"/>
			<point x="724.571" y="1565"/>
			<point x="782.286" y="1508.43"/>
			<point x="782.286" y="1422.43" type="curve" smooth="yes"/>
			<point x="782.286" y="1330.57"/>
			<point x="723.143" y="1275.57"/>
		</contour>
		<contour>
			<point x="571" y="1713.57" type="line"/>
			<point x="676" y="1713.57" type="line"/>
			<point x="778.143" y="1786.86"/>
			<point x="897.286" y="1876.57"/>
			<point x="958.857" y="1956.29" type="curve"/>
			<point x="958.857" y="1972" type="line"/>
			<point x="792.143" y="1972" type="line"/>
			<point x="739.143" y="1892.29"/>
			<point x="650.429" y="1799.43"/>
			<point x="571" y="1730" type="curve"/>
		</contour>
	</outline>
	<anchor name="bottom" x="633.143" y="0"/>
	<anchor name="top" x="633.143" y="1972"/>
</glyph>
<glyph name="aringacute" format="2">
	<unicode hex="01FB"/>
	<advance width="1112"/>
	<outline>
		<contour>
			<point x="583" y="1115.14" type="curve" smooth="yes"/>
			<point x="438" y="1115.14"/>
			<point x="310.429" y="1083"/>
			<point x="195.857" y="1028.86" type="curve"/>
			<point x="241" y="917.286" type="line"/>
			<point x="356.286" y="973.429"/>
			<point x="458.857" y="999.857"/>
			<point x="562.429" y="999.857" type="curve" smooth="yes"/>
			<point x="722.143" y="999.857"/>
			<point x="803.286" y="916.571"/>
			<point x="803.286" y="712" type="curve" smooth="yes"/>
			<point x="803.286" y="644.571" type="line"/>
			<point x="598.571" y="634.286" type="line" smooth="yes"/>
			<point x="275.286" y="618.571"/>
			<point x="91.1429" y="514.714"/>
			<point x="91.1429" y="289.143" type="curve" smooth="yes"/>
			<point x="91.1429" y="93.7143"/>
			<point x="212.429" y="-20"/>
			<point x="423.714" y="-20" type="curve" smooth="yes"/>
			<point x="635.286" y="-20"/>
			<point x="742.571" y="69.7143"/>
			<point x="811" y="193.571" type="curve"/>
			<point x="816.143" y="193.571" type="line"/>
			<point x="843.286" y="0" type="line"/>
			<point x="953.571" y="0" type="line"/>
			<point x="953.571" y="724.429" type="line" smooth="yes"/>
			<point x="953.571" y="989.571"/>
			<point x="824.286" y="1115.14"/>
		</contour>
		<contour>
			<point x="803.857" y="546.714" type="line"/>
			<point x="803.857" y="441.571" type="line"/>
			<point x="801" y="237"/>
			<point x="692.286" y="95.2857"/>
			<point x="471.143" y="95.2857" type="curve" smooth="yes"/>
			<point x="327.429" y="95.2857"/>
			<point x="246.571" y="165.857"/>
			<point x="246.571" y="291.429" type="curve" smooth="yes"/>
			<point x="246.571" y="451.286"/>
			<point x="390.571" y="526.714"/>
			<point x="630.286" y="538.429" type="curve" smooth="yes"/>
		</contour>
		<contour>
			<point x="575.857" y="1539.14" type="curve" smooth="yes"/>
			<point x="649.286" y="1539.14"/>
			<point x="710.571" y="1479.71"/>
			<point x="710.571" y="1403.71" type="curve" smooth="yes"/>
			<point x="710.571" y="1328.29"/>
			<point x="655" y="1269"/>
			<point x="575.857" y="1269" type="curve" smooth="yes"/>
			<point x="494.429" y="1269"/>
			<point x="439" y="1328.29"/>
			<point x="439" y="1403.71" type="curve" smooth="yes"/>
			<point x="439" y="1479.71"/>
			<point x="498.143" y="1539.14"/>
		</contour>
		<contour>
			<point x="575.857" y="1622.71" type="curve" smooth="yes"/>
			<point x="450.286" y="1622.71"/>
			<point x="352.571" y="1532.43"/>
			<point x="352.571" y="1403.71" type="curve" smooth="yes"/>
			<point x="352.571" y="1272.29"/>
			<point x="451.714" y="1186"/>
			<point x="575.857" y="1186" type="curve" smooth="yes"/>
			<point x="699.286" y="1186"/>
			<point x="800.286" y="1273.71"/>
			<point x="800.286" y="1404.29" type="curve" smooth="yes"/>
			<point x="800.286" y="1529.57"/>
			<point x="698.714" y="1622.71"/>
		</contour>
		<contour>
			<point x="840" y="1954" type="line"/>
			<point x="683.429" y="1954" type="line"/>
			<point x="630.429" y="1872.14"/>
			<point x="532.143" y="1767.29"/>
			<point x="458.714" y="1697" type="curve"/>
			<point x="458.714" y="1683.57" type="line"/>
			<point x="562" y="1683.57" type="line"/>
			<point x="656.857" y="1758.43"/>
			<point x="777.714" y="1859.29"/>
			<point x="840" y="1939.86" type="curve"/>
		</contour>
	</outline>
	<anchor name="bottom" x="556.857" y="0"/>
	<anchor name="top" x="556.857" y="1954"/>
</glyph>
<glyph name="uni021D" format="2">
	<unicode hex="021D"/>
	<advance width="1002"/>
	<outline>
		<contour>
			<point x="61.5714" y="-493.429" type="line"/>
			<point x="556" y="-387.571"/>
			<point x="905.143" y="-257.143"/>
			<point x="905.143" y="103.429" type="curve" smooth="yes"/>
			<point x="905.143" y="291"/>
			<point x="797.857" y="400.429"/>
			<point x="668.286" y="459.571" type="curve"/>
			<point x="795.286" y="527.143"/>
			<point x="871.857" y="629"/>
			<point x="871.857" y="771.143" type="curve" smooth="yes"/>
			<point x="871.857" y="991.857"/>
			<point x="705.286" y="1116.29"/>
			<point x="450.571" y="1116.29" type="curve" smooth="yes"/>
			<point x="312.429" y="1116.29"/>
			<point x="192.143" y="1080.43"/>
			<point x="80.2857" y="1026.86" type="curve"/>
			<point x="126.429" y="915" type="line"/>
			<point x="216.143" y="958.286"/>
			<point x="329.857" y="991.571"/>
			<point x="445.143" y="991.571" type="curve" smooth="yes"/>
			<point x="594" y="991.571"/>
			<point x="729.429" y="929.857"/>
			<point x="729.429" y="763.429" type="curve" smooth="yes"/>
			<point x="729.429" y="588.429"/>
			<point x="587.143" y="515"/>
			<point x="268.286" y="433.857" type="curve"/>
			<point x="297" y="322" type="line"/>
			<point x="390.429" y="345.571"/>
			<point x="476.714" y="371.286"/>
			<point x="552.714" y="400.857" type="curve"/>
			<point x="679.143" y="338"/>
			<point x="752.143" y="250.286"/>
			<point x="752.143" y="107.429" type="curve" smooth="yes"/>
			<point x="752.143" y="-149.857"/>
			<point x="504" y="-263.143"/>
			<point x="61.5714" y="-361.143" type="curve"/>
		</contour>
	</outline>
	<anchor name="bottom" x="501.286" y="-361.143"/>
	<anchor name="top" x="439.429" y="1095.86"/>
</glyph>
<glyph name="uni0220" format="2">
	<unicode hex="0220"/>
	<advance width="1419"/>
	<outline>
		<contour>
			<point x="782.571" y="1483.57" type="curve" smooth="yes"/>
			<point x="542.857" y="1483.57"/>
			<point x="405.571" y="1374.86"/>
			<point x="345.714" y="1228.57" type="curve"/>
			<point x="340" y="1228.57" type="line"/>
			<point x="318.286" y="1462" type="line"/>
			<point x="200.429" y="1462" type="line"/>
			<point x="200.429" y="0" type="line"/>
			<point x="352.857" y="0" type="line"/>
			<point x="352.857" y="884.286" type="line" smooth="yes"/>
			<point x="352.857" y="1193.43"/>
			<point x="470" y="1352.86"/>
			<point x="744" y="1352.86" type="curve" smooth="yes"/>
			<point x="967.286" y="1352.86"/>
			<point x="1082" y="1244.14"/>
			<point x="1082" y="956.429" type="curve" smooth="yes"/>
			<point x="1082" y="-492" type="line"/>
			<point x="1235" y="-492" type="line"/>
			<point x="1235" y="995.286" type="line" smooth="yes"/>
			<point x="1235" y="1339.57"/>
			<point x="1064.71" y="1483.57"/>
		</contour>
	</outline>
	<anchor name="bottom" x="710.857" y="-492"/>
	<anchor name="top" x="710.857" y="1462"/>
</glyph>
<glyph name="uni0221" format="2">
	<unicode hex="0221"/>
	<advance width="1748"/>
	<outline>
		<contour>
			<point x="1131" y="-204.714" type="line"/>
			<point x="1133.57" y="-138.714"/>
			<point x="1143.86" y="-46.4286"/>
			<point x="1156.29" y="8.57143" type="curve"/>
			<point x="1183.14" y="4.28571"/>
			<point x="1276.14" y="0"/>
			<point x="1374.29" y="0" type="curve" smooth="yes"/>
			<point x="1639.43" y="0"/>
			<point x="1730.57" y="108.571"/>
			<point x="1730.57" y="252" type="curve" smooth="yes"/>
			<point x="1730.57" y="385.857"/>
			<point x="1627.86" y="464.286"/>
			<point x="1468" y="464.286" type="curve" smooth="yes"/>
			<point x="1242.86" y="464.286"/>
			<point x="1143.14" y="293.857"/>
			<point x="1097.57" y="174.571" type="curve"/>
			<point x="1071.71" y="211.286"/>
			<point x="1060.57" y="280.143"/>
			<point x="1060.57" y="359.571" type="curve" smooth="yes"/>
			<point x="1060.57" y="1556" type="line"/>
			<point x="908.286" y="1556" type="line"/>
			<point x="908.286" y="1140.57" type="line" smooth="yes"/>
			<point x="908.286" y="1053.43"/>
			<point x="917.143" y="946.571"/>
			<point x="920.143" y="891.714" type="curve"/>
			<point x="913.143" y="891.714" type="line"/>
			<point x="867.571" y="1013.86"/>
			<point x="754.143" y="1116.57"/>
			<point x="567.429" y="1116.57" type="curve" smooth="yes"/>
			<point x="280.714" y="1116.57"/>
			<point x="109.286" y="912.429"/>
			<point x="109.286" y="534" type="curve" smooth="yes"/>
			<point x="109.286" y="169.429"/>
			<point x="264.571" y="-20"/>
			<point x="569.429" y="-20" type="curve" smooth="yes"/>
			<point x="779.571" y="-20"/>
			<point x="893.857" y="86.2857"/>
			<point x="948.286" y="199.286" type="curve"/>
			<point x="954.429" y="199.286" type="line"/>
			<point x="965.857" y="112.714"/>
			<point x="995.286" y="61.2857"/>
			<point x="1041.14" y="33.2857" type="curve"/>
			<point x="1026.57" y="-37.2857"/>
			<point x="1016" y="-129.286"/>
			<point x="1012.57" y="-199" type="curve"/>
		</contour>
		<contour>
			<point x="596.857" y="105.857" type="curve" smooth="yes"/>
			<point x="373.571" y="105.857"/>
			<point x="263.143" y="247.857"/>
			<point x="263.143" y="532.286" type="curve" smooth="yes"/>
			<point x="263.143" y="834.857"/>
			<point x="388.571" y="989"/>
			<point x="606.571" y="989" type="curve" smooth="yes"/>
			<point x="820" y="989"/>
			<point x="916.571" y="832.857"/>
			<point x="916.571" y="549" type="curve" smooth="yes"/>
			<point x="916.571" y="533.571" type="line"/>
			<point x="914.857" y="255"/>
			<point x="825.714" y="105.857"/>
		</contour>
		<contour>
			<point x="1383.14" y="97.8571" type="curve" smooth="yes"/>
			<point x="1297" y="97.8571"/>
			<point x="1218.14" y="102.143"/>
			<point x="1179.14" y="106.429" type="curve"/>
			<point x="1217.57" y="233.286"/>
			<point x="1287" y="365.857"/>
			<point x="1458" y="365.857" type="curve" smooth="yes"/>
			<point x="1562.43" y="365.857"/>
			<point x="1617.29" y="324.571"/>
			<point x="1617.29" y="245.143" type="curve" smooth="yes"/>
			<point x="1617.29" y="155.857"/>
			<point x="1561.57" y="97.8571"/>
		</contour>
	</outline>
	<anchor name="bottom" x="874.286" y="-204.714"/>
	<anchor name="top" x="874.286" y="1556"/>
</glyph>
<glyph name="uni0222" format="2">
	<unicode hex="0222"/>
	<advance width="1411"/>
	<outline>
		<contour>
			<point x="708.714" y="-23.5714" type="curve" smooth="yes"/>
			<point x="1104.57" y="-23.5714"/>
			<point x="1301.43" y="158.714"/>
			<point x="1303.71" y="470.571" type="curve"/>
			<point x="1306.57" y="724.429"/>
			<point x="1160" y="860"/>
			<point x="982.571" y="903.857" type="curve"/>
			<point x="1147.71" y="955.429"/>
			<point x="1235.71" y="1058.86"/>
			<point x="1235.71" y="1308" type="curve" smooth="yes"/>
			<point x="1235.71" y="1488.43" type="line"/>
			<point x="1081.57" y="1488.43" type="line"/>
			<point x="1081.57" y="1317.57" type="line" smooth="yes"/>
			<point x="1081.57" y="1055.57"/>
			<point x="980.143" y="967.286"/>
			<point x="701.857" y="967.286" type="curve" smooth="yes"/>
			<point x="423.143" y="967.286"/>
			<point x="331.571" y="1056.43"/>
			<point x="331.571" y="1308" type="curve" smooth="yes"/>
			<point x="331.571" y="1488.43" type="line"/>
			<point x="176.571" y="1488.43" type="line"/>
			<point x="176.571" y="1303.71" type="line" smooth="yes"/>
			<point x="176.571" y="1059.14"/>
			<point x="255" y="949"/>
			<point x="433" y="903.857" type="curve"/>
			<point x="258.143" y="858"/>
			<point x="108.429" y="719.571"/>
			<point x="108.429" y="473.857" type="curve" smooth="yes"/>
			<point x="108.429" y="168.857"/>
			<point x="305.857" y="-23.5714"/>
		</contour>
		<contour>
			<point x="708.143" y="110.429" type="curve" smooth="yes"/>
			<point x="419.714" y="110.429"/>
			<point x="271.429" y="246.571"/>
			<point x="271.429" y="477" type="curve" smooth="yes"/>
			<point x="271.429" y="706.429"/>
			<point x="412.571" y="832.571"/>
			<point x="701.857" y="832.571" type="curve" smooth="yes"/>
			<point x="1016.14" y="832.571"/>
			<point x="1141" y="709"/>
			<point x="1141" y="472.571" type="curve" smooth="yes"/>
			<point x="1141" y="242.286"/>
			<point x="998.143" y="110.429"/>
		</contour>
	</outline>
	<anchor name="bottom" x="705.857" y="0"/>
	<anchor name="top" x="705.857" y="1462"/>
</glyph>
<glyph name="uni0234" format="2">
	<unicode hex="0234"/>
	<advance width="785"/>
	<outline>
		<contour>
			<point x="153.143" y="-55.2857" type="line"/>
			<point x="174.143" y="12.4286"/>
			<point x="212" y="95"/>
			<point x="246.143" y="136.857" type="curve"/>
			<point x="283.143" y="41.8571"/>
			<point x="357.571" y="-20"/>
			<point x="485.714" y="-20" type="curve" smooth="yes"/>
			<point x="646.143" y="-20"/>
			<point x="758" y="70.1429"/>
			<point x="758" y="213.143" type="curve" smooth="yes"/>
			<point x="758" y="341.571"/>
			<point x="670.286" y="428.143"/>
			<point x="522.714" y="428.143" type="curve" smooth="yes"/>
			<point x="435.714" y="428.143"/>
			<point x="367.286" y="393.429"/>
			<point x="327.714" y="361.286" type="curve"/>
			<point x="327.714" y="1556" type="line"/>
			<point x="175.714" y="1556" type="line"/>
			<point x="175.714" y="387.571" type="line" smooth="yes"/>
			<point x="175.714" y="325.143"/>
			<point x="181.714" y="264.714"/>
			<point x="194.143" y="222.286" type="curve"/>
			<point x="141.857" y="163.143"/>
			<point x="92.2857" y="63.4286"/>
			<point x="64.4286" y="-24.4286" type="curve"/>
		</contour>
		<contour>
			<point x="499.714" y="80.7143" type="curve" smooth="yes"/>
			<point x="398.857" y="80.7143"/>
			<point x="340.857" y="155.857"/>
			<point x="331.429" y="250.143" type="curve"/>
			<point x="370.429" y="299.857"/>
			<point x="433.429" y="331.429"/>
			<point x="504.571" y="331.429" type="curve" smooth="yes"/>
			<point x="594.714" y="331.429"/>
			<point x="646" y="283.714"/>
			<point x="646" y="207.714" type="curve" smooth="yes"/>
			<point x="646" y="132.571"/>
			<point x="585.857" y="80.7143"/>
		</contour>
	</outline>
	<anchor name="bottom" x="393.429" y="0"/>
	<anchor name="top" x="352.286" y="1556"/>
</glyph>
<glyph name="uni023A" format="2">
	<unicode hex="023A"/>
	<advance width="1271"/>
	<outline>
		<component base="A"/>
		<contour>
			<point x="1054.43" y="1556" type="line"/>
			<point x="945.714" y="1556" type="line"/>
			<point x="351.714" y="-154" type="line"/>
			<point x="460.429" y="-154" type="line"/>
		</contour>
	</outline>
	<anchor name="bottom" x="635.143" y="0"/>
	<anchor name="top" x="635.143" y="1462"/>
</glyph>
<glyph name="uni023C" format="2">
	<unicode hex="023C"/>
	<advance width="1002"/>
	<outline>
		<component base="c"/>
		<contour>
			<point x="980" y="1449.57" type="line"/>
			<point x="870.571" y="1449.57" type="line"/>
			<point x="244" y="-338.143" type="line"/>
			<point x="354" y="-338.143" type="line"/>
		</contour>
	</outline>
	<anchor name="bottom" x="617.143" y="-338.143"/>
	<anchor name="top" x="619.286" y="1449.57"/>
</glyph>
<glyph name="uni023E" format="2">
	<unicode hex="023E"/>
	<advance width="1092"/>
	<outline>
		<component base="T"/>
		<contour>
			<point x="1073.57" y="1556" type="line"/>
			<point x="977.143" y="1556" type="line"/>
			<point x="55.4286" y="-154" type="line"/>
			<point x="152.286" y="-154" type="line"/>
		</contour>
	</outline>
	<anchor name="bottom" x="543.143" y="0"/>
	<anchor name="top" x="543.143" y="1462"/>
</glyph>
<glyph name="uni0242" format="2">
	<unicode hex="0242"/>
	<advance width="879"/>
	<outline>
		<contour>
			<point x="400.143" y="1113.71" type="curve" smooth="yes"/>
			<point x="236.714" y="1113.71"/>
			<point x="121.286" y="1070.71"/>
			<point x="12.2857" y="1013.71" type="curve"/>
			<point x="67.5714" y="899.286" type="line"/>
			<point x="137.857" y="935.429"/>
			<point x="245.857" y="986.714"/>
			<point x="385.286" y="986.714" type="curve" smooth="yes"/>
			<point x="560.286" y="986.714"/>
			<point x="676.143" y="880.571"/>
			<point x="676.143" y="705" type="curve" smooth="yes"/>
			<point x="676.143" y="493.714"/>
			<point x="525.429" y="379.714"/>
			<point x="292.429" y="295.143" type="curve"/>
			<point x="292.429" y="0" type="line"/>
			<point x="446.143" y="0" type="line"/>
			<point x="446.143" y="224.857" type="line"/>
			<point x="651.571" y="317.571"/>
			<point x="830.571" y="448"/>
			<point x="830.571" y="712.714" type="curve" smooth="yes"/>
			<point x="830.571" y="949.143"/>
			<point x="668.571" y="1113.71"/>
		</contour>
	</outline>
	<anchor name="bottom" x="440.429" y="0"/>
	<anchor name="top" x="440.429" y="1095.86"/>
</glyph>
<glyph name="uni0247" format="2">
	<unicode hex="0247"/>
	<advance width="1147"/>
	<outline>
		<component base="e"/>
		<contour>
			<point x="945.857" y="1433.14" type="line"/>
			<point x="834.714" y="1433.14" type="line"/>
			<point x="215.714" y="-354" type="line"/>
			<point x="326.143" y="-354" type="line"/>
		</contour>
	</outline>
	<anchor name="bottom" x="589.857" y="-354"/>
	<anchor name="top" x="575.857" y="1433.14"/>
</glyph>
<glyph name="uni024E" format="2">
	<unicode hex="024E"/>
	<advance width="1129"/>
	<outline>
		<component base="Y"/>
		<contour>
			<point x="1113.71" y="1223.43" type="line"/>
			<point x="11.4286" y="1223.43" type="line"/>
			<point x="11.4286" y="1114.43" type="line"/>
			<point x="1113.71" y="1114.43" type="line"/>
		</contour>
	</outline>
	<anchor name="bottom" x="564.286" y="0"/>
	<anchor name="top" x="564.286" y="1462"/>
</glyph>
<glyph name="uni024F" format="2">
	<unicode hex="024F"/>
	<advance width="988"/>
	<outline>
		<component base="y"/>
		<contour>
			<point x="977.429" y="732.286" type="line"/>
			<point x="7.71429" y="732.286" type="line"/>
			<point x="7.71429" y="623.286" type="line"/>
			<point x="977.429" y="623.286" type="line"/>
		</contour>
	</outline>
	<anchor name="bottom" x="153.714" y="-496.286"/>
	<anchor name="top" x="491.429" y="1095.86"/>
</glyph>
<glyph name="uni0252" format="2">
	<unicode hex="0252"/>
	<advance width="1233"/>
	<outline>
		<contour>
			<point x="683.286" y="1115.86" type="curve" smooth="yes"/>
			<point x="473.429" y="1115.86"/>
			<point x="362.714" y="1009.86"/>
			<point x="310.571" y="882.429" type="curve"/>
			<point x="304.286" y="882.429" type="line"/>
			<point x="286.571" y="1052.29"/>
			<point x="237.857" y="1115.86"/>
			<point x="104" y="1115.86" type="curve" smooth="yes"/>
			<point x="70.4286" y="1115.86"/>
			<point x="22.2857" y="1107.57"/>
			<point x="3.71429" y="1098.43" type="curve"/>
			<point x="3.71429" y="980.286" type="line"/>
			<point x="23" y="987.143"/>
			<point x="50.4286" y="991.714"/>
			<point x="74.8571" y="991.714" type="curve" smooth="yes"/>
			<point x="138.571" y="991.714"/>
			<point x="172.571" y="949.857"/>
			<point x="172.571" y="805" type="curve" smooth="yes"/>
			<point x="172.571" y="0" type="line"/>
			<point x="299.571" y="0" type="line"/>
			<point x="317.714" y="206.714" type="line"/>
			<point x="323.429" y="206.714" type="line"/>
			<point x="371.286" y="78.8571"/>
			<point x="482" y="-20.7143"/>
			<point x="674" y="-20.7143" type="curve" smooth="yes"/>
			<point x="957.857" y="-20.7143"/>
			<point x="1122.14" y="178.857"/>
			<point x="1122.14" y="557.286" type="curve" smooth="yes"/>
			<point x="1122.14" y="919.286"/>
			<point x="967.429" y="1115.86"/>
		</contour>
		<contour>
			<point x="645.286" y="991.714" type="curve" smooth="yes"/>
			<point x="856.714" y="991.714"/>
			<point x="970" y="845.429"/>
			<point x="970" y="557.857" type="curve" smooth="yes"/>
			<point x="970" y="251.429"/>
			<point x="849.571" y="105.714"/>
			<point x="632.571" y="105.714" type="curve" smooth="yes"/>
			<point x="422.143" y="105.714"/>
			<point x="315.714" y="256.429"/>
			<point x="315.714" y="538.571" type="curve" smooth="yes"/>
			<point x="315.714" y="556.286" type="line" smooth="yes"/>
			<point x="315.714" y="832.857"/>
			<point x="416.571" y="991.714"/>
		</contour>
	</outline>
	<anchor name="bottom" x="617.429" y="0"/>
	<anchor name="top" x="617.429" y="1095.86"/>
</glyph>
<glyph name="uni0254" format="2">
	<unicode hex="0254"/>
	<advance width="1004"/>
	<outline>
		<contour>
			<point x="390.286" y="1116.57" type="curve" smooth="yes"/>
			<point x="269.429" y="1116.57"/>
			<point x="145" y="1088.14"/>
			<point x="65.4286" y="1050" type="curve"/>
			<point x="104.857" y="927" type="line"/>
			<point x="185.714" y="965.714"/>
			<point x="291.286" y="990.143"/>
			<point x="371.429" y="990.143" type="curve" smooth="yes"/>
			<point x="617.857" y="990.143"/>
			<point x="739" y="829.429"/>
			<point x="739" y="559.571" type="curve" smooth="yes"/>
			<point x="739" y="304.286"/>
			<point x="626.571" y="107.571"/>
			<point x="363.714" y="107.571" type="curve" smooth="yes"/>
			<point x="254" y="107.571"/>
			<point x="154.429" y="133.571"/>
			<point x="69.2857" y="178.286" type="curve"/>
			<point x="69.2857" y="43" type="line"/>
			<point x="147.857" y="3.14286"/>
			<point x="242.143" y="-20"/>
			<point x="370.286" y="-20" type="curve" smooth="yes"/>
			<point x="725.143" y="-20"/>
			<point x="893.714" y="218.286"/>
			<point x="893.714" y="561" type="curve" smooth="yes"/>
			<point x="893.714" y="916.143"/>
			<point x="726.571" y="1116.57"/>
		</contour>
	</outline>
	<anchor name="bottom" x="478.714" y="0"/>
	<anchor name="top" x="478.714" y="1095.86"/>
</glyph>
<glyph name="uni0255" format="2">
	<unicode hex="0255"/>
	<advance width="1056"/>
	<outline>
		<contour>
			<point x="661.286" y="1116.57" type="curve" smooth="yes"/>
			<point x="323.714" y="1116.57"/>
			<point x="109.286" y="891.714"/>
			<point x="109.286" y="542.429" type="curve" smooth="yes"/>
			<point x="109.286" y="389.286"/>
			<point x="146.571" y="263.714"/>
			<point x="213.857" y="165.429" type="curve"/>
			<point x="175.714" y="97.1429"/>
			<point x="145.429" y="23.7143"/>
			<point x="122.429" y="-57.1429" type="curve"/>
			<point x="210.857" y="-89.7143" type="line"/>
			<point x="231" y="-20.8571"/>
			<point x="254.143" y="43.8571"/>
			<point x="286" y="99" type="curve"/>
			<point x="365.143" y="27.2857"/>
			<point x="476.714" y="-20"/>
			<point x="631.143" y="-20" type="curve" smooth="yes"/>
			<point x="853.571" y="-20"/>
			<point x="982.857" y="82.8571"/>
			<point x="982.857" y="244.143" type="curve" smooth="yes"/>
			<point x="982.857" y="380.571"/>
			<point x="879.286" y="473.429"/>
			<point x="700.857" y="473.429" type="curve" smooth="yes"/>
			<point x="529" y="473.429"/>
			<point x="398.571" y="394.571"/>
			<point x="324" y="298.714" type="curve"/>
			<point x="282.714" y="366.429"/>
			<point x="264.286" y="456.571"/>
			<point x="264.286" y="551.286" type="curve" smooth="yes"/>
			<point x="264.286" y="813.429"/>
			<point x="416" y="990.143"/>
			<point x="667" y="990.143" type="curve" smooth="yes"/>
			<point x="750.429" y="990.143"/>
			<point x="828.714" y="973.143"/>
			<point x="913.857" y="935" type="curve"/>
			<point x="950.714" y="1056.43" type="line"/>
			<point x="872.429" y="1091"/>
			<point x="785.714" y="1116.57"/>
		</contour>
		<contour>
			<point x="680.571" y="377.714" type="curve" smooth="yes"/>
			<point x="796.714" y="377.714"/>
			<point x="865.286" y="324.429"/>
			<point x="865.286" y="240.714" type="curve" smooth="yes"/>
			<point x="865.286" y="160.143"/>
			<point x="787.286" y="95.2857"/>
			<point x="641.429" y="95.2857" type="curve" smooth="yes"/>
			<point x="515.286" y="95.2857"/>
			<point x="422.857" y="140.571"/>
			<point x="362.429" y="213.143" type="curve"/>
			<point x="429" y="307.286"/>
			<point x="542.857" y="377.714"/>
		</contour>
	</outline>
	<anchor name="bottom" x="528.286" y="0"/>
	<anchor name="top" x="528.286" y="1095.86"/>
</glyph>
<glyph name="uni0256" format="2">
	<unicode hex="0256"/>
	<advance width="1233"/>
	<outline>
		<contour>
			<point x="1198.29" y="-487" type="curve" smooth="yes"/>
			<point x="1259.14" y="-487"/>
			<point x="1317" y="-473.286"/>
			<point x="1349.57" y="-461" type="curve"/>
			<point x="1349.57" y="-341.429" type="line"/>
			<point x="1319.29" y="-352"/>
			<point x="1281.43" y="-360.857"/>
			<point x="1229.86" y="-360.857" type="curve" smooth="yes"/>
			<point x="1124.29" y="-360.857"/>
			<point x="1057.71" y="-303"/>
			<point x="1057.71" y="-155.714" type="curve" smooth="yes"/>
			<point x="1057.71" y="1556" type="line"/>
			<point x="906" y="1556" type="line"/>
			<point x="906" y="1146.57" type="line" smooth="yes"/>
			<point x="906" y="1059.43"/>
			<point x="908.571" y="971.714"/>
			<point x="913.714" y="886" type="curve"/>
			<point x="907.429" y="886" type="line"/>
			<point x="861.571" y="1009.86"/>
			<point x="753.143" y="1116.57"/>
			<point x="551" y="1116.57" type="curve" smooth="yes"/>
			<point x="277.857" y="1116.57"/>
			<point x="108.143" y="912.429"/>
			<point x="108.143" y="541.143" type="curve" smooth="yes"/>
			<point x="108.143" y="173.429"/>
			<point x="263.143" y="-20"/>
			<point x="533" y="-20" type="curve" smooth="yes"/>
			<point x="741.143" y="-20"/>
			<point x="859.286" y="92"/>
			<point x="905.429" y="217.143" type="curve"/>
			<point x="912" y="217.143" type="line"/>
			<point x="908.857" y="152.286"/>
			<point x="905.429" y="52"/>
			<point x="905.429" y="-18.5714" type="curve" smooth="yes"/>
			<point x="905.429" y="-173.286" type="line" smooth="yes"/>
			<point x="905.429" y="-372.714"/>
			<point x="998.429" y="-487"/>
		</contour>
		<contour>
			<point x="581" y="104.714" type="curve" smooth="yes"/>
			<point x="373.857" y="104.714"/>
			<point x="260.286" y="243.857"/>
			<point x="260.286" y="539.429" type="curve" smooth="yes"/>
			<point x="260.286" y="834.857"/>
			<point x="385.143" y="989.571"/>
			<point x="595.857" y="989.571" type="curve" smooth="yes"/>
			<point x="798.143" y="989.571"/>
			<point x="914" y="852.143"/>
			<point x="914" y="553" type="curve" smooth="yes"/>
			<point x="914" y="538.429" type="line" smooth="yes"/>
			<point x="914" y="261.857"/>
			<point x="800.429" y="104.714"/>
		</contour>
	</outline>
	<anchor name="bottom" x="617.429" y="-487"/>
	<anchor name="top" x="617.429" y="1556"/>
	<anchor name="topright" x="1176.43" y="1556"/>
</glyph>
<glyph name="uni0259" format="2">
	<unicode hex="0259"/>
	<advance width="1152"/>
	<outline>
		<contour>
			<point x="524" y="1116.57" type="curve" smooth="yes"/>
			<point x="374.143" y="1116.57"/>
			<point x="269.429" y="1091"/>
			<point x="164.286" y="1044" type="curve"/>
			<point x="164.286" y="924.429" type="line"/>
			<point x="290.714" y="982.286"/>
			<point x="376.429" y="1000.43"/>
			<point x="510.571" y="1000.43" type="curve" smooth="yes"/>
			<point x="756" y="1000.43"/>
			<point x="889.429" y="844.571"/>
			<point x="888.286" y="575.571" type="curve"/>
			<point x="113.857" y="575.571" type="line"/>
			<point x="113.857" y="488.714" type="line" smooth="yes"/>
			<point x="113.857" y="187"/>
			<point x="256" y="-20"/>
			<point x="547.429" y="-20" type="curve" smooth="yes"/>
			<point x="868.286" y="-20"/>
			<point x="1040.71" y="223.143"/>
			<point x="1040.71" y="557.286" type="curve" smooth="yes"/>
			<point x="1040.71" y="899.143"/>
			<point x="864.571" y="1116.57"/>
		</contour>
		<contour>
			<point x="884.571" y="468.143" type="line"/>
			<point x="863.857" y="220.286"/>
			<point x="733.714" y="92.4286"/>
			<point x="543.143" y="92.4286" type="curve" smooth="yes"/>
			<point x="349.286" y="92.4286"/>
			<point x="253.429" y="246.714"/>
			<point x="254.286" y="468.143" type="curve"/>
		</contour>
	</outline>
	<anchor name="bottom" x="575.857" y="0"/>
	<anchor name="top" x="572.429" y="1095.86"/>
</glyph>
<glyph name="schwahook" format="2">
	<unicode hex="025A"/>
	<advance width="1597"/>
	<outline>
		<contour>
			<point x="539.714" y="-20" type="curve" smooth="yes"/>
			<point x="891.429" y="-20"/>
			<point x="1039.29" y="228.571"/>
			<point x="1043.29" y="597.143" type="curve"/>
			<point x="1165.71" y="631.857" type="line"/>
			<point x="1209.57" y="468"/>
			<point x="1265.71" y="356.857"/>
			<point x="1429.71" y="356.857" type="curve" smooth="yes"/>
			<point x="1493" y="356.857"/>
			<point x="1549.71" y="379.286"/>
			<point x="1596.57" y="399.857" type="curve"/>
			<point x="1559" y="493.714" type="line"/>
			<point x="1523.71" y="477.714"/>
			<point x="1487.86" y="463.714"/>
			<point x="1433.71" y="463.714" type="curve" smooth="yes"/>
			<point x="1346" y="463.714"/>
			<point x="1308.71" y="520.429"/>
			<point x="1271.43" y="661.571" type="curve" smooth="yes"/>
			<point x="1245.29" y="758.714" type="line"/>
			<point x="1031" y="703.143" type="line"/>
			<point x="984.286" y="958.286"/>
			<point x="819" y="1116.57"/>
			<point x="528.857" y="1116.57" type="curve" smooth="yes"/>
			<point x="382.429" y="1116.57"/>
			<point x="256.571" y="1080.71"/>
			<point x="162.571" y="1044.86" type="curve"/>
			<point x="162.571" y="921.571" type="line"/>
			<point x="259.429" y="962.857"/>
			<point x="380.429" y="997.571"/>
			<point x="507.143" y="997.571" type="curve" smooth="yes"/>
			<point x="755.429" y="997.571"/>
			<point x="861" y="845.714"/>
			<point x="887.143" y="665" type="curve"/>
			<point x="109.857" y="463.714" type="line"/>
			<point x="109.857" y="162.571"/>
			<point x="247.143" y="-20"/>
		</contour>
		<contour>
			<point x="547.429" y="96.1429" type="curve" smooth="yes"/>
			<point x="328.571" y="96.1429"/>
			<point x="262.571" y="250.714"/>
			<point x="255.143" y="399.143" type="curve"/>
			<point x="897.429" y="562.857" type="line"/>
			<point x="897.429" y="249"/>
			<point x="781.857" y="96.1429"/>
		</contour>
	</outline>
	<anchor name="bottom" x="540.571" y="0"/>
	<anchor name="top" x="540.571" y="1095.86"/>
</glyph>
<glyph name="uni025B" format="2">
	<unicode hex="025B"/>
	<advance width="961"/>
	<outline>
		<contour>
			<point x="702.714" y="634.286" type="line"/>
			<point x="589" y="634.286" type="line" smooth="yes"/>
			<point x="372.714" y="634.286"/>
			<point x="277.143" y="696"/>
			<point x="277.143" y="814.714" type="curve" smooth="yes"/>
			<point x="277.143" y="933.857"/>
			<point x="365.857" y="1000.43"/>
			<point x="541.143" y="1000.43" type="curve" smooth="yes"/>
			<point x="649.429" y="1000.43"/>
			<point x="751.571" y="975.714"/>
			<point x="838.429" y="937.286" type="curve"/>
			<point x="883" y="1047.71" type="line"/>
			<point x="774.429" y="1091.86"/>
			<point x="678.714" y="1116.57"/>
			<point x="535.143" y="1116.57" type="curve" smooth="yes"/>
			<point x="320.429" y="1116.57"/>
			<point x="132.429" y="1038.29"/>
			<point x="132.429" y="828.143" type="curve" smooth="yes"/>
			<point x="132.429" y="714.429"/>
			<point x="189.429" y="626.714"/>
			<point x="336" y="585.143" type="curve"/>
			<point x="336" y="578.714" type="line"/>
			<point x="167.429" y="543"/>
			<point x="86.5714" y="435.143"/>
			<point x="86.5714" y="294.143" type="curve" smooth="yes"/>
			<point x="86.5714" y="102"/>
			<point x="218.143" y="-20"/>
			<point x="520.429" y="-20" type="curve" smooth="yes"/>
			<point x="681.571" y="-20"/>
			<point x="800.143" y="10"/>
			<point x="884.429" y="46.1429" type="curve"/>
			<point x="884.429" y="168" type="line"/>
			<point x="784.714" y="127.857"/>
			<point x="673.143" y="99.2857"/>
			<point x="537" y="99.2857" type="curve" smooth="yes"/>
			<point x="319.143" y="99.2857"/>
			<point x="238.571" y="193.571"/>
			<point x="238.571" y="307" type="curve" smooth="yes"/>
			<point x="238.571" y="458.714"/>
			<point x="347.571" y="525.286"/>
			<point x="572.571" y="525.286" type="curve" smooth="yes"/>
			<point x="702.714" y="525.286" type="line"/>
		</contour>
	</outline>
	<anchor name="bottom" x="480.571" y="0"/>
	<anchor name="top" x="498.286" y="1095.86"/>
</glyph>
<glyph name="eopenreversedhook" format="2">
	<unicode hex="025D"/>
	<advance width="1323"/>
	<outline>
		<component base="afii10073"/>
		<contour>
			<point x="1149.29" y="601.286" type="curve" smooth="yes"/>
			<point x="1214.29" y="601.286"/>
			<point x="1269.86" y="621.286"/>
			<point x="1322.86" y="647.143" type="curve"/>
			<point x="1279.14" y="744.714" type="line"/>
			<point x="1244.43" y="728.429"/>
			<point x="1208.57" y="712.286"/>
			<point x="1151.29" y="712.286" type="curve" smooth="yes"/>
			<point x="1061" y="712.286"/>
			<point x="1027.43" y="768.286"/>
			<point x="989.857" y="908.714" type="curve" smooth="yes"/>
			<point x="964.286" y="1000.71" type="line"/>
			<point x="705.429" y="924.571" type="line"/>
			<point x="731.429" y="828.143" type="line"/>
			<point x="886.429" y="872.571" type="line"/>
			<point x="927.429" y="715.429"/>
			<point x="985.857" y="601.286"/>
		</contour>
	</outline>
	<anchor name="bottom" x="461.714" y="0"/>
	<anchor name="top" x="461.714" y="1095.86"/>
</glyph>
<glyph name="uni0262" format="2">
	<unicode hex="0262"/>
	<advance width="1195"/>
	<outline>
		<contour>
			<point x="694.857" y="1118.86" type="curve" smooth="yes"/>
			<point x="312.571" y="1118.86"/>
			<point x="98.2857" y="866.857"/>
			<point x="98.2857" y="549.857" type="curve" smooth="yes"/>
			<point x="98.2857" y="204.714"/>
			<point x="303.286" y="-18"/>
			<point x="674.286" y="-18" type="curve" smooth="yes"/>
			<point x="828.143" y="-18"/>
			<point x="951.286" y="18"/>
			<point x="1053.14" y="61" type="curve"/>
			<point x="1053.14" y="569.429" type="line"/>
			<point x="615.857" y="569.429" type="line"/>
			<point x="615.857" y="459.857" type="line"/>
			<point x="906.429" y="459.857" type="line"/>
			<point x="906.429" y="149.429" type="line"/>
			<point x="844.429" y="127.857"/>
			<point x="768.714" y="108.714"/>
			<point x="677.714" y="108.714" type="curve" smooth="yes"/>
			<point x="398.286" y="108.714"/>
			<point x="253.429" y="278.143"/>
			<point x="253.429" y="551.286" type="curve" smooth="yes"/>
			<point x="253.429" y="824.286"/>
			<point x="438.714" y="992.429"/>
			<point x="697.429" y="992.429" type="curve" smooth="yes"/>
			<point x="815.571" y="992.429"/>
			<point x="908.429" y="962.286"/>
			<point x="993.286" y="916.714" type="curve"/>
			<point x="1041.43" y="1040" type="line"/>
			<point x="933.429" y="1093"/>
			<point x="823.857" y="1118.86"/>
		</contour>
	</outline>
	<anchor name="bottom" x="598.571" y="0"/>
	<anchor name="top" x="598.571" y="1095.86"/>
	<anchor name="topright" x="1101.57" y="1095.86"/>
</glyph>
<glyph name="uni0264" format="2">
	<unicode hex="0264"/>
	<advance width="1089"/>
	<outline>
		<contour>
			<point x="980.571" y="1112" type="curve" smooth="yes"/>
			<point x="878" y="1112"/>
			<point x="815" y="1065"/>
			<point x="744.429" y="955.429" type="curve"/>
			<point x="625.143" y="760.571" type="line"/>
			<point x="590.143" y="707.571"/>
			<point x="569" y="671.714"/>
			<point x="550.857" y="635.286" type="curve"/>
			<point x="546.857" y="635.286" type="line"/>
			<point x="528.286" y="672.857"/>
			<point x="503" y="710.714"/>
			<point x="472.143" y="760.286" type="curve" smooth="yes"/>
			<point x="353.857" y="956" type="line"/>
			<point x="282.286" y="1067.29"/>
			<point x="228.143" y="1112"/>
			<point x="116.857" y="1112" type="curve" smooth="yes"/>
			<point x="63.5714" y="1112"/>
			<point x="19.1429" y="1097.29"/>
			<point x="-3.71429" y="1084.43" type="curve"/>
			<point x="-3.71429" y="964" type="line"/>
			<point x="12.2857" y="973.143"/>
			<point x="45.5714" y="987.286"/>
			<point x="85.7143" y="987.286" type="curve" smooth="yes"/>
			<point x="161.714" y="987.286"/>
			<point x="201.857" y="946.714"/>
			<point x="267.143" y="845.571" type="curve"/>
			<point x="453" y="542.286" type="line"/>
			<point x="379.143" y="436.286"/>
			<point x="315.714" y="339.286"/>
			<point x="315.714" y="206.857" type="curve" smooth="yes"/>
			<point x="315.714" y="66.4286"/>
			<point x="397" y="-21.7143"/>
			<point x="540.571" y="-21.7143" type="curve" smooth="yes"/>
			<point x="688.429" y="-21.7143"/>
			<point x="772.286" y="68.7143"/>
			<point x="772.286" y="210.571" type="curve" smooth="yes"/>
			<point x="772.286" y="339.857"/>
			<point x="712.143" y="434"/>
			<point x="636.429" y="543.714" type="curve"/>
			<point x="821.714" y="840.143" type="line"/>
			<point x="890.429" y="940.429"/>
			<point x="935.143" y="985.286"/>
			<point x="1012.57" y="985.286" type="curve" smooth="yes"/>
			<point x="1047.86" y="985.286"/>
			<point x="1075.43" y="976.857"/>
			<point x="1094.57" y="966.286" type="curve"/>
			<point x="1094.57" y="1088.71" type="line"/>
			<point x="1071.14" y="1100.71"/>
			<point x="1033.86" y="1112"/>
		</contour>
		<contour>
			<point x="548.857" y="462.143" type="curve"/>
			<point x="613.143" y="364.429"/>
			<point x="647" y="293.857"/>
			<point x="647" y="205.429" type="curve" smooth="yes"/>
			<point x="647" y="123.143"/>
			<point x="602.571" y="83.2857"/>
			<point x="543.143" y="83.2857" type="curve" smooth="yes"/>
			<point x="483.429" y="83.2857"/>
			<point x="443.857" y="122"/>
			<point x="443.857" y="206.857" type="curve" smooth="yes"/>
			<point x="443.857" y="292.714"/>
			<point x="480.857" y="370.143"/>
		</contour>
	</outline>
	<anchor name="bottom" x="544.857" y="0"/>
	<anchor name="top" x="544.857" y="1095.86"/>
</glyph>
<glyph name="uni0265" format="2">
	<unicode hex="0265"/>
	<advance width="1231"/>
	<outline>
		<contour>
			<point x="910.286" y="-460.143" type="line"/>
			<point x="1060.57" y="-460.143" type="line"/>
			<point x="1060.57" y="1095.86" type="line"/>
			<point x="910.286" y="1095.86" type="line"/>
			<point x="910.286" y="512.143" type="line" smooth="yes"/>
			<point x="910.286" y="237.714"/>
			<point x="783.857" y="103.429"/>
			<point x="574.714" y="103.429" type="curve" smooth="yes"/>
			<point x="407" y="103.429"/>
			<point x="311.143" y="200.714"/>
			<point x="311.143" y="414.286" type="curve" smooth="yes"/>
			<point x="311.143" y="1095.86" type="line"/>
			<point x="161" y="1095.86" type="line"/>
			<point x="161" y="378.857" type="line" smooth="yes"/>
			<point x="161" y="103.714"/>
			<point x="308.286" y="-20.7143"/>
			<point x="538.429" y="-20.7143" type="curve" smooth="yes"/>
			<point x="741.286" y="-20.7143"/>
			<point x="857.857" y="76.5714"/>
			<point x="909.714" y="202.143" type="curve"/>
			<point x="918.429" y="202.143" type="line"/>
			<point x="914.571" y="142.857"/>
			<point x="910.286" y="81"/>
			<point x="910.286" y="-11.2857" type="curve" smooth="yes"/>
		</contour>
	</outline>
	<anchor name="bottom" x="616" y="-460.429"/>
	<anchor name="top" x="616" y="1095.86"/>
</glyph>
<glyph name="uni0266" format="2">
	<unicode hex="0266"/>
	<advance width="1231"/>
	<outline>
		<contour>
			<point x="170" y="0" type="line"/>
			<point x="320.286" y="0" type="line"/>
			<point x="320.286" y="570.286" type="line" smooth="yes"/>
			<point x="320.286" y="844.714"/>
			<point x="446.714" y="979"/>
			<point x="655.857" y="979" type="curve" smooth="yes"/>
			<point x="823.571" y="979"/>
			<point x="919.429" y="881.714"/>
			<point x="919.429" y="668.143" type="curve" smooth="yes"/>
			<point x="919.429" y="0" type="line"/>
			<point x="1069.57" y="0" type="line"/>
			<point x="1069.57" y="703.571" type="line" smooth="yes"/>
			<point x="1069.57" y="978.714"/>
			<point x="922.286" y="1103.14"/>
			<point x="692.143" y="1103.14" type="curve" smooth="yes"/>
			<point x="489.286" y="1103.14"/>
			<point x="372.714" y="1005.86"/>
			<point x="320.857" y="880.286" type="curve"/>
			<point x="312.143" y="880.286" type="line"/>
			<point x="316.571" y="931.286"/>
			<point x="320.286" y="972.857"/>
			<point x="320.286" y="1040.57" type="curve" smooth="yes"/>
			<point x="320.286" y="1273.57" type="line" smooth="yes"/>
			<point x="320.286" y="1382.86"/>
			<point x="371" y="1445.86"/>
			<point x="464.143" y="1445.86" type="curve" smooth="yes"/>
			<point x="508.571" y="1445.86"/>
			<point x="548.143" y="1440.14"/>
			<point x="582" y="1425.57" type="curve"/>
			<point x="582" y="1541.71" type="line"/>
			<point x="550.857" y="1554.29"/>
			<point x="500.143" y="1564.43"/>
			<point x="439" y="1564.43" type="curve" smooth="yes"/>
			<point x="286.429" y="1564.43"/>
			<point x="170" y="1476.14"/>
			<point x="170" y="1276.71" type="curve" smooth="yes"/>
		</contour>
	</outline>
	<anchor name="bottom" x="616" y="0"/>
	<anchor name="top" x="616" y="1564.43"/>
</glyph>
<glyph name="uni0267" format="2">
	<unicode hex="0267"/>
	<advance width="1261"/>
	<outline>
		<contour>
			<point x="439" y="1564.43" type="curve" smooth="yes"/>
			<point x="286.429" y="1564.43"/>
			<point x="170" y="1476.14"/>
			<point x="170" y="1276.71" type="curve" smooth="yes"/>
			<point x="170" y="0" type="line"/>
			<point x="320.286" y="0" type="line"/>
			<point x="320.286" y="570.286" type="line" smooth="yes"/>
			<point x="320.286" y="844.714"/>
			<point x="446.714" y="979"/>
			<point x="655.857" y="979" type="curve" smooth="yes"/>
			<point x="823.571" y="979"/>
			<point x="919.429" y="881.714"/>
			<point x="919.429" y="668.143" type="curve" smooth="yes"/>
			<point x="919.429" y="-170" type="line" smooth="yes"/>
			<point x="919.429" y="-302.714"/>
			<point x="865.286" y="-364.571"/>
			<point x="770.286" y="-364.571" type="curve" smooth="yes"/>
			<point x="727.571" y="-364.571"/>
			<point x="688.571" y="-360"/>
			<point x="648.286" y="-343.714" type="curve"/>
			<point x="648.286" y="-469.857" type="line"/>
			<point x="686" y="-482.429"/>
			<point x="741" y="-492"/>
			<point x="796.571" y="-492" type="curve" smooth="yes"/>
			<point x="971" y="-492"/>
			<point x="1069.57" y="-378"/>
			<point x="1069.57" y="-196.857" type="curve" smooth="yes"/>
			<point x="1069.57" y="703.571" type="line" smooth="yes"/>
			<point x="1069.57" y="978.714"/>
			<point x="922.286" y="1103.14"/>
			<point x="692.143" y="1103.14" type="curve" smooth="yes"/>
			<point x="489.286" y="1103.14"/>
			<point x="372.714" y="1005.86"/>
			<point x="320.857" y="880.286" type="curve"/>
			<point x="312.143" y="880.286" type="line"/>
			<point x="316" y="928.429"/>
			<point x="320.286" y="971.143"/>
			<point x="320.286" y="1040.57" type="curve" smooth="yes"/>
			<point x="320.286" y="1273.57" type="line" smooth="yes"/>
			<point x="320.286" y="1382.86"/>
			<point x="371" y="1445.86"/>
			<point x="464.143" y="1445.86" type="curve" smooth="yes"/>
			<point x="508.571" y="1445.86"/>
			<point x="548.143" y="1440.14"/>
			<point x="582" y="1425.57" type="curve"/>
			<point x="582" y="1541.71" type="line"/>
			<point x="550.857" y="1554.29"/>
			<point x="500.143" y="1564.43"/>
		</contour>
	</outline>
	<anchor name="bottom" x="631.429" y="-492"/>
	<anchor name="top" x="631.429" y="1564.43"/>
</glyph>
